<svg width="62" height="60" viewBox="0 0 62 60" fill="none" xmlns="http://www.w3.org/2000/svg">
<path fill-rule="evenodd" clip-rule="evenodd" d="M2.63916 54.9544H11.2689H11.3527L31 15.8935L50.6473 54.9544H50.7729H59.4027L59.3189 54.8283L31.0419 0L31 0.0420463V0L2.68105 54.8283L2.63916 54.9544Z" fill="#42A6BC"/>
<path d="M2.76478 59.9579H2.51343V57.7295H3.22559C3.47694 57.7295 3.6864 57.8136 3.81208 57.9397C3.97964 58.0659 4.06343 58.2761 4.06343 58.5284C4.06343 58.7386 3.97964 58.9488 3.81208 59.117C3.6864 59.2432 3.47694 59.3272 3.22559 59.3272H2.84856V60H2.76478V59.9579ZM3.60262 58.15C3.51883 58.0659 3.39316 58.0238 3.22559 58.0238H2.84856V58.9909H3.22559C3.39316 58.9909 3.51883 58.9488 3.60262 58.8647C3.6864 58.7806 3.72829 58.6545 3.72829 58.5284C3.72829 58.3602 3.6864 58.234 3.60262 58.15ZM20.6945 59.9579H20.4013L21.2391 57.7295H21.5323L22.4121 59.9579H22.0769L21.8675 59.3693H20.9878L20.7783 59.9579H20.6945ZM21.7418 59.0329L21.4486 58.234L21.1553 59.0329H21.7418ZM40.635 59.8318C40.4675 59.9159 40.258 60 40.0486 60C39.7134 60 39.4621 59.8738 39.2526 59.6636C39.0432 59.4534 38.9175 59.1591 38.9175 58.8647C38.9175 58.5284 39.0432 58.2761 39.2526 58.0659C39.4621 57.8556 39.7553 57.7295 40.0486 57.7295C40.258 57.7295 40.4256 57.7715 40.5932 57.8977C40.7607 57.9818 40.9283 58.15 41.0121 58.3181L41.054 58.4022L40.7607 58.5704L40.7188 58.4863C40.635 58.3602 40.5513 58.234 40.4256 58.192C40.2999 58.1079 40.1742 58.0659 40.0067 58.0659C39.7972 58.0659 39.5878 58.15 39.4202 58.3181C39.2526 58.4863 39.1688 58.6966 39.1688 58.9068C39.1688 59.117 39.2526 59.3272 39.4202 59.4954C39.5459 59.6636 39.7553 59.7477 40.0067 59.7477C40.1742 59.7477 40.2999 59.7057 40.4256 59.6216C40.5513 59.5375 40.635 59.4534 40.7188 59.2852L40.7607 59.2011L41.054 59.3693L41.0121 59.4534C40.9702 59.5795 40.8026 59.7057 40.635 59.8318ZM59.4026 59.9579H59.1513L58.4391 58.8647L58.0621 59.2852V59.9579H57.7269V57.7295H58.0621V58.8227L59.0256 57.7295H59.4445L58.6486 58.6545L59.5283 59.9579H59.4026V59.9579Z" fill="#36A2A7"/>
<path d="M2.76492 60H2.47168V57.6874H3.22573C3.35141 57.6874 3.47709 57.6874 3.56087 57.7295C3.68654 57.7715 3.77033 57.8136 3.85411 57.8977C3.9379 57.9818 3.97979 58.0658 4.02168 58.1499C4.06357 58.234 4.10546 58.3602 4.10546 58.4863C4.10546 58.6125 4.06357 58.6965 4.02168 58.8227C3.97979 58.9068 3.896 59.0329 3.85411 59.075C3.77033 59.159 3.68654 59.2011 3.56087 59.2431C3.47709 59.2852 3.35141 59.2852 3.22573 59.2852H2.8906V59.9579H2.76492V60ZM2.55546 59.9159H2.80681V59.2431H3.22573C3.35141 59.2431 3.43519 59.2431 3.56087 59.2011C3.64465 59.1591 3.72844 59.117 3.81222 59.0329C3.896 58.9488 3.9379 58.8647 3.97979 58.7806C4.02168 58.6965 4.02168 58.5704 4.02168 58.4863C4.02168 58.3602 4.02168 58.2761 3.97979 58.192C3.9379 58.1079 3.896 58.0238 3.81222 57.9397C3.72844 57.8556 3.64465 57.8136 3.56087 57.7715C3.47709 57.7295 3.35141 57.7295 3.22573 57.7295H2.55546V59.9159ZM3.56087 58.192C3.51898 58.1499 3.47709 58.1079 3.3933 58.1079C3.35141 58.1079 3.26763 58.0658 3.18384 58.0658H2.8906V58.9488H3.22573C3.30952 58.9488 3.35141 58.9488 3.43519 58.9068C3.47709 58.8647 3.56087 58.8647 3.60276 58.8227C3.64465 58.7806 3.68654 58.7386 3.68654 58.6965C3.72844 58.6545 3.72844 58.5704 3.72844 58.5284C3.72844 58.4443 3.72844 58.4022 3.68654 58.3602C3.64465 58.2761 3.60276 58.234 3.56087 58.192ZM3.43519 58.0238C3.51898 58.0658 3.56087 58.0658 3.60276 58.1079C3.64465 58.1499 3.68654 58.192 3.72844 58.2761C3.77033 58.3181 3.77033 58.4022 3.77033 58.4863C3.77033 58.5704 3.77033 58.6125 3.72844 58.6965C3.68654 58.7386 3.64465 58.8227 3.60276 58.8647C3.56087 58.9068 3.47709 58.9488 3.43519 58.9488C3.35141 58.9909 3.30952 58.9909 3.22573 58.9909H2.80681V57.9818H3.22573C3.30952 57.9818 3.3933 58.0238 3.43519 58.0238ZM20.6947 60H20.3595C20.6528 59.2431 20.946 58.4863 21.2392 57.6874H21.5744C21.8676 58.4443 22.1609 59.2011 22.4541 60H22.0352L21.8257 59.4113H20.9879L20.7784 60H20.6947ZM20.4852 59.9159H20.7784L20.9879 59.3272H21.9095L22.119 59.9159H22.4122L21.5744 57.7295H21.323L20.4852 59.9159ZM21.7001 59.0329L21.4487 58.3181L21.1974 59.0329H21.7001ZM21.4487 58.234L21.7838 59.075H21.0717L21.4487 58.1499V58.234ZM40.6771 59.8318C40.5933 59.8738 40.5095 59.9159 40.3838 59.9579C40.3001 60 40.1744 60 40.0487 60C39.8811 60 39.7555 59.9579 39.5879 59.9159C39.4622 59.8738 39.2947 59.7477 39.2109 59.6636C39.0852 59.5375 39.0014 59.4113 38.9595 59.2852C38.9176 59.159 38.8757 58.9909 38.8757 58.8227C38.8757 58.6545 38.9176 58.5284 38.9595 58.3602C39.0014 58.234 39.1271 58.0658 39.2109 57.9818C39.3365 57.8556 39.4622 57.7715 39.5879 57.7295C39.7136 57.6874 39.8811 57.6454 40.0487 57.6454C40.1325 57.6454 40.2582 57.6454 40.342 57.6874C40.4257 57.7295 40.5514 57.7715 40.6352 57.8136C40.719 57.8556 40.8028 57.9397 40.8865 57.9818C40.9703 58.0658 41.0122 58.1499 41.096 58.234L41.1379 58.3181L40.8028 58.5284L40.7609 58.4443C40.719 58.4022 40.6771 58.3181 40.6352 58.2761C40.5933 58.234 40.5514 58.192 40.4676 58.1499C40.4257 58.1079 40.342 58.1079 40.3001 58.0658C40.2163 58.0658 40.1744 58.0238 40.0906 58.0238C39.9649 58.0238 39.8811 58.0658 39.7974 58.0658C39.7136 58.1079 39.6298 58.1499 39.546 58.234C39.4622 58.3181 39.4203 58.4022 39.3784 58.4863C39.3365 58.5704 39.3365 58.6965 39.3365 58.7806C39.3365 58.9068 39.3784 58.9909 39.3784 59.075C39.4203 59.159 39.4622 59.2431 39.546 59.3272C39.6298 59.4113 39.7136 59.4534 39.7974 59.4954C39.8811 59.5375 40.0068 59.5375 40.0906 59.5375C40.1744 59.5375 40.2582 59.5375 40.3001 59.4954C40.3838 59.4954 40.4257 59.4534 40.5095 59.4113C40.5514 59.3693 40.6352 59.3272 40.6771 59.2852C40.719 59.2431 40.7609 59.1591 40.8028 59.117L40.8447 59.0329L41.1798 59.2011L41.1379 59.2852C41.096 59.3693 41.0122 59.4534 40.9703 59.5375C40.8447 59.7057 40.7609 59.7897 40.6771 59.8318ZM40.342 59.9159C40.4257 59.8738 40.5514 59.8318 40.6352 59.7897C40.719 59.7477 40.8028 59.6636 40.8865 59.6216C40.9703 59.5375 41.0122 59.4534 41.0541 59.3693L41.096 59.3272L40.8447 59.2011L40.8028 59.2431C40.7609 59.3272 40.719 59.3693 40.6771 59.4534C40.6352 59.4954 40.5514 59.5375 40.5095 59.5795C40.4257 59.6216 40.3838 59.6636 40.3001 59.6636C40.2163 59.6636 40.1325 59.7057 40.0487 59.7057C39.923 59.7057 39.8393 59.6636 39.7136 59.6216C39.6298 59.5795 39.5041 59.4954 39.4203 59.4534C39.3365 59.3693 39.2947 59.2852 39.2528 59.159C39.2109 59.075 39.169 58.9488 39.169 58.8227C39.169 58.6965 39.2109 58.6125 39.2528 58.4863C39.2947 58.3602 39.3784 58.2761 39.4203 58.192C39.5041 58.1079 39.5879 58.0658 39.7136 58.0238C39.7974 57.9818 39.923 57.9397 40.0487 57.9397C40.1325 57.9397 40.2163 57.9397 40.2582 57.9818C40.342 57.9818 40.3838 58.0238 40.4676 58.0658C40.5514 58.1079 40.5933 58.1499 40.6352 58.192C40.6771 58.234 40.719 58.3181 40.7609 58.3602L40.8028 58.4022L41.0122 58.2761L40.9703 58.234C40.9284 58.1499 40.8447 58.0658 40.8028 58.0238C40.719 57.9397 40.6771 57.8977 40.5514 57.8556C40.4676 57.8136 40.3838 57.7715 40.3001 57.7295C40.2163 57.6874 40.1325 57.6874 40.0068 57.6874C39.8393 57.6874 39.7136 57.7295 39.5879 57.7715C39.4622 57.8136 39.3365 57.8977 39.2109 58.0238C39.1271 58.1079 39.0433 58.234 38.9595 58.4022C38.9176 58.5284 38.8757 58.6965 38.8757 58.8227C38.8757 58.9909 38.9176 59.117 38.9595 59.2431C39.0014 59.3693 39.0852 59.4954 39.2109 59.6216C39.2947 59.7057 39.4203 59.7897 39.5879 59.8738C39.7136 59.9159 39.8811 59.9579 40.0068 59.9579C40.1744 59.9579 40.2582 59.9159 40.342 59.9159ZM59.4028 60H59.1514L58.4393 58.9488L58.1041 59.3272V60H57.7271V57.6874H58.1041V58.7386L59.0257 57.6874H59.5284L58.6906 58.6545L59.5703 60H59.4028ZM59.1933 59.9159H59.4866L58.6487 58.6124L59.4028 57.7295H59.0676L58.0622 58.9068V57.7295H57.8109V59.9159H58.0622V59.2852L58.4393 58.8227L59.1933 59.9159Z" fill="#36A2A7"/>
<path d="M29.3243 54.9545V36.2859H24.8838V33.679H29.3243V26.1528H29.827H32.2149H32.6757V33.679H37.1162V36.2859H32.6757V54.9545H32.2149H29.827H29.3243Z" fill="black"/>
<path d="M0 43.9804C0.0418919 41.6678 0.586486 39.6916 1.71757 37.9678C2.80676 36.2439 4.23108 34.9404 5.94865 34.0154C7.58243 33.1324 9.3 32.6699 11.1014 32.6699C11.1851 32.6699 11.3108 32.6699 11.3946 32.6699C15.2486 32.754 18.0135 34.3097 19.6892 37.3371V33.2165H22.4959V54.4919H19.6892V50.4134C18.8932 51.8851 17.7203 53.0203 16.1703 53.8192C14.7041 54.576 13.1959 54.9544 11.6041 54.9544C11.4365 54.9544 11.3108 54.9544 11.1432 54.9544C9.25811 54.9124 7.45676 54.4499 5.6973 53.5249C3.97973 52.5998 2.5973 51.2964 1.55 49.6566C0.502703 48.0168 0 46.1247 0 43.9804ZM2.93243 43.3076C2.93243 43.4758 2.93243 43.686 2.93243 43.8542C2.93243 44.9054 3.1 45.9145 3.47703 46.8395C3.89595 47.9327 4.52432 48.8577 5.32027 49.6146C6.11622 50.4134 6.99595 51.0441 8.04324 51.4226C9.04865 51.843 10.0959 52.0532 11.1432 52.1373C11.1851 52.1373 11.1851 52.1373 11.227 52.1373C13.6149 52.1373 15.6257 51.2964 17.2595 49.6566C18.8932 47.9748 19.6892 46.0827 19.6892 43.9383C19.6892 41.6258 18.8932 39.6496 17.3432 38.0518C15.7514 36.4541 13.8243 35.6132 11.5203 35.487C11.3946 35.487 11.2689 35.487 11.1432 35.487C9.71892 35.487 8.37838 35.8654 7.20541 36.5802C5.86487 37.3791 4.85946 38.3882 4.10541 39.6916C3.30946 40.953 2.93243 42.1724 2.93243 43.3076Z" fill="black"/>
<path d="M62 43.9804C61.9581 41.6678 61.4135 39.6916 60.2824 37.9678C59.1932 36.2439 57.7689 34.9404 56.0513 34.0154C54.4176 33.1324 52.7 32.6699 50.8986 32.6699C50.8149 32.6699 50.6892 32.6699 50.6054 32.6699C46.7095 32.754 43.9446 34.3097 42.2689 37.3371V33.2165H39.4622V54.4919H42.2689V50.4134C43.0649 51.8851 44.2378 53.0203 45.7878 53.8192C47.2541 54.576 48.7622 54.9544 50.354 54.9544C50.5216 54.9544 50.6473 54.9544 50.8149 54.9544C52.7 54.9124 54.5013 54.4499 56.2608 53.5249C57.9784 52.5998 59.3608 51.2964 60.4081 49.6566C61.4973 48.0168 62 46.1247 62 43.9804ZM59.0676 43.3076C59.0676 43.4758 59.0676 43.686 59.0676 43.8542C59.0676 44.9054 58.9 45.9145 58.523 46.8395C58.104 47.9327 57.4757 48.8577 56.6797 49.6146C55.8838 50.4134 55.0041 51.0441 53.9568 51.4226C52.9513 51.843 51.9041 52.0532 50.8568 52.1373C50.8149 52.1373 50.8149 52.1373 50.773 52.1373C48.3851 52.1373 46.3743 51.2964 44.7405 49.6566C43.1068 47.9748 42.3108 46.0827 42.3108 43.9383C42.3108 41.6258 43.1068 39.6496 44.6568 38.0518C46.2486 36.4541 48.1757 35.6132 50.4797 35.487C50.6054 35.487 50.7311 35.487 50.8568 35.487C52.2811 35.487 53.6216 35.8654 54.7946 36.5802C56.1351 37.3791 57.1405 38.3882 57.8946 39.6916C58.6905 40.953 59.0676 42.1724 59.0676 43.3076Z" fill="black"/>
</svg>
