<?xml version="1.0" encoding="UTF-8"?>
<svg id="SVGDoc" width="165" height="103" xmlns="http://www.w3.org/2000/svg" version="1.1" xmlns:xlink="http://www.w3.org/1999/xlink" xmlns:avocode="https://avocode.com/" viewBox="0 0 165 103"><defs></defs><desc>Generated with Avocode.</desc><g><g><title>Frame</title><g><title>Background</title></g><g><title>Group</title><g><title>Group</title><g><title>Vector</title><path d="M157.242,102.764c-9.438,0 -146.90125,0.037 -146.98087,-0.213l-0.01225,-0.031v0c0,0 -0.01225,-0.031 -0.01225,-0.043c-0.05512,-0.122 -21.17923,-34.6102 11.66757,-58.6169c12.8497,-9.3936 -0.8023,-15.5969 9.4137,-26.054c11.7472,-12.01555 24.5601,1.2773 37.6242,-4.1743c2.309,-0.9595 4.6241,-2.5119 6.9393,-4.8832c5.3714,-5.5005 12.7455,-8.04907 20.3585,-8.62357c14.5951,-1.08788 31.0161,5.03602 39.4921,13.97737c1.709,1.803 9.463,11.1233 3.35,23.9394c-3.858,8.0919 12.317,15.817 18.062,25.0518c14.614,23.4932 0.227,39.3654 0.098,39.6704z" fill="#ebf3fa" fill-opacity="1"></path></g></g><g opacity="0.5"><title>Group</title><g opacity="0.25"><title>Group</title><g opacity="0.125"><title>Vector</title><path d="M53.26352,38.1762c0,0 -1.07182,-8.94751 -5.66535,-14.28911c-0.61247,-0.70895 -1.78229,-0.25669 -1.75779,0.6784c0,0.01833 0,0.03056 0,0.04889c0.06125,1.59515 5.206,8.33021 7.42314,13.56182z" fill="#aec3ff" fill-opacity="1"></path></g></g><g opacity="0.25"><title>Group</title><g opacity="0.125"><title>Vector</title><path d="M53.8262,40.7358v0c0,0 -4.58131,-11.1844 -12.39646,-16.12874c-0.47773,-0.29947 -1.12083,-0.18946 -1.44544,0.27503c-0.20824,0.29947 -0.30011,0.77618 -0.06737,1.50958c0.62472,1.96796 9.34633,8.58694 13.90927,14.34414z" fill="#aec3ff" fill-opacity="1"></path></g></g></g><g><title>Group</title><g><title>Group</title><g><title>Vector</title><path d="M110.86209,37.8883v0c0,0 -4.09743,-2.51805 -2.0089,-5.62278c0,0 1.64755,-1.88851 3.35022,-2.32243c0,0 -1.09021,4.7121 -0.20212,4.85878c0.88808,0.14668 0.83909,-5.33549 0.83909,-5.33549v0c0,0 4.50778,-1.93741 6.23492,-1.69905c0,0 -2.93371,4.52264 -2.03338,4.4493c0.90034,-0.07334 4.17088,-4.63876 4.17088,-4.63876v0c0,0 4.5691,-0.64784 5.1816,2.05963c0.6186,2.70747 -0.6125,4.00315 -1.2924,4.14372c-0.6798,0.14057 -4.9855,-0.09168 -4.8936,0.4706c0.0857,0.56227 2.9644,1.57681 4.6058,1.14288c0,0 -1.9722,4.3393 -4.3118,4.0154c-2.33965,-0.3178 -3.00725,-1.803 -4.45881,-1.9741c-1.45155,-0.17113 -2.5295,0.1772 -1.81903,0.5989c0.71046,0.4218 3.18485,0.2628 4.31794,1.3079c1.133,1.0451 2.0579,1.6991 -0.1409,2.0536c-2.19876,0.3544 -6.10633,-0.0856 -6.82292,-1.7908c-0.71659,-1.7173 -0.71659,-1.7173 -0.71659,-1.7173z" fill="#82b378" fill-opacity="1"></path></g></g><g><title>Group</title><g><title>Group</title><g><title>Vector</title><path d="M124.2783,30.39c0,0 -11.90643,3.31253 -13.42536,7.49903c0,0 -0.0245,1.90074 -1.28619,4.02757l-0.03675,0.8373v0c0,0 1.34743,-2.79912 2.03953,-3.15971c-0.00613,0 -2.48051,-3.79535 12.70877,-9.20419z" fill="#82b378" fill-opacity="1"></path></g></g><g><title>Group</title><g><title>Vector</title><path d="M109.56608,41.91903v0c0,0 -1.92319,2.6708 -1.02897,6.05667l0.47161,-0.1039v0c0,0 -0.30012,-3.70367 0.72272,-5.51273c1.02897,-1.81517 -0.16536,-0.44004 -0.16536,-0.44004z" fill="#82b378" fill-opacity="1"></path></g></g></g></g><g><title>Group</title><g><title>Group</title><g><title>Vector</title><path d="M94.26144,37.7851v0c0,0 -6.8842,0.605 -7.14144,-4.7549c0,0 0.27562,-3.5875 1.8558,-5.5372c0,0 2.78675,6.3562 3.94432,5.7633c1.15145,-0.5928 -3.61972,-6.8573 -3.61972,-6.8573v0c0,0 3.52785,-6.09329 5.72051,-7.29118c0,0 0.50835,7.71908 1.47606,6.86338c0.97383,-0.8556 0.82073,-8.91079 0.82073,-8.91079v0c0,0 4.6977,-4.6571 7.7417,-2.06575c3.0378,2.59135 2.7316,5.13381 2.0701,5.87332c-0.6615,0.73951 -5.8185,4.15592 -5.2366,4.73042c0.5879,0.5745 4.765,-0.7212 6.2839,-2.628c0,0 1.4516,6.6801 -1.5189,8.318c-2.9705,1.6318 -5.01,0.5011 -6.8291,1.5401c-1.819,1.0451 -2.76223,2.3652 -1.5802,2.243c1.1821,-0.1222 3.8893,-2.4263 6.0942,-2.1941c2.2049,0.2323 3.834,0.1956 1.6046,2.4875c-2.2294,2.2918 -7.1047,5.1277 -9.3953,3.7709c-2.29066,-1.3507 -2.29066,-1.3507 -2.29066,-1.3507z" fill="#a8d29f" fill-opacity="1"></path></g></g><g><title>Group</title><g><title>Group</title><g><title>Vector</title><path d="M103.27755,17.67c0,0 -10.86527,14.0018 -9.0156,20.1257c0,0 1.60468,2.2064 1.97829,5.745l0.67984,0.9962v0c0,0 -0.85134,-4.3759 -0.36748,-5.3844c0,-0.0061 -6.11248,-2.2552 6.72495,-21.4825z" fill="#a8d29f" fill-opacity="1"></path></g></g><g><title>Group</title><g><title>Vector</title><path d="M96.25,43.53299v0c0,0 0.07962,4.72432 4.01782,7.8596l0.45323,-0.5256v0c0,0 -3.52784,-4.00314 -3.90145,-6.9673c-0.37361,-2.96416 -0.5696,-0.3667 -0.5696,-0.3667z" fill="#a8d29f" fill-opacity="1"></path></g></g></g></g><g><title>Group</title><g><title>Group</title><g><title>Group</title><g><title>Vector</title><path d="M29.57301,90.6068v0c0,0 -1.92929,-2.24298 -0.11637,-3.67311c0,0 1.32294,-0.80063 2.40089,-0.7334c0,0 -1.52505,2.55468 -1.03508,2.81137c0.49611,0.25669 1.49443,-2.97027 1.49443,-2.97027v0c0,0 3.00724,-0.29337 3.97495,0.17112c0,0 -2.57238,2.10242 -2.02728,2.22465c0.5451,0.12223 3.31959,-1.93739 3.31959,-1.93739v0c0,0 2.79896,0.47671 2.65196,2.18187c-0.1469,1.70515 -1.1147,2.23076 -1.5373,2.18798c-0.42256,-0.04278 -2.90307,-0.99009 -2.9582,-0.64173c-0.05512,0.34837 1.43931,1.47903 2.48664,1.53403c0,0 -1.97216,2.16964 -3.28285,1.54625c-1.31069,-0.6295 -1.42093,-1.61959 -2.24165,-1.9924c-0.82071,-0.37282 -1.5128,-0.37282 -1.17594,0.00611c0.33686,0.37892 1.81904,0.75173 2.28452,1.57681c0.46547,0.82508 0.88808,1.38124 -0.47161,1.17955c-1.35969,-0.20168 -3.56458,-1.19178 -3.66258,-2.32855c-0.10412,-1.14288 -0.10412,-1.14288 -0.10412,-1.14288v0z" fill="#bbd0ff" fill-opacity="1"></path></g></g><g><title>Group</title><g><title>Group</title><g><title>Vector</title><path d="M38.8555,88.73329c0,0 -7.60078,-0.29336 -9.28508,1.87628c0,0 -0.37361,1.11231 -1.5128,2.12073l-0.17762,0.48283v0c0,0 1.31681,-1.38735 1.78842,-1.47291c0,0.00611 -0.73497,-2.68301 9.18708,-3.00693z" fill="#bbd0ff" fill-opacity="1"></path></g></g><g><title>Group</title><g><title>Vector</title><path d="M28.05555,92.73016v0c0,0 -1.62918,1.20401 -1.74555,3.35532l0.29399,0.02445v0c0,0 0.5206,-2.22465 1.46381,-3.09251c0.94321,-0.86786 -0.01225,-0.28725 -0.01225,-0.28725v0z" fill="#bbd0ff" fill-opacity="1"></path></g></g></g></g><g><title>Group</title><g><title>Group</title><g><title>Vector</title><path d="M22.8342,87.78559v0c0,0 3.0685,-1.71128 1.6353,-4.03983c0,0 -1.1453,-1.43013 -2.3702,-1.79683c0,0 0.6553,3.47144 0,3.55089c-0.65538,0.07945 -0.4471,-3.91759 -0.4471,-3.91759v0c0,0 -3.23389,-1.55237 -4.50171,-1.43013c0,0 2.00278,3.38587 1.34744,3.30642c-0.65535,-0.07946 -2.90312,-3.50811 -2.90312,-3.50811v0c0,0 -3.31347,-0.61117 -3.84632,1.34457c-0.53285,1.96185 0.32461,2.93972 0.82071,3.06195c0.48998,0.12223 3.63808,0.07945 3.55846,0.48894c-0.07962,0.40948 -2.21102,1.06343 -3.39309,0.69673c0,0 1.31069,3.22696 3.02561,3.06195c1.71492,-0.16502 2.24777,-1.22233 3.31347,-1.30789c1.0657,-0.07946 1.84354,0.20168 1.31069,0.48893c-0.53285,0.28725 -2.33352,0.09168 -3.19098,0.82508c-0.85746,0.72729 -1.55568,1.17955 0.04288,1.50343c1.59242,0.324 4.45876,0.1223 5.02836,-1.10006c0.5696,-1.22845 0.5696,-1.22845 0.5696,-1.22845z" fill="#aec3ff" fill-opacity="1"></path></g></g><g><title>Group</title><g><title>Group</title><g><title>Vector</title><path d="M13.26,81.9c0,0 8.58686,2.7747 9.57294,5.87943c0,0 -0.04287,1.38735 0.82076,2.97638v0.61117v0c0,0 -0.90038,-2.08408 -1.39036,-2.36521c-0.00612,0 1.91706,-2.68914 -9.00334,-7.10177z" fill="#aec3ff" fill-opacity="1"></path></g></g><g><title>Group</title><g><title>Vector</title><path d="M23.65091,90.76163v0c0,0 1.32293,2.00463 0.5696,4.4493l-0.34298,-0.09167v0c0,0 0.33073,-2.68914 -0.36136,-4.04594c-0.69209,-1.35068 0.13474,-0.31169 0.13474,-0.31169z" fill="#aec3ff" fill-opacity="1"></path></g></g></g></g><g><title>Group</title><g><title>Group</title><g><title>Vector</title><path d="M27.70748,85.4121v0c0,0 -4.04232,-2.26134 -2.15591,-5.32328c0,0 1.50669,-1.88239 3.12974,-2.36521c0,0 -0.86359,4.57152 0,4.68153c0.86358,0.11001 0.5941,-5.16435 0.5941,-5.16435v0c0,0 4.25668,-2.04741 5.92869,-1.8824c0,0 -2.63972,4.46763 -1.77613,4.35762c0.86359,-0.11001 3.82793,-4.62653 3.82793,-4.62653v0c0,0 4.367,-0.80674 5.0652,1.77238c0.6982,2.58523 -0.4288,3.87479 -1.078,4.03369c-0.6492,0.15891 -4.7956,0.11002 -4.6915,0.64784c0.1102,0.53783 2.9092,1.39957 4.4772,0.91675c0,0 -1.7272,4.24756 -3.9872,4.03366c-2.26619,-0.2139 -2.96441,-1.61345 -4.36697,-1.72346c-1.40256,-0.11001 -2.42539,0.26896 -1.72717,0.64786c0.69822,0.3789 3.07461,0.1222 4.20764,1.0817c1.1331,0.9596 2.0518,1.5524 -0.0551,1.9802c-2.10076,0.4278 -5.87972,0.1589 -6.63306,-1.4546c-0.75946,-1.6134 -0.75946,-1.6134 -0.75946,-1.6134z" fill="#d2e0ff" fill-opacity="1"></path></g></g><g><title>Group</title><g><title>Group</title><g><title>Vector</title><path d="M40.3249,77.67c0,0 -11.32463,3.66089 -12.61695,7.7496c0,0 0.05512,1.82739 -1.07795,3.9298v0.8067v0c0,0 1.1882,-2.7441 1.83129,-3.12302c0.00613,-0.00611 -2.5295,-3.55699 11.86361,-9.36308z" fill="#d2e0ff" fill-opacity="1"></path></g></g><g><title>Group</title><g><title>Vector</title><path d="M26.62843,89.34177v0c0,0 -1.74556,2.64636 -0.75335,5.86723l0.44711,-0.12224v0c0,0 -0.43486,-3.54478 0.47773,-5.3294c0.91871,-1.78461 -0.17149,-0.41559 -0.17149,-0.41559z" fill="#d2e0ff" fill-opacity="1"></path></g></g></g></g><g><title>Group</title><g><title>Vector</title><path d="M27.56927,102.19238c4.37303,0 7.91923,-3.53865 7.91923,-7.90238h-15.8385c0,4.36373 3.54622,7.90238 7.91927,7.90238z" fill="#c0d4ff" fill-opacity="1"></path></g></g><g><title>Group</title><g><title>Vector</title><path d="M35.599,102.59788v0h-16.059c0,-0.53783 0.43486,-0.97787 0.97996,-0.97787h14.10525c0.539,0.00611 0.9738,0.44004 0.9738,0.97788z" fill="#c0d4ff" fill-opacity="1"></path></g></g><g><title>Group</title><g><title>Vector</title><path d="M35.6695,94.29v0h-16.2795v0v0.24446v0h16.2795v0z" fill="#86a2e2" fill-opacity="1"></path></g></g></g><g><title>Group</title><g><title>Vector</title><path d="M81.60586,57.91726v0l-3.5462,42.05434v0c0,0 -0.37361,2.5486 1.53117,2.5547c3.1236,0.0061 15.55067,0 15.55067,0v0c0,0 -2.3519,-0.5317 -2.3213,-1.7235c0.0306,-1.4057 4.1403,-43.2828 4.1403,-43.2828v0z" fill="#798ee8" fill-opacity="1"></path></g></g><g><title>Group</title><g><title>Vector</title><path d="M96.3139,101.7608c-0.6125,0 -12.64758,0.0244 -15.68544,-0.0183c-1.32907,-0.0184 -1.55568,-1.1735 -1.56793,-1.9252c-0.00612,-0.3606 0.04287,-0.6234 0.04287,-0.6234v0l0.09187,-1.094v0l0.23274,-2.7869v0l0.20823,-2.463v0l0.26949,-3.1659v0l0.22662,-2.6708v0l2.51725,-29.88604v0l15.35469,-0.39726v0c0,0 -1.7333,17.5222 -2.9521,30.2833c-0.1348,1.424 -0.2695,2.787 -0.3859,4.0582c-0.0367,0.4034 -0.0735,0.8006 -0.1102,1.1918c-0.1164,1.204 -0.2144,2.3163 -0.3063,3.2941c-0.049,0.5134 -0.0918,0.9963 -0.1286,1.4363c-0.1592,1.7174 -0.245,2.8175 -0.2511,3.0253c0,0.1222 0.0122,0.2322 0.0306,0.3422c0.2328,1.3385 2.1804,1.3996 2.4132,1.3996z" fill="#aec3ff" fill-opacity="1"></path></g></g><g><title>Group</title><g><title>Vector</title><path d="M44.31,35.01v0l8.62973,34.6043v0l1.1882,4.7426v0l4.01777,16.1165v0h74.7094v0l-14.8218,-55.4634v0z" fill="#aec3ff" fill-opacity="1"></path></g></g><g><title>Group</title><g><title>Vector</title><path d="M44.31044,35.01v0l-1.20044,0.39726v0l13.4437,56.27014v0l1.5925,-1.204v0z" fill="#798ee8" fill-opacity="1"></path></g></g><g><title>Group</title><g><title>Vector</title><path d="M56.56,91.684v0h74.25v0l2.0518,-1.204v0h-74.70937v0z" fill="#849def" fill-opacity="1"></path></g></g><g><title>Group</title><g><title>Vector</title><path d="M82.63,102.52396v0h16.0774v0v-0.76396v0h-16.0774v0z" fill="#aec3ff" fill-opacity="1"></path></g></g><g><title>Group</title><g><title>Vector</title><path d="M94.6216,91.68v0l-0.0858,0.58061v0l-15.1158,3.04971v0l0.20824,-2.463v0l0.09799,-1.16732v0z" fill="#8c9df4" fill-opacity="1"></path></g></g><g opacity="0.5"><title>Group</title><g opacity="0.25"><title>Vector</title><path d="M96.3133,101.75709c-0.6124,0 -12.64751,0.02444 -15.68537,-0.01834c-1.32907,-0.01833 -1.55568,-1.17344 -1.56793,-1.92517l15.0484,-2.82358c-0.1592,1.71737 -0.2449,2.81747 -0.2511,3.02527c0,0.12223 0.0123,0.23224 0.0307,0.34225c0.2449,1.33845 2.1926,1.39957 2.4253,1.39957z" fill="#8c9df4" fill-opacity="1"></path></g></g><g><title>Group</title><g><title>Vector</title><path d="M44.31,35.01v0h73.7233v0l11.9616,44.5785v0h-74.5624v0z" fill="#8c9df4" fill-opacity="1"></path></g></g><g><title>Group</title><g><title>Vector</title><path d="M126.5159,77.6576v0h-69.0256v0l-2.46827,-9.8093v0l-0.95546,-3.7953v0l-0.38586,-1.5462v0l-2.53563,-10.0782v0l-0.13474,-0.5195v0l-1.3352,-5.32937v0l-0.60022,-2.38355v0l-0.51447,-2.03519v0l-0.41649,-1.65626v0l-0.78396,-3.10473v0h68.0334v0l0.8574,3.10473v0l0.4594,1.65626v0l0.5635,2.03519v0l0.6553,2.38355v0l4.3425,15.70087v0l0.3674,1.3324v0l0.1654,0.6172v0l2.995,10.836v0z" fill="#505aba" fill-opacity="1"></path></g></g><g><title>Group</title><g><title>Vector</title><path d="M99.1585,75.8825v0h-35.51735v0l-1.94766,-9.5464v0l-0.75334,-3.0008v0l-0.31236,-1.2224v0l-2.00279,-7.9696v0l-0.10412,-0.4156v0l-1.05958,-4.21704v0l-0.47773,-1.88239v0l-0.40424,-1.60737v0l-0.33073,-1.31401v0l-0.6186,-2.45689v0h34.7579v0z" fill="#5e6ecc" fill-opacity="1"></path></g></g><g><title>Group</title><g><title>Vector</title><path d="M83.4383,79.59v0l-25.27055,11.0132v0l-2.73775,-11.0132v0z" fill="#8c9df4" fill-opacity="1"></path></g></g><g><title>Group</title><g><title>Group</title><g><title>Vector</title><path d="M140.98363,55.31234c0.00613,-0.09779 0.07963,-1.16733 1.71492,-1.22234c0,0 -0.80233,0.09779 -0.9432,0.44616c0,0 0.54509,-0.43393 0.9922,-0.29336c0.4471,0.14057 0.70434,0.91676 0.71046,1.17345c0.00613,0.25669 -0.24499,1.08177 -0.52672,1.149c-0.10412,0.02445 -0.23273,0.01833 -0.34298,0c0.0735,0.11612 0.14699,0.24447 0.22048,0.39115c0.64922,1.33235 -0.01838,2.64025 -0.5696,2.49357c-0.35523,-0.09167 -0.45322,0.50727 -0.45322,0.50727v0l-3.43595,-2.77471c-0.00612,0 1.25556,-2.60358 2.63361,-1.87018z" fill="#2c3a64" fill-opacity="1"></path></g></g><g><title>Group</title><g><title>Vector</title><path d="M131.61668,72.0031c0.28785,0.25059 1.04729,-0.6173 1.15141,-0.73343c0.00612,-0.01222 0.01224,-0.01833 0.01224,-0.01833v0l-0.23273,-0.64787v0c0,0 -0.99829,-0.03667 -1.16365,0.12836c-0.16536,0.16502 -0.08574,0.99623 0.23273,1.27127z" fill="#ffb27d" fill-opacity="1"></path></g></g><g><title>Group</title><g><title>Vector</title><path d="M139.78,94.6254v0l0.72884,0.2689v0c0,0 3.17261,-4.3882 3.55846,-8.2446c0.06738,-0.6906 -0.0735,-2.1513 -0.01837,-2.463c0.0245,-0.1467 0.05512,-0.3239 0.09187,-0.5195c0.10412,-0.5867 0.24499,-1.3935 0.40423,-2.31634c0.37361,-2.11464 0.85746,-4.816 1.23106,-6.79618l-0.19598,-0.06112v0l-2.12528,-0.68451v0l-0.44098,-1.39345v0l-1.58631,-0.4156v0c0,0 -0.35522,0.69062 -0.66758,3.95425c-0.06125,0.42782 -0.11025,0.89842 -0.15312,1.4118c-0.12249,1.56459 -0.13474,3.50199 0.15312,5.71445c0.07349,0.5683 0.37361,2.7991 0.33686,3.4897c-0.15311,3.1536 -1.31681,8.0552 -1.31681,8.0552v0z" fill="#2b478b" fill-opacity="1"></path></g></g><g><title>Group</title><g><title>Vector</title><path d="M140.62,77.35994v0l3.44211,6.82676c0.0245,-0.1467 0.05512,-0.3239 0.09187,-0.5195c0.10412,-0.5867 0.24498,-1.3935 0.40422,-2.31635c0.37361,-2.11463 0.85747,-4.81599 1.23108,-6.79617l-0.19599,-0.06112v0l-2.12529,-0.68451v0l-0.44098,-1.39345v0l-1.5863,-0.4156v0c0,0 -0.35524,0.69062 -0.6676,3.95425c-0.06125,0.42171 -0.11024,0.89231 -0.15312,1.40569z" fill="#233862" fill-opacity="1"></path></g></g><g><title>Group</title><g><title>Vector</title><path d="M142.13,72.8646v0l0.07961,-0.68451c1.33521,0.35447 4.89986,-0.99009 4.89986,-0.99009v0c0,0 1.29234,1.13677 1.12084,3.85035c-0.08575,1.32624 -0.23274,6.96115 -0.39198,8.62965c-0.05513,0.6051 0.33685,2.1575 0.4961,2.5792c1.54958,4.1253 -0.23886,9.2041 -0.23886,9.2041v0l-0.46549,-0.1894v0c0,0 -2.93991,-10.6343 -3.24003,-11.7589c-0.57573,-2.1268 -1.03509,-4.90155 -1.34133,-7.04063c-0.04287,0.01833 -0.91872,-3.59977 -0.91872,-3.59977v0z" fill="#2b478b" fill-opacity="1"></path></g></g><g><title>Group</title><g><title>Vector</title><path d="M141.12207,64.95714c2.29675,0.12834 1.78839,-3.28807 1.64753,-3.26974c-0.28174,-0.14668 -0.78397,-0.85563 -1.07795,-2.0474l-0.09799,0.04278v0l-1.65366,0.77618v0c0,0 0.17762,0.53783 0.30623,1.0512c0.10412,0.40337 0.17149,0.78841 0.11025,0.89842c-0.12862,0.055 -0.20825,0.08556 -0.20825,0.08556c-0.01225,0.055 0.36137,2.43244 0.97384,2.463z" fill="#ffb27d" fill-opacity="1"></path></g></g><g><title>Group</title><g><title>Vector</title><path d="M139.94,60.46618v0c0,0 0.17762,0.53783 0.30624,1.0512c0.96771,-0.26891 1.2617,-1.28344 1.34745,-1.82738z" fill="#ed985f" fill-opacity="1"></path></g></g><g><title>Group</title><g><title>Vector</title><path d="M139.73992,61.04221c0,0 2.31512,-0.53172 1.95989,-1.96795c-0.35523,-1.43623 -0.29398,-2.4691 -1.7884,-2.18797c-1.49441,0.28113 -1.64141,0.89841 -1.64141,1.40568c0,0.50727 0.85745,2.85413 1.46992,2.75024z" fill="#ffb27d" fill-opacity="1"></path></g></g><g><title>Group</title><g><title>Vector</title><path d="M138.13278,57.47579c0.25111,-0.51949 0.53897,-0.48893 0.72271,-0.39725c1.09018,-1.0023 2.15586,-0.18335 2.15586,-0.18335c0.41035,0.99008 1.29842,1.39345 1.29842,1.39345v0c0,0 -0.35523,0.36058 -1.38417,0.35447c-0.31236,0 -0.63084,-0.14668 -0.9187,-0.34836c0.55735,0.55615 1.20657,0.8984 1.20657,0.8984c-1.2923,-0.24446 -2.15588,-1.73569 -2.24162,-1.89459c-0.11024,0.1589 -0.31848,0.50115 -0.33685,0.79451c-0.0245,0.39114 0.11025,1.15509 -0.11636,1.18565c0.00612,0 -0.75946,-1.02064 -0.38585,-1.80292z" fill="#2c3a64" fill-opacity="1"></path></g></g><g><title>Group</title><g><title>Vector</title><path d="M145.39,95.84573v0h3.6749v0c0,0 0.08575,-0.55616 -0.10412,-0.98397c-0.18374,-0.40948 -0.4716,-0.59283 -0.40423,-1.08176c-0.23274,0.23835 -0.61249,0.50726 -1.14535,0.44004c-0.06738,0.1039 -0.42261,0.66617 -0.63698,0.82508c-0.23887,0.16501 -1.31072,0.1039 -1.38422,0.80062z" fill="#233862" fill-opacity="1"></path></g></g><g><title>Group</title><g><title>Vector</title><path d="M137.5,95.85073v0h3.6749v0c0,0 0.13475,-0.58672 -0.10412,-0.98398c-0.21437,-0.35448 -0.13475,-0.55005 0.02449,-0.84341c-0.16537,0.06723 -0.37973,0.12835 -0.6186,0.11612c-0.18374,-0.01222 -0.37974,-0.09168 -0.54511,-0.18947c-0.15925,0.17724 -0.83297,0.94731 -1.04734,1.1001c-0.23887,0.16501 -1.3046,0.1039 -1.38422,0.80063z" fill="#233862" fill-opacity="1"></path></g></g><g><title>Group</title><g><title>Vector</title><path d="M147.1757,66.87232c-0.196,-0.64173 -0.4042,-1.25289 -0.6064,-1.82127c-0.4716,-1.28956 -0.7717,-1.96185 -1.0228,-2.48134c-0.48384,-0.99009 -2.63973,-0.92897 -2.63973,-0.92897c-0.41648,1.49735 -1.55569,2.42632 -1.55569,2.42632c-0.60635,-0.35447 -1.05956,-1.61347 -1.05956,-1.61347v0l-1.3352,0.70895c-0.00612,0.00611 -0.41036,0.24447 -0.77172,1.27734c-0.53285,1.53403 -1.40255,3.71589 -2.00277,4.38206c-0.14087,0.15279 -0.55123,0.39114 -1.04734,0.64172c-0.01225,0.01834 -0.01837,0.02445 -0.02449,0.02445c0.03062,0.07334 0.17761,0.4217 0.41035,0.77007c0.18987,0.28724 0.44098,0.57449 0.73497,0.72117c0.22661,-0.11001 0.63697,-0.26891 0.80846,-0.37892c0.62472,-0.38504 1.56181,-0.93508 2.29065,-2.0963l0.20212,2.73191v0l0.36748,4.94436c0.5696,0.1772 1.10857,0.3117 1.61692,0.4217c0.03063,-0.4156 0.16537,-0.9107 0.16537,-0.9107c-0.00613,0.2628 0.30011,0.7579 0.47773,1.0268c4.70995,0.7517 6.91475,-1.2957 6.91475,-1.2957c-0.1776,-1.809 -0.9738,-5.47602 -1.9231,-8.55018z" fill="#8c9df4" fill-opacity="1"></path></g></g><g><title>Group</title><g><title>Vector</title><path d="M142.42796,61.36v0c0,0 0.39199,0.02445 0.47773,0.27503c0,0 -0.50836,2.05352 -1.55569,2.42633z" fill="#707fe5" fill-opacity="1"></path></g></g><g><title>Group</title><g><title>Vector</title><path d="M141.34471,64.06127v0c0,0 -0.99834,-1.80292 -0.99834,-2.04127c0,0 -0.37974,0.33614 -0.35524,0.58672c0.00612,0 0.84522,1.34454 1.35357,1.45455z" fill="#707fe5" fill-opacity="1"></path></g></g><g><title>Group</title><g><title>Vector</title><path d="M144.02733,63.34c-0.03063,0.09779 -2.07014,4.96269 -3.90141,6.75952c-0.80233,0.7823 1.75165,0.55616 1.77615,0.41559c0.02449,-0.14057 2.12526,-7.17511 2.12526,-7.17511z" fill="#707fe5" fill-opacity="1"></path></g></g><g><title>Group</title><g><title>Vector</title><path d="M139.62,71.38957v0l0.17761,2.74413c5.5797,-1.29566 5.11422,-10.1637 5.11422,-10.1637v0l-2.80517,5.77553v0l-2.46217,1.60737v0c0,0 -0.00612,0.01222 -0.02449,0.03667z" fill="#707fe5" fill-opacity="1"></path></g></g><g><title>Group</title><g><title>Vector</title><path d="M135.09,69.47964c0,0.00643 0.00647,0.00643 0.00647,0.00643c0,-0.00643 -0.00001,-0.00643 -0.00647,-0.00643c0,-0.01286 0,-0.01286 0,0z" fill="#aec3ff" fill-opacity="1"></path></g></g><g><title>Group</title><g><title>Group</title><g><title>Vector</title><path d="M137.8557,65.69402v0l1.1086,4.94435c0.1776,0.7884 -0.4226,1.42401 -1.3352,1.42401h-26.68534c-0.91258,0 -1.80066,-0.63561 -1.97216,-1.42401l-1.10857,-4.94435c-0.00612,-0.03056 -0.01224,-0.06111 -0.01837,-0.09167c-0.11637,-0.74563 0.4716,-1.33235 1.34744,-1.33235h26.6854c0.8819,0 1.7332,0.58672 1.9537,1.33235c0.0123,0.03056 0.0184,0.06111 0.0245,0.09167z" fill="#f99746" fill-opacity="1"></path></g></g><g><title>Group</title><g><title>Group</title><g><title>Group</title><g><title>Group</title><g><title>Vector</title><path d="M111.00933,69.83417v0h-0.25724v0l-0.69208,-3.07417v0h0.25723v0z" fill="#ebf3fa" fill-opacity="1"></path></g></g></g><g><title>Group</title><g><title>Group</title><g><title>Vector</title><path d="M112.81016,68.03396v0h-1.87416v0l-0.196,-0.87396v0h1.87416v0z" fill="#ebf3fa" fill-opacity="1"></path></g></g></g><g><title>Group</title><g><title>Group</title><g><title>Vector</title><path d="M113.68426,69.27785v0h-2.46826v0l-0.196,-0.86785v0h2.46827v0z" fill="#ebf3fa" fill-opacity="1"></path></g></g></g></g><g><title>Group</title><g><title>Group</title><g><title>Group</title><g><title>Vector</title><path d="M117.00546,69.83417v0h-0.26337v0l-0.69209,-3.07417v0h0.26336v0z" fill="#ebf3fa" fill-opacity="1"></path></g></g></g><g><title>Group</title><g><title>Group</title><g><title>Vector</title><path d="M117.40016,68.03396v0h-1.87416v0l-0.196,-0.87396v0h1.87416v0z" fill="#ebf3fa" fill-opacity="1"></path></g></g></g><g><title>Group</title><g><title>Group</title><g><title>Vector</title><path d="M117.98425,69.27785v0h-2.46826v0l-0.19599,-0.86785v0h2.46826v0z" fill="#ebf3fa" fill-opacity="1"></path></g></g></g></g><g><title>Group</title><g><title>Group</title><g><title>Group</title><g><title>Vector</title><path d="M122.99933,69.83417v0h-0.26337v0l-0.68597,-3.07417v0h0.25724v0z" fill="#ebf3fa" fill-opacity="1"></path></g></g></g><g><title>Group</title><g><title>Group</title><g><title>Vector</title><path d="M122.00016,68.03396v0h-1.87416v0l-0.196,-0.87396v0h1.87416v0z" fill="#ebf3fa" fill-opacity="1"></path></g></g></g><g><title>Group</title><g><title>Group</title><g><title>Vector</title><path d="M122.28419,69.27785v0h-2.46821v0l-0.19598,-0.86785v0h2.46821v0z" fill="#ebf3fa" fill-opacity="1"></path></g></g></g></g><g><title>Group</title><g><title>Group</title><g><title>Group</title><g><title>Vector</title><path d="M126.84204,67.0128v0h-3.08079v0l-0.06125,-0.2628v0h3.08079v0z" fill="#ebf3fa" fill-opacity="1"></path></g></g></g><g><title>Group</title><g><title>Group</title><g><title>Vector</title><path d="M125.08971,67.25v0l0.4226,1.87017v0h-0.8697v0l-0.42261,-1.87017v0z" fill="#ebf3fa" fill-opacity="1"></path></g></g></g><g><title>Group</title><g><title>Group</title><g><title>Vector</title><path d="M126.33584,67.25v0l0.55122,2.46301v0h-0.8697v0l-0.55736,-2.46301v0z" fill="#ebf3fa" fill-opacity="1"></path></g></g></g></g><g><title>Group</title><g><title>Group</title><g><title>Group</title><g><title>Vector</title><path d="M131.69198,68.42279v0h-3.08073v0l-0.06125,-0.26279v0h3.08074v0z" fill="#ebf3fa" fill-opacity="1"></path></g></g></g><g><title>Group</title><g><title>Group</title><g><title>Vector</title><path d="M129.63971,67.36v0l0.42262,1.87018v0h-0.86973v0l-0.4226,-1.87018v0z" fill="#ebf3fa" fill-opacity="1"></path></g></g></g><g><title>Group</title><g><title>Group</title><g><title>Vector</title><path d="M130.82584,67.06v0l0.55122,2.463v0h-0.86972v0l-0.55734,-2.463v0z" fill="#ebf3fa" fill-opacity="1"></path></g></g></g></g><g><title>Group</title><g><title>Group</title><g><title>Group</title><g><title>Vector</title><path d="M136.54585,69.85281v0h-3.08072v0l-0.05513,-0.26281v0h3.08073v0z" fill="#ebf3fa" fill-opacity="1"></path></g></g></g><g><title>Group</title><g><title>Group</title><g><title>Vector</title><path d="M134.21971,67.46v0l0.42262,1.87017v0h-0.86971v0l-0.42262,-1.87017v0z" fill="#ebf3fa" fill-opacity="1"></path></g></g></g><g><title>Group</title><g><title>Group</title><g><title>Vector</title><path d="M135.33584,66.87v0l0.55122,2.46301v0h-0.8697v0l-0.55736,-2.46301v0z" fill="#ebf3fa" fill-opacity="1"></path></g></g></g></g></g></g><g><title>Group</title><g><title>Group</title><g><title>Vector</title><path d="M135.17343,71.62713c0.30624,0 0.78398,-0.02444 1.05959,-0.12834c0,0 -0.8881,-0.01223 -0.69823,-0.29336c0.03675,-0.04889 0.47773,-0.01222 0.96772,-0.01222c0.20212,0 0.69823,0.27502 0.67373,0.28724c0.35524,-0.04889 0.67985,-0.11612 0.78397,-0.14057c0.03063,-0.00611 0.03676,-0.01222 0.03676,-0.01222v0l0.31235,0.91674v0c0,0 -0.06737,0.01834 -0.18374,0.03667c-0.29399,0.07334 -0.89421,0.22614 -1.46382,0.44616c-0.79622,0.31169 -1.37809,-0.07946 -1.64758,-0.35448c-0.16537,-0.17724 -0.3001,-0.40948 -0.29398,-0.5745c0.0245,-0.18335 0.26949,-0.17112 0.45323,-0.17112z" fill="#ffb27d" fill-opacity="1"></path></g></g><g><title>Group</title><g><title>Vector</title><path d="M137.32,71.69297v0l0.19599,0.70284v0c0,0 0.245,-0.04279 0.63086,-0.11612c0.11637,-0.02445 0.18374,-0.03667 0.18374,-0.03667c0.31237,-0.06112 0.67985,-0.14057 1.08409,-0.23225h0.00613c0.6921,-0.16501 1.46383,-0.36058 2.11306,-0.58671c0.06124,-0.01834 0.11637,-0.04279 0.17149,-0.06112c0.38587,-0.14057 -0.36137,-2.09629 -0.69823,-1.85182c-0.09187,0.06723 -0.18374,0.12834 -0.28787,0.20168c-0.55735,0.37892 -1.26784,0.80062 -1.90481,1.1551c-0.31237,0.17724 -0.60022,0.33614 -0.84521,0.47059c-0.39199,0.21391 -0.64923,0.35448 -0.64923,0.35448v0z" fill="#ffb27d" fill-opacity="1"></path></g></g><g><title>Group</title><g><title>Vector</title><path d="M140.71018,69.71987c0,0 -0.04287,1.33234 1.21271,1.98018c1.44544,-0.51949 2.21717,-2.6708 2.8174,-4.14983c0.08574,-0.20168 0.15925,-0.40947 0.23887,-0.60504c0.27562,-0.73952 0.4961,-1.46681 0.63084,-2.09631c0.08575,-0.37281 -1.52507,-2.26743 -1.72718,-1.82128c-0.31237,0.70895 -0.6431,1.63182 -0.95546,2.54857c-0.17149,0.50116 -0.33688,1.00231 -0.50225,1.4668c-0.09187,0.28114 -0.18986,0.54394 -0.27561,0.78841c-0.17149,0.46448 -0.32461,0.83729 -0.46547,1.07565c-0.08575,0.15279 -0.34299,0.3667 -0.67986,0.61117c-0.098,0.06111 -0.18987,0.12834 -0.29399,0.20168z" fill="#8c9df4" fill-opacity="1"></path></g></g></g></g><g><title>Group</title><g><title>Vector</title><path d="M116.2509,40.50474v0h-68.10694v0l-0.78396,-3.10474v0h68.0335v0z" fill="#3d4ca5" fill-opacity="1"></path></g></g><g><title>Group</title><g><title>Group</title><g><title>Vector</title><path d="M51.59064,38.99128c0.08575,0.28114 -0.08575,0.50727 -0.39199,0.50727c-0.30624,0 -0.62474,-0.22002 -0.71661,-0.50116c-0.08575,-0.28114 0.08575,-0.50727 0.39199,-0.50727c0.31237,-0.00611 0.63086,0.22002 0.71661,0.50116z" fill="#ebf3fa" fill-opacity="1"></path></g></g><g><title>Group</title><g><title>Vector</title><path d="M53.89058,38.97115c0.08574,0.28114 -0.08575,0.50728 -0.39197,0.50728c-0.30622,0 -0.6247,-0.22002 -0.71657,-0.50116c-0.08574,-0.28114 0.08574,-0.50727 0.39197,-0.50727c0.31235,0 0.63082,0.22002 0.71657,0.50115z" fill="#ebf3fa" fill-opacity="1"></path></g></g><g><title>Group</title><g><title>Vector</title><path d="M56.19061,38.95116c0.08574,0.28114 -0.08575,0.50726 -0.39198,0.50726c-0.30623,0 -0.62472,-0.22001 -0.71659,-0.50115c-0.08575,-0.28114 0.08575,-0.50727 0.39198,-0.50727c0.31236,0 0.63084,0.22613 0.71659,0.50116z" fill="#ebf3fa" fill-opacity="1"></path></g></g></g><g><title>Group</title><g><title>Vector</title><path d="M56.98,47.63v0c0,0 8.01726,0.03056 13.8296,4.47985c5.8124,4.4493 4.9733,8.44025 9.7996,9.43645c7.907,1.6379 2.995,-6.77787 13.26,-5.9039l5.2795,20.2419v0h-35.51725v0l-2.69488,-12.5473v0z" fill="#f99746" fill-opacity="1"></path></g></g><g><title>Group</title><g><title>Vector</title><path d="M82.4405,61.8269c-0.5451,0 -1.1576,-0.0734 -1.8436,-0.2139c-2.6642,-0.5501 -3.6442,-2.0413 -4.8875,-3.9298c-1.029,-1.56463 -2.309,-3.50815 -4.9427,-5.525c-1.6536,-1.26511 -4.56287,-2.96416 -9.06454,-3.89313c-2.69488,-0.55616 -4.69766,-0.56838 -4.72216,-0.56838v-0.14668c0.01837,0 2.04566,0.01222 4.74666,0.5745c2.49889,0.51338 6.11244,1.61348 9.12584,3.91758c2.652,2.02907 3.9382,3.98481 4.9733,5.55552c1.2739,1.9313 2.1926,3.3247 4.7956,3.8687c3.7055,0.77 4.5446,-0.6845 5.5184,-2.3652c1.0841,-1.87632 2.309,-4.00318 7.7355,-3.5387l-0.0122,0.14668c-5.3408,-0.45837 -6.5412,1.62571 -7.6008,3.46532c-0.49,0.8495 -0.9555,1.6563 -1.7762,2.1513c-0.5512,0.33 -1.2188,0.5012 -2.0456,0.5012z" fill="#ffffff" fill-opacity="1"></path></g></g><g><title>Group</title><g><title>Vector</title><path d="M58.86,55.02252v0l2.03954,8.10408v0l2.75,12.7551v0h35.51116v0l-1.7884,-6.6251v0c0,0 -5.255,-2.9214 -12.3842,-0.3728c-7.1292,2.5486 -15.024,0.1956 -15.5323,-5.53718c-0.5757,-6.46004 -6.52898,-9.57699 -10.5958,-8.3241z" fill="#ed7b2e" fill-opacity="1"></path></g></g><g><title>Group</title><g><title>Vector</title><path d="M67.82722,58.8551c-2.03953,-3.14748 -5.80624,-4.73039 -8.95435,-3.76475l-0.04287,-0.14057c3.20935,-0.99008 7.04343,0.62339 9.11971,3.82587z" fill="#ffffff" fill-opacity="1"></path></g></g><g><title>Group</title><g><title>Group</title><g><title>Vector</title><path d="M81.17545,61.03517v0l-1.15143,-0.11875v0l-0.119,1.149v0l1.15143,0.11875v0z" fill="#ffffff" fill-opacity="1"></path></g></g><g><title>Group</title><g><title>Vector</title><path d="M71.52352,59.56733v0l-0.0386,0.18551v0l19.44134,4.02823v0l0.0386,-0.18551v0z" fill="#ffffff" fill-opacity="1"></path></g></g><g><title>Group</title><g><title>Vector</title><path d="M71.17168,59.62113c0.01837,-0.18334 0.18374,-0.31779 0.36747,-0.29945c0.18374,0.01833 0.31848,0.18334 0.3001,0.36668c-0.01837,0.18334 -0.18374,0.31779 -0.36747,0.29946c-0.18374,-0.01833 -0.31848,-0.18334 -0.3001,-0.36668z" fill="#ffffff" fill-opacity="1"></path></g></g><g><title>Group</title><g><title>Vector</title><path d="M90.62168,63.65113c0.01837,-0.18334 0.18374,-0.31779 0.36748,-0.29946c0.18374,0.01833 0.31848,0.18334 0.30011,0.36668c-0.01837,0.18334 -0.18374,0.31779 -0.36748,0.29946c-0.18374,-0.01833 -0.31848,-0.18334 -0.30011,-0.36668z" fill="#ffffff" fill-opacity="1"></path></g></g></g><g><title>Group</title><g><title>Group</title><g><title>Vector</title><path d="M67.69737,49.68319v0l-0.84225,-0.7924v0l-0.79409,0.84045v0l0.84225,0.7924v0z" fill="#ffffff" fill-opacity="1"></path></g></g><g><title>Group</title><g><title>Vector</title><path d="M63.52666,46.21115v0l-0.13399,0.13423v0l6.59584,6.55578v0l0.13399,-0.13423v0z" fill="#ffffff" fill-opacity="1"></path></g></g><g><title>Group</title><g><title>Vector</title><path d="M63.20393,46.07266c0.11638,-0.14057 0.32462,-0.16501 0.47163,-0.04889c0.14088,0.11612 0.16538,0.32392 0.049,0.4706c-0.11638,0.14057 -0.32463,0.16501 -0.47163,0.04889c-0.14088,-0.11612 -0.16537,-0.33003 -0.049,-0.4706z" fill="#ffffff" fill-opacity="1"></path></g></g><g><title>Group</title><g><title>Vector</title><path d="M69.79588,52.62267c0.11637,-0.14057 0.32463,-0.16502 0.47163,-0.04889c0.14088,0.11613 0.16537,0.32393 0.049,0.47062c-0.11637,0.14057 -0.32462,0.16502 -0.47162,0.04889c-0.147,-0.11613 -0.16538,-0.32393 -0.049,-0.47062z" fill="#ffffff" fill-opacity="1"></path></g></g></g><g><title>Group</title><g><title>Group</title><g><title>Vector</title><path d="M88.80983,55.40717v0l-0.45236,1.06328v0l1.06552,0.45142v0l0.45236,-1.06328v0z" fill="#ffffff" fill-opacity="1"></path></g></g><g><title>Group</title><g><title>Vector</title><path d="M90.28331,53.41785v0l-2.47006,5.38505v0l0.17264,0.07885v0l2.47006,-5.38505v0z" fill="#ffffff" fill-opacity="1"></path></g></g><g><title>Group</title><g><title>Vector</title><path d="M87.79656,59.15784c-0.17148,-0.06112 -0.26948,-0.2506 -0.20823,-0.42174c0.06124,-0.17114 0.2511,-0.26893 0.42259,-0.20781c0.17149,0.06112 0.26948,0.25059 0.20823,0.42173c-0.06124,0.17725 -0.2511,0.26893 -0.42259,0.20781z" fill="#ffffff" fill-opacity="1"></path></g></g><g><title>Group</title><g><title>Vector</title><path d="M90.26656,53.77785c-0.17148,-0.06112 -0.26947,-0.2506 -0.20823,-0.42174c0.06124,-0.17114 0.2511,-0.26894 0.42258,-0.20782c0.17148,0.06112 0.26947,0.2506 0.20822,0.42174c-0.06124,0.17114 -0.25109,0.26283 -0.42258,0.20782z" fill="#ffffff" fill-opacity="1"></path></g></g></g><g><title>Group</title><g><title>Group</title><g><title>Vector</title><path d="M95.0819,44.1145v0l1.8068,7.44403c0.0797,0.31781 -0.2266,0.5745 -0.6737,0.5745h-18.57014c-0.4471,0 -0.87584,-0.25669 -0.95546,-0.5745l-1.80679,-7.44403c-0.07962,-0.31781 0.22661,-0.5745 0.67372,-0.5745h18.57628c0.4471,0 0.8697,0.25669 0.9493,0.5745z" fill="#d2e0ff" fill-opacity="1"></path></g></g><g><title>Group</title><g><title>Group</title><g><title>Group</title><g><title>Vector</title><path d="M79.60602,48.47408v0h-1.97829v0l-0.47773,-1.97408v0h1.97217v0z" fill="#2b478b" fill-opacity="1"></path></g></g><g><title>Group</title><g><title>Vector</title><path d="M80.82602,49.45796v0h-1.97829v0l-0.47773,-1.96796v0h1.97829v0z" fill="#2b478b" fill-opacity="1"></path></g></g></g><g><title>Group</title><g><title>Group</title><g><title>Vector</title><path d="M84.21608,48.47408v0h-1.97834v0l-0.47774,-1.97408v0h1.97833v0z" fill="#2b478b" fill-opacity="1"></path></g></g><g><title>Group</title><g><title>Group</title><g><title>Vector</title><path d="M85.43602,49.45796v0h-1.97829v0l-0.47772,-1.96796v0h1.97828v0z" fill="#739af0" fill-opacity="1"></path></g></g><g><title>Group</title><g><title>Vector</title><path d="M85.54419,49.53908h-2.1436l-0.52059,-2.13908h2.1436zM83.52921,49.37407h1.80675l-0.43485,-1.80294h-1.80675z" fill="#1f3b72" fill-opacity="1"></path></g></g></g></g><g><title>Group</title><g><title>Group</title><g><title>Vector</title><path d="M88.82596,48.47408v0h-1.97824v0l-0.47772,-1.97408v0h1.97824v0z" fill="#739af0" fill-opacity="1"></path></g></g><g><title>Group</title><g><title>Vector</title><path d="M88.93431,48.55908h-2.1437l-0.52061,-2.13908h2.1437zM86.91923,48.38796h1.80684l-0.43487,-1.80294h-1.80683z" fill="#2b478b" fill-opacity="1"></path></g></g><g><title>Group</title><g><title>Vector</title><path d="M90.04989,49.45796v0h-1.97217v0l-0.47772,-1.96796v0h1.97216v0z" fill="#739af0" fill-opacity="1"></path></g></g><g><title>Group</title><g><title>Vector</title><path d="M90.1643,49.53908h-2.14369l-0.52061,-2.13908h2.14369zM88.14311,49.37407h1.80682l-0.43486,-1.80294h-1.80682z" fill="#2b478b" fill-opacity="1"></path></g></g><g><title>Group</title><g><title>Group</title><g><title>Vector</title><path d="M88.92938,48.54899v0h-1.16376v0l-0.27562,-1.14899v0h1.16375v0z" fill="#2b478b" fill-opacity="1"></path></g></g></g></g><g><title>Group</title><g><title>Group</title><g><title>Group</title><g><title>Vector</title><path d="M93.43989,48.47408v0h-1.97216v0l-0.47773,-1.97408v0h1.97217v0z" fill="#2b478b" fill-opacity="1"></path></g></g></g><g><title>Group</title><g><title>Group</title><g><title>Vector</title><path d="M94.66601,49.45796v0h-1.97828v0l-0.47773,-1.96796v0h1.97829v0z" fill="#2b478b" fill-opacity="1"></path></g></g></g><g><title>Group</title><g><title>Group</title><g><title>Vector</title><path d="M93.38082,48.4223v0h-0.90645v0l-0.21436,-0.8923v0h0.90645v0z" fill="#739af0" fill-opacity="1"></path></g></g></g></g></g></g><g><title>Group</title><g><title>Group</title><g><title>Vector</title><path d="M43.7138,67.6241v0h-6.84747c-0.91258,0 -1.81904,-0.7395 -2.02115,-1.6502l-5.14477,-23.19375c-0.20212,-0.91064 0.37361,-1.65015 1.28619,-1.65015h6.84131c0.91259,0 1.81905,0.73951 2.02119,1.65015l5.1509,23.19375c0.2021,0.9107 -0.3737,1.6502 -1.2862,1.6502z" fill="#3d4ca5" fill-opacity="1"></path></g></g><g><title>Group</title><g><title>Group</title><g><title>Vector</title><path d="M40.6487,46.35v0h-10.1487v0v0.04278v0h10.1487v0z" fill="#aec3ff" fill-opacity="1"></path></g></g></g><g><title>Group</title><g><title>Group</title><g><title>Vector</title><path d="M41.8587,51.81v0h-10.1487v0v0.04276v0h10.1487v0z" fill="#aec3ff" fill-opacity="1"></path></g></g></g><g><title>Group</title><g><title>Group</title><g><title>Vector</title><path d="M43.0787,57.28v0h-10.1487v0v0.04279v0h10.1487v0z" fill="#aec3ff" fill-opacity="1"></path></g></g></g><g><title>Group</title><g><title>Vector</title><path d="M36.71448,44.73686c0.01225,-0.11612 -0.51448,-2.12686 -0.51448,-2.12686v0l1.86192,1.50347v0l-0.91259,-0.03056v0z" fill="#ffffff" fill-opacity="1"></path></g></g><g><title>Group</title><g><title>Group</title><g><title>Group</title><g><title>Vector</title><path d="M42.31752,65.24366h-3.60131l-0.79621,-3.59366h3.60131zM38.87545,65.04198h3.19095l-0.71046,-3.1903h-3.19095z" fill="#d2e0ff" fill-opacity="1"></path></g></g></g></g><g><title>Group</title><g><title>Vector</title><path d="M39.72643,63.20198v0h-3.39922v0l-0.74721,-3.39198v0h3.39309v0z" fill="#f77d48" fill-opacity="1"></path></g></g><g><title>Group</title><g><title>Group</title><g><title>Vector</title><path d="M41.32665,61.66937v0l-2.64496,3.39037v0l0.22715,0.17646v0l2.64496,-3.39037v0z" fill="#f77d48" fill-opacity="1"></path></g></g></g><g><title>Group</title><g><title>Group</title><g><title>Vector</title><path d="M32.13448,44.73686c0.01225,-0.11612 -0.51448,-2.12686 -0.51448,-2.12686v0l1.86192,1.50347v0l-0.91259,-0.03056v0z" fill="#d2e0ff" fill-opacity="1"></path></g></g><g><title>Group</title><g><title>Group</title><g><title>Group</title><g><title>Vector</title><path d="M32.85586,48.71893v0h-0.27561v0l-0.11024,-0.48893v0h1.86191v0l0.10412,0.4706v0h-0.27561v0l-0.04287,-0.19557v0h-1.31069v0z" fill="#d2e0ff" fill-opacity="1"></path></g></g></g><g><title>Group</title><g><title>Group</title><g><title>Vector</title><path d="M33.9086,49.91625v0h-0.27561v0l-0.34298,-1.54625v0h0.27561v0z" fill="#d2e0ff" fill-opacity="1"></path></g></g></g><g><title>Group</title><g><title>Group</title><g><title>Vector</title><path d="M34.15397,50.01502v0h-0.72272v0l-0.06125,-0.27502v0h0.72272v0z" fill="#d2e0ff" fill-opacity="1"></path></g></g></g></g><g><title>Group</title><g><title>Group</title><g><title>Vector</title><path d="M37.87111,50.18076v0l-0.25111,-0.18335v0l1.30457,-2.04741v0l0.25111,0.17724v0z" fill="#d2e0ff" fill-opacity="1"></path></g></g></g><g><title>Group</title><g><title>Group</title><g><title>Group</title><g><title>Vector</title><path d="M34.73088,54.95462c-0.52061,0 -1.04121,-0.42171 -1.15758,-0.94731c-0.11637,-0.51949 0.21437,-0.94731 0.74109,-0.94731c0.5206,0 1.0412,0.42171 1.15757,0.94731c0.11637,0.5256 -0.21436,0.94731 -0.74108,0.94731zM34.36952,53.31669c-0.38586,0 -0.63084,0.31169 -0.5451,0.69673c0.08575,0.38504 0.46548,0.69673 0.85133,0.69673c0.38586,0 0.63085,-0.31169 0.5451,-0.69673c-0.08574,-0.38504 -0.46548,-0.69673 -0.85133,-0.69673z" fill="#d2e0ff" fill-opacity="1"></path></g></g></g><g><title>Group</title><g><title>Group</title><g><title>Vector</title><path d="M36.53709,55.77794c-0.03062,0 -0.06737,-0.01223 -0.09799,-0.03668l-1.26168,-1.05735c-0.06125,-0.04889 -0.07349,-0.12835 -0.03675,-0.17724c0.03675,-0.04889 0.11637,-0.04889 0.17761,0l1.26169,1.05735c0.06124,0.0489 0.07349,0.12835 0.03674,0.17724c-0.01837,0.02445 -0.04899,0.03668 -0.07962,0.03668z" fill="#d2e0ff" fill-opacity="1"></path></g></g></g></g><g><title>Group</title><g><title>Vector</title><path d="M39.2622,52.98v0l0.46548,0.86176v0h0.90646v0l-0.61248,0.52561v0l0.46548,0.86176v0l-0.84521,-0.53172v0l-0.61247,0.53172v0l0.08575,-0.86176v0l-0.84521,-0.52561v0h0.90033v0z" fill="#d2e0ff" fill-opacity="1"></path></g></g></g></g><g><title>Group</title><g><title>Group</title><g><title>Vector</title><path d="M126.49079,45.47947v0c0,0 0.02449,1.35066 -0.17763,1.32621c-0.20211,-0.02444 -0.47772,-1.13064 -0.48384,-1.11842c0,0.01833 0.09187,1.16732 -0.16536,1.22232c-0.25724,0.055 -0.51448,-1.21621 -0.51448,-1.21621v0c0,0 0.17149,1.09398 -0.00612,1.11843c-0.17762,0.03055 -0.45936,-1.03286 -0.53898,-1.03286c-0.0735,0 0.23887,0.91062 0.01838,0.9534c-0.22049,0.04278 -0.70434,-1.23454 -0.53897,-1.39955c0.16537,-0.16501 0.4226,0.01222 0.4226,0.01222v0c0,0 0.31848,-0.23835 0.56347,-0.1039c0,0 0.57572,-0.11612 0.74721,0.14057c0,0.00611 0.36136,-0.29947 0.67372,0.09778z" fill="#ed917e" fill-opacity="1"></path></g></g><g><title>Group</title><g><title>Group</title><g><title>Vector</title><path d="M130.1897,40.29567v0l4.6426,16.70923c0.196,0.7151 -0.2573,1.2957 -1.0106,1.2957h-31.3402c-0.75947,0 -1.53119,-0.5806 -1.7333,-1.2957l-4.64254,-16.70923c-0.19599,-0.71506 0.25724,-1.29567 1.01057,-1.29567h31.34017c0.7595,0 1.5312,0.58061 1.7333,1.29567z" fill="#d2e0ff" fill-opacity="1"></path></g></g><g><title>Group</title><g><title>Group</title><g><title>Vector</title><path d="M105.81927,47.83982v0h-4.04845v0l-1.12082,-4.03982v0h4.04844v0z" fill="#b3c2ff" fill-opacity="1"></path></g></g><g><title>Group</title><g><title>Vector</title><path d="M104.54975,46.84964v0h-2.06403v0l-0.57572,-2.05964v0h2.07015v0z" fill="#505aba" fill-opacity="1"></path></g></g><g><title>Group</title><g><title>Vector</title><path d="M104.55891,43.70375v0l-2.9231,4.03761v0l0.25816,0.18611v0l2.9231,-4.03761v0z" fill="#f77d48" fill-opacity="1"></path></g></g><g><title>Group</title><g><title>Vector</title><path d="M102.93545,45.64982v0h-4.04849v0l-1.12696,-4.03982v0h4.0485v0z" fill="#f77d48" fill-opacity="1"></path></g></g></g><g><title>Group</title><g><title>Group</title><g><title>Vector</title><path d="M105.23868,52.6053v0h-3.25222v0l-0.90645,-3.2453v0h3.25835v0z" fill="#f77d48" fill-opacity="1"></path></g></g><g><title>Group</title><g><title>Vector</title><path d="M108.45257,52.6053v0h-3.25224v0l-0.90033,-3.2453v0h3.25223v0z" fill="#ed7d2b" fill-opacity="1"></path></g></g><g><title>Group</title><g><title>Vector</title><path d="M111.71869,52.6053v0h-3.25835v0l-0.90034,-3.2453v0h3.25223v0z" fill="#ff8939" fill-opacity="1"></path></g></g><g><title>Group</title><g><title>Vector</title><path d="M114.96868,52.6053v0h-3.25222v0l-0.90646,-3.2453v0h3.25835v0z" fill="#739af0" fill-opacity="1"></path></g></g><g><title>Group</title><g><title>Vector</title><path d="M118.22255,52.6053v0h-3.25222v0l-0.90033,-3.2453v0h3.25222v0z" fill="#8c9df4" fill-opacity="1"></path></g></g><g><title>Group</title><g><title>Vector</title><path d="M121.47875,52.6053v0h-3.25841v0l-0.90034,-3.2453v0h3.25228v0z" fill="#6b80dd" fill-opacity="1"></path></g></g><g><title>Group</title><g><title>Vector</title><path d="M124.72869,52.6053v0h-3.25223v0l-0.90646,-3.2453v0h3.25836v0z" fill="#505aba" fill-opacity="1"></path></g></g><g><title>Group</title><g><title>Vector</title><path d="M127.98257,52.6053v0h-3.25224v0l-0.90033,-3.2453v0h3.25222v0z" fill="#2b478b" fill-opacity="1"></path></g></g><g><title>Group</title><g><title>Vector</title><path d="M106.13257,55.85141v0h-3.25223v0l-0.90034,-3.25141v0h3.25223v0z" fill="#a4b5ff" fill-opacity="1"></path></g></g><g><title>Group</title><g><title>Vector</title><path d="M109.35863,55.85141v0h-3.2583v0l-0.90033,-3.25141v0h3.25219v0z" fill="#8c9df4" fill-opacity="1"></path></g></g><g><title>Group</title><g><title>Vector</title><path d="M112.61868,55.85141v0h-3.25222v0l-0.90645,-3.25141v0h3.25835v0z" fill="#505aba" fill-opacity="1"></path></g></g><g><title>Group</title><g><title>Vector</title><path d="M115.86257,55.85141v0h-3.25224v0l-0.90033,-3.25141v0h3.25223v0z" fill="#2b478b" fill-opacity="1"></path></g></g></g><g><title>Group</title><g><title>Vector</title><path d="M128.137,43.00564v0h-17.04502c-0.23274,0 -0.47773,-0.18946 -0.5451,-0.42782c-0.06737,-0.23224 0.0735,-0.42782 0.30624,-0.42782h17.04499c0.2328,0 0.4778,0.18946 0.5451,0.42782c0.0674,0.23836 -0.0673,0.42782 -0.3062,0.42782z" fill="#ff8939" fill-opacity="1"></path></g></g><g><title>Group</title><g><title>Vector</title><path d="M128.737,45.14564v0h-17.04503c-0.23274,0 -0.47772,-0.18946 -0.54509,-0.42782c-0.06737,-0.23224 0.0735,-0.42782 0.30623,-0.42782h17.04499c0.2328,0 0.4777,0.18946 0.5451,0.42782c0.0674,0.23836 -0.0735,0.42782 -0.3062,0.42782z" fill="#739af0" fill-opacity="1"></path></g></g><g><title>Group</title><g><title>Vector</title><path d="M129.337,47.29563v0h-17.04502c-0.23274,0 -0.47773,-0.18946 -0.5451,-0.42782c-0.06737,-0.23224 0.0735,-0.42782 0.30624,-0.42782h17.04509c0.2327,0 0.4777,0.18946 0.5451,0.42782c0.0674,0.23224 -0.0735,0.42782 -0.3063,0.42782z" fill="#505aba" fill-opacity="1"></path></g></g><g><title>Group</title><g><title>Group</title><g><title>Vector</title><path d="M108.2,41.96h0.51446c0.26948,0 0.46546,0.14668 0.5267,0.3667c0.05512,0.18946 -0.03062,0.29947 -0.17761,0.34837l0.42872,0.43393h-0.23885l-0.39809,-0.40337h-0.25111l0.11024,0.40337h-0.20211zM108.85533,42.52839c0.14699,0 0.21436,-0.07334 0.18373,-0.19557c-0.03675,-0.12223 -0.14087,-0.18946 -0.29398,-0.18946h-0.29398l0.11024,0.38504h0.29398z" fill="#505aba" fill-opacity="1"></path></g></g><g><title>Group</title><g><title>Vector</title><path d="M108.79451,44.69283c-0.09187,-0.32392 0.07962,-0.59283 0.42872,-0.59283c0.20211,0 0.33684,0.05501 0.48383,0.1589l-0.08574,0.15279c-0.11024,-0.07334 -0.20824,-0.12223 -0.35522,-0.12223c-0.21436,0 -0.32459,0.18335 -0.25723,0.40948c0.06737,0.23836 0.26947,0.40948 0.50833,0.40948c0.11024,0 0.19598,-0.03667 0.2511,-0.08556l-0.06124,-0.21391v0h-0.29397v0l-0.049,-0.17724v0h0.48995v0l0.13475,0.48282c-0.08574,0.09778 -0.22661,0.17723 -0.42872,0.17723c-0.36747,0 -0.67369,-0.25669 -0.76556,-0.59894z" fill="#505aba" fill-opacity="1"></path></g></g><g><title>Group</title><g><title>Vector</title><path d="M109.44,46.4h0.51447c0.12862,0 0.24499,0.03667 0.33074,0.1039c0.06737,0.04889 0.11024,0.11612 0.12862,0.19557c0.03675,0.14057 -0.01837,0.21391 -0.09187,0.25669c0.14699,0.04889 0.26336,0.12223 0.30623,0.28114c0.05513,0.20779 -0.07962,0.3178 -0.33685,0.3178h-0.53284zM110.04634,46.88282c0.12862,0 0.20212,-0.04889 0.17149,-0.1589c-0.0245,-0.09167 -0.11024,-0.14668 -0.24499,-0.14668h-0.29399l0.08575,0.30558zM110.24233,47.37175c0.14087,0 0.20824,-0.055 0.17762,-0.1589c-0.0245,-0.09779 -0.1225,-0.15279 -0.28174,-0.15279h-0.31848l0.08575,0.31781h0.33686z" fill="#505aba" fill-opacity="1"></path></g></g></g></g></g><g><title>Group</title><g><title>Group</title><g><title>Group</title><g><title>Vector</title><path d="M65.22344,42.3325c-0.09187,0.10389 -0.10412,0.22002 -0.05512,0.34225c0.07962,0.22614 0.35524,0.48283 0.67373,0.73341c0.04287,0.03055 0.0735,0.06111 0.11025,0.09167c0.00612,0.00611 0.01838,0.01222 0.0245,0.02445c0.00612,0.00611 0.01224,0.01222 0.01837,0.01833c0.29399,0.27503 0.18375,0.33615 0.71661,0.8862c0.60635,0.6295 1.02283,0.64173 1.1392,0.58061c0.098,-0.04889 -0.10412,-0.38504 -0.33074,-0.75785c-0.01225,-0.01834 -0.0245,-0.03667 -0.03062,-0.05501c-0.03062,-0.04889 -0.06125,-0.09778 -0.09187,-0.15279c-0.26337,-0.45227 -0.19599,-0.66006 -0.13474,-1.33235c0.04899,-0.54394 0.85133,-3.04973 0.85133,-3.04973v0l-1.1637,-0.20169v0c0,0 -0.34912,1.99241 -0.73498,2.298c-0.20824,0.16501 -0.43485,0.16502 -0.63697,0.28725c-0.01225,0.00611 -0.03063,0.01833 -0.04288,0.02444c-0.10412,0.08557 -0.22049,0.15891 -0.31236,0.26281z" fill="#ffb27d" fill-opacity="1"></path></g></g><g><title>Group</title><g><title>Vector</title><path d="M65.22344,42.32669c-0.09187,0.1039 -0.10412,0.22002 -0.05512,0.34226c0.10412,0.22613 0.36748,0.48282 0.67372,0.7334c0.04287,0.03056 0.0735,0.06112 0.10413,0.09168c0.00612,0.00611 0.01837,0.01222 0.02449,0.02444c0.00612,0.00611 0.01225,0.01223 0.01838,0.01834c0.29399,0.27503 0.18374,0.33614 0.71659,0.8862c0.60635,0.62951 1.02284,0.64173 1.13921,0.58061c0.09799,-0.04889 -0.10412,-0.38504 -0.33074,-0.75785c-0.11637,-0.04278 -0.66759,-0.26281 -1.07795,-0.79452c-0.34911,-0.44616 -0.58797,-1.02066 -0.82684,-1.36903c-0.0245,-0.00611 -0.04288,-0.00611 -0.06738,-0.01222c-0.11024,0.07945 -0.22661,0.15279 -0.31848,0.25669z" fill="#233862" fill-opacity="1"></path></g></g><g><title>Group</title><g><title>Vector</title><path d="M74.59097,41.60357c0.0735,0.36058 0.58186,0.29947 1.15146,0.1589c0.56961,-0.14057 0.43486,0.02445 1.24946,-0.06112c0.8146,-0.09167 1.0596,-0.39114 1.0841,-0.51338c0.0245,-0.1039 -0.37975,-0.14668 -0.80848,-0.19557c-0.05513,-0.00611 -0.11025,-0.01223 -0.16537,-0.01834c-0.48386,-0.06111 -0.8391,-0.37281 -1.28621,-0.6295c-0.41648,-0.24447 -1.04121,-1.23456 -1.04121,-1.23456v0l-1.11472,0.08557v0c0,0 0.58186,0.88619 0.80848,1.27122c0.13475,0.22614 0.12862,0.52561 0.11024,0.75785c-0.00612,0.12223 -0.01837,0.25058 0.01225,0.37893z" fill="#ffb27d" fill-opacity="1"></path></g></g><g><title>Group</title><g><title>Vector</title><path d="M75.7461,41.77009c0.56961,-0.14057 0.43486,0.02445 1.24946,-0.06112c0.81459,-0.09168 1.05958,-0.39116 1.08408,-0.51339c0.0245,-0.1039 -0.37974,-0.14668 -0.80847,-0.19558l-0.00612,0.00611v0c0,0 -0.48998,0.34226 -1.16371,0.36059c-0.55122,0.01222 -1.13307,-0.14668 -1.51281,-0.14057c-0.00612,0.12835 -0.01838,0.2567 0.00612,0.37893c0.06737,0.3606 0.58185,0.30559 1.15144,0.16502z" fill="#233862" fill-opacity="1"></path></g></g><g><title>Group</title><g><title>Vector</title><path d="M70.32182,34.49715v0l-1.0412,2.79303v0l-1.35969,3.65478v0c0,0 -0.36748,0.03667 -0.72272,-0.06723c-0.32461,-0.09168 -0.69821,-0.33614 -0.69821,-0.33614v0c0,0 0.37973,-3.91758 1.08407,-6.16667c0.17762,-0.5745 0.37974,-1.04509 0.60635,-1.3079c1.0902,-1.28956 2.1314,1.43013 2.1314,1.43013v0z" fill="#e58638" fill-opacity="1"></path></g></g><g><title>Group</title><g><title>Vector</title><path d="M69.2693,30.06227c-0.59407,-0.18946 -2.1375,0 -3.81567,0.29947c-0.46548,0.08556 -0.93095,-0.12834 -1.17594,-0.53171l-4.21993,-0.33003v0c0,0 -1.39031,3.08028 -0.63085,5.04824c0.11024,0.28725 0.35523,0.4706 0.73497,0.47672c0,0 2.54788,0.00611 3.36859,0.00611c2.10078,0 4.44042,-1.44236 4.74665,-1.49736c0.49611,-0.09779 0.6921,0.8923 1.18818,1.93129c0.4961,1.03898 4.6671,4.6021 4.6671,4.6021v0c0,0 0.643,0.0061 0.9064,-0.0917c0.2817,-0.1039 0.3859,-0.2445 0.3859,-0.2445v0c0,0 -4.6181,-9.17358 -6.1554,-9.66863z" fill="#f99746" fill-opacity="1"></path></g></g><g><title>Group</title><g><title>Vector</title><path d="M63.82928,17.45925c-0.31236,-0.18335 -0.6186,-0.21391 -0.80847,-0.2078c-0.12862,0.00611 -0.26336,-0.00611 -0.39198,-0.02445c-1.61081,-0.23836 -2.57852,2.0963 -2.63976,2.80526c-0.10413,1.29567 -0.7901,1.49124 -1.75781,2.30409c-1.93542,1.62571 -1.37194,3.51421 -0.31236,4.21705c0.63697,0.42171 1.7578,0 1.7578,0c0.01838,0.01222 3.06238,-1.69904 4.56906,-2.52412c2.26003,-0.3178 0.48998,-6.03221 -0.41648,-6.57003z" fill="#152949" fill-opacity="1"></path></g></g><g><title>Group</title><g><title>Vector</title><path d="M62.98798,23.3291c0.00613,0.00611 -0.74109,0.25669 -1.23719,0.03667c-0.4716,-0.2078 -0.82684,-0.97787 -0.82071,-0.97787c0.21436,-0.01222 0.4471,-0.19557 0.63084,-1.4179l0.09187,0.03056v0l1.53118,0.55005v0c0,0 -0.11024,0.48893 -0.18374,0.95342c-0.06125,0.39725 -0.09187,0.77007 -0.01225,0.82507z" fill="#ffb27d" fill-opacity="1"></path></g></g><g><title>Group</title><g><title>Vector</title><path d="M63.18505,21.55005v0c0,0 -0.06125,0.2628 -0.14699,0.75785c-0.87584,-0.1589 -1.25557,-0.83119 -1.37806,-1.3079z" fill="#ed975d" fill-opacity="1"></path></g></g><g><title>Group</title><g><title>Vector</title><path d="M63.41088,22.04188c0,0 -2.08854,-0.28114 -1.89868,-1.57682c0.19599,-1.29567 0.05512,-2.20631 1.40257,-2.08407c1.34133,0.12223 1.52508,0.66006 1.56795,1.10621c0.03675,0.44615 -0.52673,2.59135 -1.07184,2.55468z" fill="#ffb27d" fill-opacity="1"></path></g></g><g><title>Group</title><g><title>Vector</title><path d="M64.40334,18.77176c0,0 -1.34131,1.149 -2.24777,1.24678c-0.91259,0.09168 -1.25557,-0.20168 -1.25557,-0.20168v0c0,0 0.53898,-0.44616 0.85746,-1.16122c0.098,-0.21391 0.29399,-0.35447 0.52673,-0.37892c0.65534,-0.055 1.88641,-0.07945 2.11915,0.49504z" fill="#152949" fill-opacity="1"></path></g></g><g><title>Group</title><g><title>Vector</title><path d="M63.57,18.67065v0c0,0 0.44712,0.43393 0.588,0.75173c0.13475,0.3117 0.17762,1.05121 0.06737,1.34456c0,0 0.69825,-1.35678 0.30012,-2.01073c-0.4165,-0.70284 -0.95549,-0.08556 -0.95549,-0.08556z" fill="#152949" fill-opacity="1"></path></g></g><g><title>Group</title><g><title>Vector</title><path d="M64.75269,26.40521c-0.06125,4.22316 -0.01837,3.34308 -0.47773,3.74034c-0.11024,0.09779 -0.42261,0.15279 -0.83909,0.18335c-1.29844,0.08557 -3.58296,-0.12834 -3.66871,-0.3667c-0.30011,-0.83118 -0.08575,-1.08787 -0.33686,-2.35299c-0.0245,-0.13446 -0.06124,-0.28114 -0.09799,-0.44004c-0.20824,-0.87397 -0.41036,-1.16733 0.33073,-2.5669c0.66759,-1.26512 1.36582,-2.29799 1.42706,-2.26132c1.77005,1.04509 1.91091,0.16502 1.91091,0.16502v0c0,0 1.7823,1.83962 1.75168,3.89925z" fill="#8c9df4" fill-opacity="1"></path></g></g><g><title>Group</title><g><title>Vector</title><path d="M69.28062,37.30137v0l-1.35969,3.64866v0c0,0 -0.36748,0.03667 -0.72272,-0.06723c-0.32461,-0.09167 -0.69821,-0.33614 -0.69821,-0.33614v0c0,0 0.37973,-3.91757 1.08407,-6.16666z" fill="#f99746" fill-opacity="1"></path></g></g><g><title>Group</title><g><title>Vector</title><path d="M63,22.51v0c0,0 1.81905,0.30559 2.03341,1.08788c0.21437,0.78229 0.91871,5.52495 0.91871,5.52495v0c0,0 -0.51448,0.50115 -0.94321,0.07334c-0.42873,-0.42782 -1.34744,-4.43707 -1.34744,-4.43707v0z" fill="#8c9df4" fill-opacity="1"></path></g></g><g><title>Group</title><g><title>Vector</title><path d="M63.4256,30.32986c-1.29845,0.08556 -3.58299,-0.12835 -3.66874,-0.3667c-0.30011,-0.83119 -0.08575,-1.08788 -0.33686,-2.353l0.62473,-1.76016v0c0,0 -0.10412,1.96185 0.47773,2.47523c0.57573,0.51338 2.37029,0.9962 2.65203,1.42402c0.14087,0.2078 0.22661,0.41559 0.25111,0.58061z" fill="#707fe5" fill-opacity="1"></path></g></g><g><title>Group</title><g><title>Vector</title><path d="M61.95,29.49878v0c0,0 1.28007,-0.28725 1.48831,-0.17113c0.20824,0.11612 0.71047,0.52561 0.77785,0.67229c0.06124,0.14668 -0.45936,-0.11001 -0.63086,-0.15279c-0.11024,-0.03056 -0.39811,0.07334 -0.5451,0.11612c-0.60635,0.20169 -0.97383,0.09779 -0.97383,0.09779v0z" fill="#ffb27d" fill-opacity="1"></path></g></g><g><title>Group</title><g><title>Vector</title><path d="M61.08937,22.34v0c0,0 -1.72105,0.1039 -2.31515,0.93508c-0.83909,1.16733 -2.49889,6.13611 -1.54956,6.80228c1.07183,0.74562 4.88142,0.19557 4.88142,0.19557v0c0,0 0.12862,-0.59283 -0.049,-0.88007c-0.17762,-0.28725 -3.04399,-0.74563 -3.17874,-0.88008c-0.13474,-0.13446 1.65368,-2.57301 1.65368,-2.97027c0.00613,-0.39726 0.55735,-3.20251 0.55735,-3.20251z" fill="#8c9df4" fill-opacity="1"></path></g></g><g><title>Group</title><g><title>Vector</title><path d="M63.49,29.69v0c0,0 0.26949,0.34838 0.35524,0.38505c0.08575,0.04278 0.14699,0.03056 0.14699,0.03056v0l-0.18374,-0.32393v0z" fill="#ffb27d" fill-opacity="1"></path></g></g><g><title>Group</title><g><title>Vector</title><path d="M63.43,29.33v0l0.77784,0.37896v0c0,0 -0.03063,0.05501 -0.12862,0.0489c-0.09799,-0.00611 -0.33686,-0.09168 -0.33686,-0.09168v0z" fill="#ffb27d" fill-opacity="1"></path></g></g></g><g><title>Group</title><g><title>Group</title><g><title>Vector</title><path d="M70.09588,30.22v0h-8.14588v0v0.17724v0h8.07238v0z" fill="#152949" fill-opacity="1"></path></g></g><g><title>Group</title><g><title>Vector</title><path d="M63.85,30.3982v0h6.16758v0l1.86192,-4.6082v0h-6.16759v0z" fill="#152949" fill-opacity="1"></path></g></g><g><title>Group</title><g><title>Vector</title><path d="M68.4607,28.09336c0.049,-0.1589 -0.049,-0.29336 -0.20826,-0.29336c-0.15925,0 -0.33076,0.12835 -0.37976,0.29336c-0.049,0.16501 0.049,0.29336 0.20826,0.29336c0.15926,0 0.33689,-0.12834 0.37977,-0.29336z" fill="#ebf3fa" fill-opacity="1"></path></g></g></g></g><g><title>Group</title><g><title>Vector</title><path d="M68.4898,59.07458v0l-0.633,-0.5496v0l-0.55077,0.63165v0l0.633,0.5496v0z" fill="#ffffff" fill-opacity="1"></path></g></g><g><title>Group</title><g><title>Group</title><g><title>Vector</title><path d="M59.7555,69.68737c-0.1286,-0.41559 -0.1898,-0.45838 -0.1898,-0.45838v0c0,0 -3.92598,0.48893 -4.58745,0.44615c-0.39198,-0.02445 -5.10801,-1.59514 -5.10801,-1.59514v0l-2.86024,2.73802v0c0,0 7.09854,1.16733 8.09687,1.08787c1.65367,-0.12834 4.17703,-1.58292 4.17703,-1.58292v0c0,0 0.5696,-0.30557 0.4716,-0.6356z" fill="#e58638" fill-opacity="1"></path></g></g><g><title>Group</title><g><title>Vector</title><path d="M49.03,100.94817v0c0,0 0.05512,1.32623 0.31236,1.65015l3.55234,0.01834c-0.0245,-0.13446 -0.03675,-0.45227 -0.53285,-0.53783c-0.6186,-0.11001 -1.34744,-0.53782 -1.72717,-1.35679c-0.39198,-0.86175 -1.60468,0.22613 -1.60468,0.22613z" fill="#214c7f" fill-opacity="1"></path></g></g><g><title>Group</title><g><title>Vector</title><path d="M42.05732,100.75857v0c0,0 -0.24499,1.76015 0.08574,1.79071c0.04287,0.00611 1.43319,0.02444 2.03341,0.03667c0.70435,0.01222 1.86805,-0.01222 1.86805,-0.01222c0.14699,0.00611 0.23887,-0.15279 0.16537,-0.27503c-0.07962,-0.14056 -0.23887,-0.28725 -0.53285,-0.34225c-0.6186,-0.11612 -1.64756,-0.57449 -2.00892,-1.39956c-0.37973,-0.86174 -1.61081,0.20168 -1.61081,0.20168v0z" fill="#214c7f" fill-opacity="1"></path></g></g><g><title>Group</title><g><title>Vector</title><path d="M50.8735,82.69587v0c0,0 -0.98608,3.44699 -3.81571,9.43643c-2.82963,5.9894 -2.95213,8.8741 -2.95213,8.8741v0c0,0 -0.42873,0.1528 -0.99833,0.0917c-0.61247,-0.0672 -1.04733,-0.3422 -1.04733,-0.3422v0c0,0 0.18374,-7.1262 1.51893,-10.1515c1.3352,-3.0253 1.61081,-11.2944 1.61081,-11.2944v0z" fill="#707fe5" fill-opacity="1"></path></g></g><g><title>Group</title><g><title>Vector</title><path d="M52.46482,79.73v0c0,0 0.07962,5.3416 -0.84521,11.8994c-0.92483,6.5578 -0.48998,9.6076 -0.48998,9.6076v0c0,0 -0.24498,0.1772 -0.99832,0.1772c-0.88196,-0.0061 -1.33519,-0.3667 -1.33519,-0.3667v0c0,0 -1.32294,-6.5578 -0.94321,-9.8398c0.37973,-3.28195 -1.81291,-11.26379 -1.81291,-11.26379v0z" fill="#8c9df4" fill-opacity="1"></path></g></g><g><title>Group</title><g><title>Vector</title><path d="M50.31327,66.41516c-0.01225,0.42171 -0.06737,0.87397 -0.23273,1.10011l-0.94321,0.49505v0l-1.04733,-0.77008v0c0,0 0.37973,-0.84952 0.28786,-2.08408c-0.01225,-0.07334 -0.049,-0.55005 -0.049,-0.55616l0.5206,0.26281v0l1.42094,0.70895v0c0,0 0,0.03055 0.01225,0.06722c0.01225,0.12224 0.03062,0.42782 0.03062,0.77618z" fill="#ffb27d" fill-opacity="1"></path></g></g><g><title>Group</title><g><title>Vector</title><path d="M45.09356,80.3905c0.34298,1.5585 7.66202,0.874 7.56402,-0.0795c-0.00612,-0.0305 -0.02449,-0.4706 -0.04899,-1.0695c-0.05513,-1.2835 -0.14087,-3.29419 -0.15312,-3.4531v-0.00611c-0.13474,-1.32623 -0.25724,-2.62191 -0.26949,-3.47143c-0.00612,-0.7334 -0.11024,-1.48514 -0.24499,-2.16964c-0.12249,-0.6295 -0.27561,-1.204 -0.41036,-1.64404c-0.09187,-0.3117 -0.26948,-0.59283 -0.50222,-0.80674c-0.16537,-0.15279 -0.35524,-0.28114 -0.5696,-0.36059c-0.06125,-0.02445 -0.11637,-0.04278 -0.17762,-0.06112c-0.86358,-0.25058 -1.72717,-0.56838 -2.05178,-0.4706c-0.87583,0.25669 -1.84966,1.80294 -2.30902,3.76478c-0.85134,3.6609 -1.04733,8.80688 -0.82684,9.82758z" fill="#f99746" fill-opacity="1"></path></g></g><g><title>Group</title><g><title>Vector</title><path d="M50.31894,66.41458c-0.53285,-0.21391 -1.54955,-0.69672 -1.83128,-1.24677c-0.12249,-0.24447 0.06737,-0.31781 0.37361,-0.31781l1.42092,0.70895v0c0,0 0,0.03056 0.01225,0.06723c0.00612,0.13446 0.0245,0.44004 0.0245,0.7884z" fill="#fca56b" fill-opacity="1"></path></g></g><g><title>Group</title><g><title>Vector</title><path d="M50.95416,65.46951c0,0 -2.54789,0.79451 -3.0195,-0.80062c-0.47161,-1.58901 -1.1147,-2.56076 0.48998,-3.13525c1.60468,-0.57449 2.10079,-0.06111 2.38865,0.43393c0.29399,0.50115 0.79009,3.25748 0.14087,3.50194z" fill="#ffb27d" fill-opacity="1"></path></g></g><g><title>Group</title><g><title>Vector</title><path d="M50.71735,61.82193c0,0 -0.16537,1.85182 -0.5451,1.77237c-0.38586,-0.07945 -0.72884,-0.14057 -0.67372,0.41559c0.05512,0.55616 0.07349,1.22844 -1.10858,1.32622c-1.18208,0.09779 -2.37028,-2.97025 -2.04566,-3.54474c0.94321,-1.66237 5.73275,-1.99851 4.37306,0.03056z" fill="#163560" fill-opacity="1"></path></g></g><g><title>Group</title><g><title>Vector</title><path d="M52.60789,79.24831c-0.05512,-1.28345 -0.14087,-3.29418 -0.15312,-3.45308v-0.00611v0l-4.32404,-2.57912c0,-0.00611 -0.16537,6.01997 4.47716,6.03831z" fill="#e58638" fill-opacity="1"></path></g></g><g><title>Group</title><g><title>Group</title><g><title>Group</title><g><title>Vector</title><path d="M67.52518,58.79v0l0.77784,0.67839v0c0,0 -1.33519,1.42402 -1.21269,2.92749l-1.99666,1.68071v0l-1.65367,-1.43624v0l1.37806,-2.28577c0.01225,0 1.49443,-0.055 2.70712,-1.56458z" fill="#163560" fill-opacity="1"></path></g></g><g><title>Group</title><g><title>Vector</title><path d="M65.50277,61.23075c0.15925,-0.18334 0.441,-0.20167 0.62475,-0.04278c0.18375,0.15889 0.20213,0.44001 0.04288,0.62335c-0.15925,0.18334 -0.44101,0.20167 -0.62476,0.04278c-0.18988,-0.15889 -0.20825,-0.44001 -0.04287,-0.62335z" fill="#ffffff" fill-opacity="1"></path></g></g><g><title>Group</title><g><title>Vector</title><path d="M67.99328,59.18682v0l-0.12935,-0.11234v0l-2.35624,2.70152v0l0.12935,0.11234v0z" fill="#ffffff" fill-opacity="1"></path></g></g></g><g><title>Group</title><g><title>Vector</title><path d="M65.10351,64.07703v0l-1.65414,-1.43622v0l-0.36182,0.41496v0l1.65414,1.43622v0z" fill="#6c7aff" fill-opacity="1"></path></g></g><g><title>Group</title><g><title>Vector</title><path d="M46.66736,83.6318v0l-0.07962,-0.0672c-0.43486,-0.3789 -0.47773,-1.0328 -0.10412,-1.4668l16.59798,-19.0378v0l1.6537,1.43624v0l-16.59801,19.03786c-0.37361,0.4278 -1.03508,0.4706 -1.46993,0.0977z" fill="#163560" fill-opacity="1"></path></g></g></g><g><title>Group</title><g><title>Vector</title><path d="M56.00743,73.78179v0c0,0 0.31849,-0.28114 0.39199,-0.47671c0.0245,-0.06723 0.24499,-0.3728 0.61248,-0.34836c0.33687,0.02445 0.94322,-0.69672 0.94322,-0.69672c0.08574,0.18946 0.39198,0.90451 -0.04288,1.2651c-0.35523,0.29335 -1.20045,0.80673 -1.72106,1.14287c-0.54511,0.36669 -0.18374,-0.88618 -0.18374,-0.88618v0z" fill="#ffb27d" fill-opacity="1"></path></g></g><g><title>Group</title><g><title>Vector</title><path d="M56.05022,73.68565v0c0,0 -4.2873,0.72729 -4.66704,0.54394c-0.60634,-0.29336 0.23274,-4.63876 0.23274,-4.63876v0c0,0 0.03675,-0.98398 -1.1147,-1.21622c-0.99833,-0.20168 -1.96603,0.54394 -1.96603,0.54394v0c0,0 -0.87584,0.78229 -0.76559,1.65626c0.25111,1.93129 0.63697,5.84888 1.92929,6.45393c1.66592,0.77618 6.4922,-2.15131 6.4922,-2.15131v0c0,0 0.15924,-0.19557 0.13474,-0.56227c-0.01837,-0.31781 -0.27561,-0.62951 -0.27561,-0.62951z" fill="#f99746" fill-opacity="1"></path></g></g><g><title>Group</title><g><title>Vector</title><path d="M59.94,69.99993c0,0 1.08407,-0.39115 0.98608,-0.94732c-0.098,-0.55617 -0.43485,-0.48283 -0.63697,-0.29337c-0.20211,0.19558 -0.09187,1.17346 -0.34911,1.24069z" fill="#ffb27d" fill-opacity="1"></path></g></g><g><title>Group</title><g><title>Vector</title><path d="M56.33,73.50493v0c0,0 0.14699,-0.43393 0.30623,-0.61728c0.15924,-0.18335 0.22661,-0.50116 0.29398,-0.39726c0.0735,0.1039 -0.05512,0.48283 0,0.6234c0.06125,0.14057 -0.60022,0.39114 -0.60022,0.39114v0z" fill="#ffb27d" fill-opacity="1"></path></g></g></g><g><title>Group</title><g><title>Vector</title><path d="M152.257,95.85v0h-19.397v0v6.72283v0h19.397v0z" fill="#aec3ff" fill-opacity="1"></path></g></g><g><title>Group</title><g><title>Vector</title><path d="M164.804,102.99672v0h-164.60801c-0.10412,0 -0.19599,-0.08557 -0.19599,-0.19558v-0.08556c0,-0.11001 0.08575,-0.19557 0.19599,-0.19557h164.61401c0.11,0 0.196,0.08556 0.196,0.19557v0.08557c-0.006,0.1039 -0.092,0.19558 -0.202,0.19558z" fill="#233862" fill-opacity="1"></path></g></g></g></g></g></svg>