<?xml version="1.0" encoding="UTF-8"?>
<svg id="SVGDoc" width="161" height="103" xmlns="http://www.w3.org/2000/svg" version="1.1" xmlns:xlink="http://www.w3.org/1999/xlink" xmlns:avocode="https://avocode.com/" viewBox="0 0 161 103"><defs></defs><desc>Generated with Avocode.</desc><g><g><title>Frame</title><g><title>Background</title></g><g><title>Group</title><g><title>Group</title><g><title>Vector</title><path d="M154.632,68.2486c1.324,-0.3923 3.345,-1.892 4.018,-2.7688c2.788,-3.5303 3.392,-7.4066 0.047,-11.8598c-4.716,-6.4606 -12.544,-8.2372 -19.931,-10.0139c-7.851,-2.215 -11.87,-6.8989 -16.353,-13.5672c-5.83,-8.6756 -12.311,-17.1436 -21.742,-22.26589c-7.6192,-4.45318 -16.5856,-6.46057 -25.3197,-7.33736c-9.4077,-1.10753 -19.28,-0.4384 -27.1082,5.32998c-8.0604,5.79148 -10.9873,14.90548 -17.0268,22.47358c-5.3659,6.6682 -13.8909,7.1297 -21.27776,10.4523c-8.08369,3.5994 -12.12553,11.3752 -8.75733,19.8432c2.90363,7.1297 8.91989,9.0909 16.07449,9.5062c1.3937,0.0693 10.3833,0.3 14.1696,0.2308c3.7864,-0.0692 19.4427,0.0692 24.1582,0.1615c4.7155,0.0923 49.0135,-0.1615 53.3565,-0.0692c4.344,0.0692 26.551,0 29.501,-0.1615c2.95,-0.1846 14.867,0.3691 16.191,0.0461z" fill="#e9ebf0" fill-opacity="1"></path></g><g><title>Group</title><g><title>Vector</title><path d="M33.3385,68.52839c-1.9745,0 -4.0418,-0.06922 -6.2718,-0.18459c-4.7852,-0.25382 -9.5471,-0.32305 -13.58897,-0.32305c-1.6028,0 -3.22882,0.0923 -4.78516,0.1846c-1.50989,0.0923 -3.06623,0.18459 -4.62257,0.18459v-0.23074c1.55634,0 3.11268,-0.0923 4.59934,-0.18459c1.55634,-0.0923 3.15914,-0.1846 4.78517,-0.1846c4.04179,0.02307 8.80379,0.06923 13.58899,0.32305c3.6237,0.20767 6.8525,0.23075 9.849,0.11537c1.2544,-0.04615 2.532,-0.04615 3.7864,-0.02308c0.6271,0 1.2543,0.02308 1.8815,0.02308c3.7166,0 7.4797,-0.02308 11.1267,-0.04615c3.6702,-0.02308 7.4565,-0.04615 11.1731,-0.04615h57.8638c1.509,0 3.066,0.04615 4.576,0.06923c3.6,0.06922 7.317,0.16152 10.894,-0.20767c0.534,-0.04615 0.999,0 1.487,0.04615c0.278,0.02307 0.58,0.06923 0.906,0.06923c0.789,0.02308 1.602,0 2.392,0c0.929,-0.02307 1.882,-0.02307 2.788,0c2.416,0.0923 4.715,0.06922 7.154,0.02307c0.883,-0.02307 1.766,-0.02307 2.648,-0.02307v0.23075c-0.882,0 -1.765,0.02307 -2.648,0.02307c-2.439,0.04615 -4.738,0.06923 -7.154,-0.02307c-0.906,-0.04615 -1.859,-0.02308 -2.765,0c-0.789,0.02307 -1.602,0.02307 -2.392,0c-0.325,0 -0.627,-0.04615 -0.929,-0.06923c-0.465,-0.04615 -0.906,-0.09229 -1.417,-0.04615c-3.577,0.39227 -7.317,0.29997 -10.918,0.20767c-1.51,-0.02307 -3.066,-0.06923 -4.576,-0.06923h-57.9098c-3.7166,0 -7.5029,0.02308 -11.1731,0.04615c-3.647,0.02308 -7.4333,0.04615 -11.1499,0.04615c-0.6272,0 -1.2544,0 -1.8816,-0.02308c-1.2311,-0.02307 -2.5087,-0.04615 -3.7631,0.02308c-1.1382,0.04615 -2.3229,0.06922 -3.554,0.06922z" fill="#1e194a" fill-opacity="1"></path></g></g></g><g><title>Group</title><g><title>Vector</title><path d="M80.70143,36.8272c0,-0.96911 -0.11614,-4.6378 -0.39489,-4.75316c-0.27875,-0.11537 -8.08369,-3.32258 -8.29275,-3.62254c-0.23229,-0.27688 -0.04646,-1.24596 0.27875,-1.24596c0.34844,0 10.96406,-0.25381 14.49486,-0.46147c3.5308,-0.23073 20.5345,-0.55376 21.2313,-0.48454c0.6737,0.04615 1.3938,0.11537 1.8119,0.55376c0.3949,0.46147 4.3206,3.0457 4.8781,3.66868c0.5575,0.62298 0.511,0.46147 0.5575,1.59207c0.0464,1.1306 0.1626,4.79926 0.1626,4.79926v0c0,0 -29.7331,1.869 -34.72737,-0.0461z" fill="#5e598f" fill-opacity="1"></path></g><g><title>Vector</title><path d="M95.8173,27.96205c4.2742,-0.11537 12.1023,-0.46147 12.6831,-0.27688c0.5575,0.16151 5.5052,3.7379 5.6214,4.01478c0.1161,0.27688 -0.5111,4.96085 0.1626,5.26075h0.0232c0.7201,-0.0461 1.115,-0.0692 1.115,-0.0692v0c0,0 -0.1161,-3.6687 -0.1626,-4.7993c-0.0465,-1.1306 0,-0.96909 -0.5575,-1.59207c-0.5575,-0.62298 -4.4832,-3.23028 -4.8781,-3.66868c-0.3949,-0.46147 -1.0221,-0.66913 -1.6957,-0.73835c-0.6736,-0.04615 -16.3532,0.4384 -21.3707,0.46147c-3.5308,0.02307 -14.14642,0.50762 -14.49486,0.50762c-0.34844,0 -0.46458,1.1306 -0.23229,1.40749c0.99885,0.04614 19.53555,-0.39225 23.78645,-0.50762z" fill="#aabbe3" fill-opacity="1"></path></g><g><title>Group</title><g><title>Vector</title><path d="M80.50764,32.18706c1.18468,-0.3461 2.53195,0.11537 3.76309,0.04615c1.37051,-0.06922 2.71779,-0.09229 4.0883,-0.11537c2.85717,-0.02307 5.71437,-0.06922 8.57147,0.02308c2.8804,0.09229 5.7376,-0.11537 8.618,-0.13844c1.3937,0 2.8107,0.02307 4.2044,-0.06922c0.6737,-0.04615 1.3473,-0.13844 2.0442,-0.11537c0.5807,0.02307 1.1382,0.04615 1.6957,-0.11537c0.1394,-0.04615 0.0929,-0.25381 -0.0697,-0.23073c-0.604,0.16151 -1.2079,0.11537 -1.8119,0.0923c-0.6968,-0.02307 -1.3705,0.09229 -2.0673,0.13844c-1.3938,0.09229 -2.8107,0.04615 -4.2045,0.04615c-2.8804,0.02307 -5.7375,0.20766 -8.6179,0.11537c-2.8572,-0.09229 -5.6911,-0.04615 -8.5483,-0.02308c-1.37051,0.02307 -2.71779,0.06922 -4.0883,0.11537c-1.18468,0.04615 -2.43904,-0.39225 -3.62372,-0.04615c-0.1626,0.09229 -0.11614,0.32303 0.04646,0.27688z" fill="#1e194a" fill-opacity="1"></path></g></g><g><title>Group</title><g><title>Vector</title><path d="M108.54615,26.44114c0,0.4384 -0.11614,0.85372 -0.11614,1.29211c0,0.13844 0.23229,0.13844 0.23229,0c0,-0.4384 0.11614,-0.85372 0.11614,-1.29211c0,-0.16151 -0.23229,-0.16151 -0.23229,0z" fill="#1e194a" fill-opacity="1"></path></g></g><g><title>Group</title><g><title>Vector</title><path d="M114.79493,30.91756c-0.25552,0.23074 -0.3949,0.55376 -0.62719,0.7845c-0.09292,0.11537 0.06969,0.27689 0.16261,0.16152c0.23229,-0.25381 0.37166,-0.57684 0.62718,-0.7845c0.11615,-0.09229 -0.06968,-0.25381 -0.1626,-0.16151z" fill="#1e194a" fill-opacity="1"></path></g></g><g><title>Vector</title><path d="M41.71832,47.7661c0.30198,1.89203 3.13591,4.54548 9.12898,-0.3461c0.4646,0.59991 0.302,1.4767 0.302,1.4767c-1.6725,2.07662 -8.89671,5.4915 -11.2893,-0.64605c0.41812,-0.11537 1.85832,-0.48455 1.85832,-0.48455z" fill="#5e598f" fill-opacity="1"></path></g><g><title>Vector</title><path d="M35.54339,44.23495c-0.97561,0.46147 -2.6481,1.49978 -2.88038,1.84588c-0.23229,0.3461 -0.11615,1.08447 0.18583,1.43057c0.30198,0.3461 6.59703,1.9151 10.68537,0.3461c1.1382,-0.4153 1.9976,-2.21506 2.2764,-3.09186c0.2555,-0.87679 0.9059,-3.46102 1.2776,-4.75314c0.3717,-1.26904 0.511,-2.67652 0.2787,-2.79188c-0.2323,-0.11537 -8.89666,-0.36917 -9.94196,-0.16151c-1.06853,0.23073 -1.09176,1.86895 -1.37051,3.36873c-0.25552,1.52285 -0.74333,3.41487 -0.51104,3.80712z" fill="#aabbe3" fill-opacity="1"></path></g><g><title>Vector</title><path d="M51.15215,51.8939c-0.06969,-1.4998 -0.76656,-5.1915 -0.67364,-5.7915c0.06969,-0.59987 -0.06969,-1.06134 0.60395,-2.3996c0.67364,-1.36134 2.55519,-4.8685 3.01977,-6.06832c0.46458,-1.17675 0.74333,-1.86895 1.64926,-1.79973c0.90593,0.04615 7.73521,-0.04615 11.03381,0.11537c3.2985,0.16152 5.9698,0.3461 6.9919,0.3461c1.0221,0 3.1824,0.11537 3.345,0.11537c0.1626,0 0.3949,0.23073 0.3484,1.68437c-0.0465,1.4767 0.1161,29.48795 0.1626,30.20315c0.0465,0.7384 0.2787,1.9843 -0.5575,1.9843c-0.8595,0 -11.7771,0.623 -14.8898,0.6692c-3.13589,0.0461 -8.5947,-0.1615 -8.5947,-0.1615v0z" fill="#aabbe3" fill-opacity="1"></path></g><g><title>Vector</title><path d="M45.7853,74.2003c1.6028,0.1154 12.172,0.3922 13.9374,0.3461c1.7654,-0.0461 1.3705,-0.0462 2.5087,-0.623c1.1382,-0.5538 2.1138,-0.8537 2.3926,-1.4767c0.2787,-0.623 0.2323,-2.4919 0.1161,-5.03c-0.1161,-2.5381 0,-12.75963 -0.0464,-13.54412c-0.0465,-0.7845 0.0464,-1.52285 -1.1847,-1.59207c-1.2544,-0.04615 -11.47511,0 -12.40427,0c-0.90592,0 -1.3705,0.27688 -2.67133,0.55376c-1.30082,0.27688 -2.90362,0.55376 -3.18236,0.89986c-0.27875,0.34611 -0.51104,0.50762 -0.51104,2.93034c0,2.42271 0.62718,9.82933 0.55749,11.69823c-0.06969,1.892 -0.18583,5.6761 0.48781,5.8376z" fill="#d7dff2" fill-opacity="1"></path></g><g><title>Vector</title><path d="M46.53,56.30007c0.1626,1.1306 0.39489,6.94513 0.46458,7.68348c0.04646,0.73836 0.37166,0.76143 1.18467,0.83065c0.78979,0.04615 8.15337,-0.09229 8.66445,-0.09229c0.511,0 1.1382,0.04615 1.1846,-0.7845c0.0465,-0.85372 0.2091,-3.64562 0.0697,-4.49934c-0.1858,-1.31519 0.2555,-3.5764 -0.302,-3.62255c-0.5575,-0.04615 -2.04411,0.02308 -3.69336,0.04615c-6.36474,0.11537 -7.41004,-0.06922 -7.57264,0.4384z" fill="#aabbe3" fill-opacity="1"></path></g><g><title>Group</title><g><title>Vector</title><path d="M50.96453,52.42738c2.92685,-0.13844 5.87694,0 8.80379,-0.06922c1.18468,-0.02307 2.46228,-0.18459 3.62368,0.06922c1.3241,0.27688 1.2544,1.70743 1.208,2.76881c0,0.13844 0.2322,0.13844 0.2322,0c0.0465,-0.87679 0.1162,-1.9151 -0.5342,-2.58422c-0.6969,-0.73835 -2.2997,-0.55376 -3.2056,-0.50761c-3.36823,0.09229 -6.75966,-0.06922 -10.12787,0.09229c-0.13937,0.02307 -0.13937,0.25381 0,0.23073z" fill="#1e194a" fill-opacity="1"></path></g></g><g><title>Group</title><g><title>Vector</title><path d="M64.53,58.74383c0,0.73835 0.02323,1.45363 0.04646,2.19197c0,0.13845 0.23229,0.13845 0.23229,0c0,-0.73834 -0.02323,-1.45362 -0.04646,-2.19197c0,-0.13844 -0.23229,-0.13844 -0.23229,0z" fill="#1e194a" fill-opacity="1"></path></g></g><g><title>Vector</title><path d="M116.0012,36.65921c-3.1359,0.04615 -40.9062,-0.48454 -42.04442,-0.3461c-1.13822,0.16151 -4.0883,7.222 -4.48319,8.3526c-0.37166,1.1306 0.76655,21.52749 1.13822,24.48099c3.85601,-0.1616 45.11069,1.0613 46.62059,0.2307c1.5331,-0.8307 -0.5111,-32.46438 -1.2312,-32.71819z" fill="#5e598f" fill-opacity="1"></path></g><g><title>Vector</title><path d="M83.42,36.34c0.30198,4.33781 0.67364,29.534 1.48665,31.7491c0.20906,0.5538 1.50988,0.9922 3.43789,1.3152c7.01516,0.1384 14.72716,0.2538 20.44146,0.2538c0.3949,-0.0692 0.7434,-0.1384 0.9756,-0.2077c3.5541,-1.1306 6.9687,-25.81918 6.899,-26.41909c-0.0696,-0.59991 -0.3716,-5.65301 -0.6504,-6.36828c-2.1835,0.02307 -20.8596,-0.23073 -32.5902,-0.32303z" fill="#1e194a" fill-opacity="1"></path></g><g><title>Vector</title><path d="M76.09655,42.99034c-1.02207,0 -1.18467,-1.36134 -1.02207,-1.9151c0.1626,-0.55377 0.11614,-1.01524 1.81186,-1.01524c1.69571,0 36.44626,0.04615 37.35216,0.04615c0.906,0 -0.4645,3.2303 -1.0917,3.32259c-0.604,0.11537 -35.28485,-0.11537 -37.05025,-0.4384z" fill="#cbd7f2" fill-opacity="1"></path></g><g><title>Vector</title><path d="M108.9693,40.10615c-7.0152,0 -19.32651,-0.02307 -26.50426,-0.04615c-0.32521,0.46147 -0.60395,1.19982 -0.53426,1.70744c0.06969,0.64606 0.34843,1.33827 0.99884,1.45364c0.09292,0 0.18583,0 0.30197,0c0.02323,0 0.02323,0 0.04646,0c4.52965,0.09229 10.54595,0.13844 15.98155,0.18458c0,0 0,0 0.0232,0c0.2323,0 0.4646,0 0.6969,0c0.0464,0 0.0929,0 0.1394,0c0.1858,0 0.3484,0 0.511,0c0.1161,0 0.2323,0 0.3717,0c0.1393,0 0.2555,0 0.3948,0c0.1394,0 0.2788,0 0.4182,0c0.1161,0 0.2323,0 0.3484,0c0.1626,0 0.302,0 0.4646,0c0.0929,0 0.209,0 0.302,0c0.1626,0 0.3252,0 0.4878,0c0.0697,0 0.1393,0 0.2323,0c0.209,0 0.4181,0 0.6271,0h0.0233c1.5099,0 2.9036,0.02308 4.1115,0.02308c-0.302,-0.46147 -0.2787,-2.65346 0.5575,-3.32259z" fill="#ea575f" fill-opacity="1"></path></g><g><title>Vector</title><path d="M62.46568,58.24207c-0.58072,-0.20766 -1.06853,-1.569 0.67364,-1.569c1.74217,0 42.23028,-0.02307 42.23028,-0.02307v0l0.9292,0.04615v0v1.52285v0h-43.83312v0z" fill="#aabbe3" fill-opacity="1"></path></g><g><title>Group</title><g><title>Vector</title><path d="M63.37195,58.30304c1.78863,0 3.55403,-0.0923 5.34266,-0.0923c0.13937,0 0.13937,-0.23074 0,-0.23074c-1.78863,0 -3.55403,0.0923 -5.34266,0.0923c-0.1626,0 -0.1626,0.23074 0,0.23074z" fill="#1e194a" fill-opacity="1"></path></g></g><g><title>Vector</title><path d="M80.8119,45.29c-1.3008,1.40748 -6.4344,4.79928 -8.64119,7.01434c-2.20675,2.19198 -3.80955,4.84546 -5.45881,6.16066c-1.64926,1.2921 -2.71779,3.8302 -4.04185,3.7379c-0.04646,0 30.12795,0.5537 30.12795,0.5537c0.906,-1.7997 4.5529,-6.1606 6.5274,-8.53717c1.9977,-2.37656 5.8537,-5.07616 7.7352,-8.62947c-5.1568,-0.18459 -26.2487,-0.29996 -26.2487,-0.29996z" fill="#ea575f" fill-opacity="1"></path></g><g><title>Group</title><g><title>Vector</title><path d="M67.56906,60.5213c0.60395,-0.3461 1.04531,-0.8537 1.46343,-1.3844c0.48781,-0.623 1.02207,-1.1998 1.57957,-1.7766c1.27759,-1.33831 2.46228,-2.74579 3.64695,-4.17635c1.20791,-1.45363 2.67134,-2.63038 4.18119,-3.7379c0.7434,-0.55377 1.5099,-1.06139 2.2765,-1.59208c0.7433,-0.53069 1.4402,-1.17674 2.2764,-1.56899c0.1394,-0.06922 0.0232,-0.25381 -0.1161,-0.20766c-0.7898,0.36918 -1.3938,0.94601 -2.1139,1.45364c-0.7433,0.53069 -1.5099,1.06137 -2.2764,1.59206c-1.41698,1.01524 -2.83395,2.09969 -3.9954,3.41488c-1.23113,1.38441 -2.34612,2.83804 -3.60049,4.17631c-0.58072,0.623 -1.18468,1.1998 -1.71895,1.8459c-0.51104,0.646 -0.97562,1.3382 -1.71894,1.7536c-0.13937,0.0923 -0.02323,0.2999 0.11615,0.2076z" fill="#1e194a" fill-opacity="1"></path></g></g><g><title>Group</title><g><title>Vector</title><path d="M90.78272,60.7316c0.46458,-0.5538 0.92917,-1.0845 1.37052,-1.6383c0.48781,-0.6229 0.76655,-1.3382 1.13822,-2.0073c0.81301,-1.47675 2.0906,-2.83809 3.2985,-4.03791c2.46228,-2.42272 5.41235,-4.31474 7.99075,-6.59902c0.1162,-0.09229 -0.0464,-0.25381 -0.1626,-0.16151c-2.5552,2.23813 -5.3891,4.13015 -7.85137,6.46058c-1.16145,1.10752 -2.25321,2.37656 -3.18237,3.71486c-0.44135,0.646 -0.7201,1.4075 -1.13822,2.0535c-0.46458,0.7384 -1.09176,1.3844 -1.64925,2.0536c-0.06969,0.1153 0.09291,0.2768 0.18583,0.1615z" fill="#1e194a" fill-opacity="1"></path></g></g><g><title>Vector</title><path d="M63.29986,56.71208c-0.5575,-0.62299 -0.23229,-1.59208 1.48665,-1.59208c1.69572,0 40.92949,0 40.92949,0v0l0.9059,0.04615v0v1.52285v0h-43.32204v0z" fill="#cbd7f2" fill-opacity="1"></path></g><g><title>Vector</title><path d="M76.09765,42.98686c-0.85947,-0.16151 -1.6028,0.27688 -1.53311,1.47671c0.04646,1.17675 1.41696,1.17675 3.46111,1.1306c2.04415,-0.04615 30.66225,0.16151 32.26505,0.16151c1.6028,0 2.4158,-0.16151 2.5784,-0.3461c0.1626,-0.16151 0.5575,-2.16891 0.0465,-2.21505c-0.5343,-0.09229 -35.28484,-0.66913 -36.81795,-0.20766z" fill="#d7dff2" fill-opacity="1"></path></g><g><title>Vector</title><path d="M111.42954,52.5139c-0.06969,-1.4998 -0.67364,-4.2917 -0.60395,-4.8916c0.06969,-0.5999 0.06968,-1.0614 0.76655,-2.39963c0.67364,-1.36134 2.3229,-5.76837 2.78748,-6.96819c0.46458,-1.17675 0.74332,-1.86895 1.64925,-1.79973c0.90593,0.04615 7.73523,-0.04615 11.03373,0.11537c3.2985,0.16152 5.9699,0.3461 6.9919,0.3461c1.0221,0 3.1824,0.11537 3.345,0.11537c0.1626,0 0.3949,0.23073 0.3485,1.68437c-0.0465,1.4767 -0.0233,27.82665 0.0464,28.56495c0.0465,0.7384 0.1626,1.6382 -0.5342,1.9151c-0.4879,0.2077 -5.7608,2.3304 -8.8271,2.4689c-2.4855,0.1153 -4.7619,-0.0923 -5.9698,-0.0693c-3.13591,0.0462 -8.59472,-0.1615 -8.59472,-0.1615v0z" fill="#aabbe3" fill-opacity="1"></path></g><g><title>Vector</title><path d="M106.7353,74.2003c1.6028,0.1154 12.172,0.3922 13.9374,0.3461c1.7654,-0.0461 1.3705,-0.0462 2.5087,-0.623c1.1382,-0.5538 2.1138,-0.8537 2.3926,-1.4767c0.2787,-0.623 0.2323,-2.4919 0.1161,-5.03c-0.1161,-2.5381 0,-12.75963 -0.0464,-13.54412c-0.0465,-0.7845 0.0464,-1.52285 -1.1847,-1.59207c-1.2544,-0.04615 -11.47512,0 -12.40427,0c-0.90593,0 -1.37051,0.27688 -2.67133,0.55376c-1.30082,0.27688 -2.90361,0.55376 -3.18236,0.89986c-0.27875,0.34611 -0.51104,0.50762 -0.51104,2.93034c0,2.42271 0.62718,9.82933 0.55749,11.69823c-0.06969,1.892 -0.18583,5.6761 0.48781,5.8376z" fill="#d7dff2" fill-opacity="1"></path></g><g><title>Vector</title><path d="M107.92,56.30007c0.1626,1.1306 0.39489,6.94513 0.46458,7.68348c0.04646,0.73836 0.37167,0.76143 1.18468,0.83065c0.78978,0.04615 8.15336,-0.09229 8.66444,-0.09229c0.511,0 1.1382,0.04615 1.1846,-0.7845c0.0465,-0.85372 0.2091,-3.64562 0.0697,-4.49934c-0.1858,-1.31519 0.2555,-3.5764 -0.302,-3.62255c-0.5575,-0.04615 -2.0441,0.02308 -3.69336,0.04615c-6.3415,0.11537 -7.38681,-0.06922 -7.57264,0.4384z" fill="#aabbe3" fill-opacity="1"></path></g><g><title>Group</title><g><title>Vector</title><path d="M51.1318,44.85664c0.69687,0.06922 1.37051,0.02307 2.06737,0c0.69687,-0.02307 1.39374,0.04615 2.11384,0.02308c1.4402,-0.04615 2.88039,-0.20766 4.34382,-0.23074c3.01977,-0.06922 6.08597,-0.18459 9.12897,-0.06922c0.1394,0 0.1394,-0.23074 0,-0.23074c-2.9501,-0.11537 -5.9466,0 -8.89668,0.06922c-1.46343,0.02307 -2.90362,0.13844 -4.34382,0.23074c-0.69687,0.04615 -1.39374,-0.02308 -2.11384,-0.02308c-0.76655,0 -1.50988,0.09229 -2.27644,0c-0.1626,-0.02307 -0.1626,0.20766 -0.02323,0.23074z" fill="#1e194a" fill-opacity="1"></path></g></g><g><title>Vector</title><path d="M56.65782,37.90562c-0.41812,-0.16152 -0.78978,-0.11537 -1.18467,0.11537c-0.37166,0.23074 -0.83624,0.7845 -0.41812,1.19983c0.69687,0.64606 2.41581,-0.8768 1.60279,-1.3152z" fill="#2d767d" fill-opacity="1"></path></g><g><title>Vector</title><path d="M55.19114,40.42658c-0.60396,-0.11537 -1.41697,0.20766 -1.53312,0.85372c-0.11614,0.53069 0.34844,0.83065 0.83624,0.71528c0.41812,-0.11537 0.90593,-0.48454 1.09176,-0.87679c0.25552,-0.53069 -0.34844,-0.87679 -0.78979,-0.64606" fill="#5e598f" fill-opacity="1"></path></g><g><title>Group</title><g><title>Vector</title><path d="M58.95049,37.51779c-0.20906,0.32303 -0.30197,0.6922 -0.4878,1.0383c-0.20906,0.4384 -0.44135,0.83065 -0.69687,1.24597c-0.25552,0.41532 -0.51104,0.83064 -0.7201,1.26904c-0.20906,0.4384 -0.30198,0.89987 -0.5575,1.31519c-0.04646,0.06922 0,0.18459 0.09292,0.18459c0.85947,-0.04615 1.71894,0.06922 2.57841,0c0.8827,-0.06922 1.76541,-0.0923 2.64811,-0.0923c0.85947,0 1.71894,0 2.55518,0.06922c0.55749,0.04615 1.16145,0.18459 1.71894,0.02308c0.13937,-0.04615 0.09292,-0.27688 -0.06968,-0.23074c-0.5575,0.16152 -1.20791,0 -1.78864,-0.04614c-0.8827,-0.06922 -1.76539,-0.04615 -2.64809,-0.04615c-0.81302,0 -1.6028,0.04615 -2.41582,0.09229c-0.85947,0.06922 -1.71894,-0.04614 -2.57841,0c0.02323,0.06922 0.06969,0.11537 0.09291,0.18459c0.20906,-0.3461 0.32521,-0.73835 0.46458,-1.1306c0.18583,-0.46147 0.44135,-0.87679 0.69686,-1.29211c0.25552,-0.39225 0.48781,-0.80758 0.69687,-1.24597c0.20906,-0.41533 0.32521,-0.85372 0.5575,-1.2229c0.13937,-0.11537 -0.04646,-0.23073 -0.13938,-0.11537z" fill="#1e194a" fill-opacity="1"></path></g></g><g><title>Group</title><g><title>Vector</title><path d="M59.51453,37.55929c1.69572,0.02307 3.34497,0.23073 5.01745,0.16151c0.76656,-0.02307 1.53312,-0.04615 2.29968,-0.02308c0.65041,0.04615 1.32405,-0.06922 1.97446,0c-0.04646,-0.04615 -0.06969,-0.09229 -0.11615,-0.13844c-0.23229,0.92294 -0.8827,1.84588 -1.34728,2.67652c-0.23229,0.41533 -0.55749,0.78451 -0.78978,1.19983c-0.16261,0.29995 -0.30198,0.62298 -0.51104,0.92294c-0.09292,0.11537 0.11615,0.23073 0.20906,0.11537c0.18583,-0.29996 0.3252,-0.62299 0.51103,-0.92294c0.30198,-0.46147 0.62719,-0.89987 0.88271,-1.36134c0.44135,-0.7845 1.06853,-1.6613 1.27759,-2.56116c0.02323,-0.06922 -0.04645,-0.13844 -0.11614,-0.13844c-0.60396,-0.04615 -1.23114,0.02308 -1.8351,0.02308c-0.81301,-0.02307 -1.62602,-0.02307 -2.43904,0c-1.69571,0.06922 -3.34496,-0.16152 -5.01745,-0.16152c-0.13937,-0.02307 -0.13937,0.20766 0,0.20766z" fill="#1e194a" fill-opacity="1"></path></g></g><g><title>Group</title><g><title>Vector</title><path d="M59.46798,38.20798c-0.25552,0.64606 -0.44135,1.33826 -0.76655,1.93817c-0.25552,0.48454 -0.53427,0.94601 -0.69687,1.4767c-0.02323,0.06922 0.04646,0.13844 0.11614,0.13844c1.11499,-0.04615 2.22999,-0.02307 3.36821,0c1.09176,0.02307 2.20675,-0.02307 3.29851,0c0.30197,0 0.60395,0.11537 0.8827,-0.04615c0.27875,-0.16151 0.39489,-0.46146 0.48781,-0.73835c0.37166,-0.94601 1.02208,-1.68436 1.46343,-2.60729c0.02322,-0.06922 -0.00001,-0.16151 -0.0697,-0.16151c-0.58072,-0.09229 -1.11498,0.02307 -1.69571,0.04615c-0.62718,0.04615 -1.23113,0.06922 -1.85832,0.09229c-1.30082,0.02307 -2.60164,-0.32303 -3.90246,-0.23073c-0.13938,0 -0.13938,0.23073 0,0.23073c1.13822,-0.06922 2.32289,0.20766 3.46111,0.23073c0.62719,0.02307 1.25436,-0.04615 1.90478,-0.06922c0.67364,-0.02307 1.37051,-0.20766 2.02092,-0.09229c-0.02323,-0.04615 -0.04646,-0.11537 -0.06968,-0.16151c-0.37167,0.76142 -0.9524,1.40748 -1.32406,2.1689c-0.1626,0.3461 -0.18583,0.6922 -0.44135,0.99216c-0.25552,0.29995 -1.18468,0.09229 -1.53311,0.09229c-1.99769,0 -3.99539,-0.06922 -5.99308,0c0.04646,0.04615 0.06969,0.0923 0.11615,0.13844c0.18583,-0.62298 0.58072,-1.17674 0.85947,-1.75358c0.25552,-0.53069 0.39489,-1.10752 0.60395,-1.66129c0.04646,-0.09229 -0.1626,-0.16151 -0.23229,-0.02307z" fill="#1e194a" fill-opacity="1"></path></g></g><g><title>Group</title><g><title>Vector</title><path d="M75.59052,43.05201c0.76656,-0.11537 1.53311,-0.02307 2.29967,0c0.7201,0.02307 1.46343,0 2.18353,0c1.57957,-0.02307 3.15914,-0.13844 4.73871,-0.18459c1.48667,-0.02307 2.99657,0.06922 4.48317,0.13844c1.6028,0.06922 3.2056,0.06922 4.8084,0.06922c3.0895,0 6.1789,0.20766 9.2684,0.06922c2.9733,-0.11537 5.9234,0.06922 8.8967,0.09229c0.1393,0 0.1393,-0.23073 0,-0.23073c-2.8804,-0.02307 -5.784,-0.23074 -8.6644,-0.11537c-3.1592,0.11537 -6.3183,-0.06922 -9.5007,-0.06922c-1.6028,0 -3.2056,0 -4.8084,-0.06922c-1.5563,-0.06922 -3.1359,-0.16152 -4.69223,-0.13844c-1.57957,0.02307 -3.15915,0.16152 -4.73872,0.18459c-0.7201,0.02307 -1.44019,0.02307 -2.16029,0c-0.7201,-0.02307 -1.44019,-0.09229 -2.16029,0.02307c-0.1626,0.02307 -0.09292,0.25381 0.04645,0.23074z" fill="#1e194a" fill-opacity="1"></path></g></g><g><title>Group</title><g><title>Vector</title><path d="M111.01502,47.34644c1.39374,0 2.76425,0.02307 4.15799,-0.06922c1.48666,-0.11537 2.95009,-0.06922 4.43675,-0.09229c1.44024,-0.02307 2.85714,-0.04615 4.29734,-0.06922c1.3473,0 2.7875,-0.18459 4.0883,0.13844c0.1394,0.04615 0.2091,-0.18459 0.0697,-0.23073c-1.2079,-0.29995 -2.4855,-0.16151 -3.7166,-0.16151c-1.5099,0 -3.0198,0.04614 -4.52969,0.06922c-2.95008,0.04615 -5.87694,0.18459 -8.82702,0.16152c-0.13937,0.02307 -0.13937,0.25381 0.02323,0.25381z" fill="#1e194a" fill-opacity="1"></path></g></g><g><title>Group</title><g><title>Vector</title><path d="M132.80276,37.23627c-0.51104,0.62298 -0.83625,1.38441 -1.25437,2.07662c-0.46457,0.73835 -0.85946,1.52285 -1.23112,2.33042c-0.37167,0.83064 -0.69687,1.66129 -1.0453,2.51501c-0.32521,0.73835 -0.74333,1.43055 -1.0453,2.19198c-0.04646,0.13844 0.1626,0.20766 0.23229,0.06922c0.3252,-0.7845 0.76655,-1.54592 1.09176,-2.33042c0.3252,-0.76143 0.62718,-1.54592 0.97561,-2.30735c0.32521,-0.73835 0.72009,-1.45363 1.11498,-2.14583c0.41812,-0.71528 0.78979,-1.54592 1.32405,-2.19198c0.11615,-0.13844 -0.06969,-0.32303 -0.1626,-0.20766z" fill="#1e194a" fill-opacity="1"></path></g></g><g><title>Group</title><g><title>Vector</title><path d="M127.7861,47.94383c0,3.94556 -0.34843,7.96034 0.0697,11.88287c0.09292,0.946 0.23228,1.8689 0.27874,2.8149c0.04646,1.0383 -0.02322,2.0766 -0.02322,3.1149c0,0.8768 0.09292,1.7767 0.20907,2.6535c0.09292,0.6922 0.34843,1.569 0.09291,2.2381c-0.04646,0.1385 0.1626,0.2077 0.23229,0.0692c0.20906,-0.5076 0.09293,-1.1075 0.02324,-1.6382c-0.13938,-0.946 -0.2323,-1.892 -0.30199,-2.8611c-0.06969,-0.9691 0.02324,-1.9382 0.02324,-2.9072c0,-1.0153 -0.13938,-2.0305 -0.25553,-3.0457c-0.46458,-4.08404 -0.11615,-8.21419 -0.11615,-12.32127c0,-0.13844 -0.23229,-0.13844 -0.23229,0z" fill="#1e194a" fill-opacity="1"></path></g></g><g><title>Group</title><g><title>Vector</title><path d="M106.60052,54.20287c0.60395,-0.13844 1.23114,0.04615 1.83509,0.06922c0.58072,0.02307 1.18468,0.02308 1.7654,0.02308c1.25437,0 2.53196,0 3.78633,-0.04615c1.18468,-0.04615 2.34612,-0.13844 3.53076,-0.18459c0.5808,-0.02307 1.1615,-0.04615 1.7422,0.02307c0.604,0.04615 1.1847,0.20767 1.8119,0.20767c0.1393,0 0.1393,-0.23074 0,-0.23074c-0.5343,0 -1.0686,-0.11537 -1.6028,-0.18459c-0.6504,-0.06922 -1.2776,-0.04615 -1.928,-0.04615c-1.2544,0.02307 -2.50876,0.13844 -3.76313,0.18459c-1.25436,0.04615 -2.53195,0.04615 -3.78632,0.04615c-0.58072,0 -1.16145,0 -1.74217,-0.02308c-0.58072,-0.02307 -1.11499,-0.18459 -1.69571,-0.04615c-0.1626,0.02307 -0.09292,0.23074 0.04645,0.20766z" fill="#1e194a" fill-opacity="1"></path></g></g><g><title>Group</title><g><title>Vector</title><path d="M121.58256,54.01402c0.81299,-0.64606 1.92795,-0.80757 2.85709,-1.26904c0.13937,-0.06922 0.02323,-0.25381 -0.11614,-0.20766c-0.95237,0.46147 -2.06733,0.62299 -2.90355,1.29212c-0.11614,0.11537 0.04646,0.27689 0.1626,0.18459z" fill="#1e194a" fill-opacity="1"></path></g></g><g><title>Group</title><g><title>Vector</title><path d="M122.62693,55.46497c0.25552,-0.16152 0.5575,-0.25381 0.83625,-0.3461c0.1626,-0.04615 0.46458,-0.06922 0.60395,-0.20766c-0.04646,-0.04615 -0.11613,-0.11537 -0.16259,-0.16151c-0.02323,0.02307 -0.04646,0.04615 -0.04646,0.04615c-0.11615,0.11537 0.04646,0.27688 0.16261,0.16151c0.02322,-0.02307 0.04644,-0.04615 0.04644,-0.04615c0.11615,-0.11537 -0.04644,-0.27688 -0.16259,-0.16151c-0.04646,0.04615 -0.25553,0.06922 -0.32522,0.09229c-0.11614,0.04615 -0.23229,0.06922 -0.37166,0.11537c-0.25552,0.09229 -0.48782,0.18459 -0.72012,0.32303c-0.11615,0.06922 0.00001,0.25381 0.13938,0.18459z" fill="#1e194a" fill-opacity="1"></path></g></g><g><title>Group</title><g><title>Vector</title><path d="M122.43551,56.30384c0.25552,-0.09229 0.51104,-0.16151 0.78978,-0.25381c0.18583,-0.06922 0.44134,-0.11537 0.53426,-0.27688c0.09291,-0.11537 -0.11614,-0.23073 -0.20905,-0.11537c-0.09292,0.13844 -0.41812,0.18459 -0.58073,0.23073c-0.20906,0.06922 -0.41813,0.11537 -0.60396,0.20766c-0.11614,0.04615 -0.06969,0.27688 0.06968,0.20766z" fill="#1e194a" fill-opacity="1"></path></g></g><g><title>Group</title><g><title>Vector</title><path d="M122.48179,57.21912c0.23229,-0.02307 0.44136,-0.09229 0.67365,-0.16151c0.23229,-0.09229 0.5575,-0.27688 0.81302,-0.27688c0.13938,0 0.13938,-0.23073 0,-0.23073c-0.02323,0 -0.04645,0 -0.06968,0c-0.13938,0 -0.13938,0.23073 0,0.23073c0.02323,0 0.04645,0 0.06968,0c0.13938,0 0.13938,-0.23073 0,-0.23073c-0.20906,0 -0.41813,0.11536 -0.60396,0.18458c-0.27875,0.11537 -0.55749,0.23073 -0.85947,0.25381c-0.1626,0 -0.16261,0.23073 -0.02324,0.23073z" fill="#1e194a" fill-opacity="1"></path></g></g><g><title>Group</title><g><title>Vector</title><path d="M133.74919,38.65025c0.34844,0 0.67365,-0.06922 1.02209,-0.09229c0.3252,-0.02307 0.67364,-0.09229 0.99885,0c0.13937,0.04615 0.20905,-0.18459 0.06968,-0.23073c-0.62719,-0.20766 -1.4402,0.06922 -2.06738,0.06922c-0.18583,0.02307 -0.18584,0.25381 -0.02324,0.25381z" fill="#1e194a" fill-opacity="1"></path></g></g><g><title>Group</title><g><title>Vector</title><path d="M133.94221,39.47555c0.67365,-0.18458 1.39376,-0.06922 2.09064,-0.06922c0.13938,0 0.13938,-0.23073 0,-0.23073c-0.72011,0 -1.46344,-0.11536 -2.16032,0.06922c-0.13938,0.04615 -0.09292,0.27687 0.06969,0.23073z" fill="#1e194a" fill-opacity="1"></path></g></g><g><title>Group</title><g><title>Vector</title><path d="M134.03565,40.33436c0.60394,-0.13844 1.34726,0.20766 1.88151,-0.16151c0.11615,-0.09229 0,-0.27688 -0.11614,-0.20766c-0.4878,0.32302 -1.27756,0 -1.83505,0.13844c-0.13937,0.04615 -0.06969,0.27688 0.06968,0.23073z" fill="#1e194a" fill-opacity="1"></path></g></g><g><title>Group</title><g><title>Vector</title><path d="M121.29868,54.36114c-0.09292,1.45362 0.06969,2.93033 0.06969,4.38396c0,1.61514 -0.02323,3.23028 0.06969,4.82235c0.09292,1.54595 0.20907,3.09185 0.18584,4.66085c-0.02323,1.5921 0.02323,3.1841 0.16261,4.7762c0.06969,0 0.16261,0 0.2323,0c0,-0.0692 -0.02323,-0.0923 -0.06969,-0.1615c-0.09292,-0.1154 -0.25554,0.0461 -0.16261,0.1615c0.02323,0.1384 0.25553,0.1384 0.2323,0c-0.13938,-1.5229 -0.20907,-3.0226 -0.18584,-4.5685c0.02323,-1.6383 -0.06969,-3.2303 -0.18584,-4.86855c-0.09292,-1.54592 -0.06969,-3.06877 -0.06969,-4.61469c0,-1.52285 -0.16262,-3.06878 -0.0697,-4.59162c0.04646,-0.16151 -0.18583,-0.16151 -0.20906,0z" fill="#1e194a" fill-opacity="1"></path></g></g><g><title>Group</title><g><title>Vector</title><path d="M63.02195,56.76159c0.99885,0 2.02092,-0.06922 3.01977,-0.02308c0.5575,0.02308 1.11499,0.04615 1.67249,-0.04615c0.13937,-0.02307 0.09292,-0.25382 -0.06969,-0.23074c-0.62718,0.11537 -1.20791,0.04615 -1.83509,0.02308c-0.92916,-0.04615 -1.85832,0.02307 -2.78748,0.02307c-0.1626,0.02307 -0.1626,0.25382 0,0.25382z" fill="#1e194a" fill-opacity="1"></path></g></g><g><title>Group</title><g><title>Vector</title><path d="M45.57906,54.1784c0.11614,-0.06922 0.41812,-0.02308 0.53427,-0.02308c0.30197,0 0.58072,-0.02307 0.8827,-0.04615c0.67364,-0.04615 1.34728,-0.06922 2.04415,-0.06922c1.30082,0 2.57841,-0.04615 3.856,-0.04615c1.2776,-0.02307 2.57842,0 3.85602,0.04615c1.0685,0.04615 2.2997,-0.13844 3.2985,0.20767c0.1394,0.04615 0.2091,-0.18459 0.0697,-0.23074c-0.9989,-0.34611 -2.1138,-0.16152 -3.1359,-0.20767c-1.3705,-0.06922 -2.71781,-0.06922 -4.08832,-0.06922c-1.3705,0 -2.71778,0.06922 -4.08829,0.04615c-0.67364,0 -1.34728,0.04614 -2.02092,0.06922c-0.34844,0.02307 -1.02208,-0.11537 -1.32405,0.0923c-0.13937,0.11537 -0.02323,0.32303 0.11615,0.23074z" fill="#1e194a" fill-opacity="1"></path></g></g><g><title>Group</title><g><title>Vector</title><path d="M60.32609,54.31261c0.20907,0.66913 0.13938,1.45363 0.23229,2.14583c0.09292,0.7845 0.13937,1.569 0.1626,2.37657c0.02323,0.73835 0,1.45363 0.02323,2.19198c0,0.3461 0.02323,0.6922 0.02323,1.06138c-0.02323,0.32303 0.04646,0.73835 -0.11615,1.0383c-0.06969,0.13845 0.11615,0.25381 0.20906,0.11537c0.2323,-0.43839 0.16261,-1.10753 0.16261,-1.569c0.02323,-0.85372 -0.04646,-1.7305 -0.04646,-2.58422c0,-0.87679 -0.04646,-1.73051 -0.16261,-2.58423c-0.09292,-0.71528 -0.02323,-1.52285 -0.2323,-2.21505c-0.06969,-0.18459 -0.30198,-0.13844 -0.25552,0.02307z" fill="#1e194a" fill-opacity="1"></path></g></g><g><title>Group</title><g><title>Vector</title><path d="M60.88692,53.96918c0.67364,-0.32303 1.32405,-0.6922 2.04415,-0.92293c0.23229,-0.06922 0.83625,-0.18458 0.95239,-0.43839c0.06969,-0.13844 -0.13937,-0.25381 -0.20906,-0.11537c-0.11614,0.25381 -0.95239,0.36917 -1.20791,0.46146c-0.58073,0.18459 -1.16145,0.55376 -1.71895,0.83064c-0.11615,0.04614 0,0.23073 0.13938,0.18458z" fill="#1e194a" fill-opacity="1"></path></g></g><g><title>Vector</title><path d="M53.16818,81.7252c1.928,-0.0462 33.49622,0.8998 34.91312,0.7383c1.417,-0.1615 2.6249,-18.75874 1.9281,-18.80489c-0.6737,-0.04615 -36.79477,-0.85372 -37.23612,-0.46147c-0.44135,0.39225 -0.44135,17.16666 0.39489,18.52806z" fill="#1e194a" fill-opacity="1"></path></g><g><title>Vector</title><path d="M46.68697,85.3295c0.76656,-0.0462 6.89902,-3.3226 7.01516,-4.2455c0.11615,-0.8999 -0.34843,-17.95122 -0.62718,-18.45883c-0.27875,-0.50762 -5.11038,-0.04614 -5.80725,1.08445c-0.67364,1.1306 -1.9977,2.19198 -1.9977,4.01479c0,1.79973 1.41697,17.60509 1.41697,17.60509z" fill="#53959c" fill-opacity="1"></path></g><g><title>Vector</title><path d="M52.82244,70.25551c-1.85832,0.06922 -1.97446,-1.49977 -1.78863,-2.56115c0.1626,-1.06138 0.81301,-1.68436 3.06623,-1.68436c2.25321,0 32.96196,0.36917 35.74936,0.32303c0.0465,2.63037 0.4646,3.62253 -0.511,4.24551c-0.9988,0.62298 -30.70871,0.25381 -36.51596,-0.32303z" fill="#cbd7f2" fill-opacity="1"></path></g><g><title>Vector</title><path d="M85.1356,70.88237c-1.1614,-1.10753 -1.3705,-3.89943 0.5575,-4.56856c-6.1324,-0.02307 -21.53324,-0.18459 -28.19996,-0.25381c-1.48665,0.83065 -1.34728,3.83021 0.27875,4.47627c0.95239,0.04615 1.9977,0.06922 3.11269,0.11537c6.89902,-0.02308 24.06522,0.23073 24.25102,0.23073z" fill="#ea575f" fill-opacity="1"></path></g><g><title>Vector</title><path d="M83.365,72.90766c0.0697,3.27643 -7.9443,10.06004 -8.9896,12.13664c-17.77017,0.623 -27.7354,-0.7384 -27.7354,-0.7384c0.76656,-2.81492 7.52618,-7.31424 10.3137,-11.6059c4.0883,0.25381 26.4113,0.20766 26.4113,0.20766z" fill="#ea575f" fill-opacity="1"></path></g><g><title>Group</title><g><title>Vector</title><path d="M48.97035,83.5716c0.92915,-1.06137 1.83508,-1.98431 2.9733,-2.83803c1.02207,-0.76143 1.97446,-1.54592 2.90362,-2.39964c0.97561,-0.8768 1.78862,-1.89203 2.64809,-2.86112c0.37167,-0.41532 0.65041,-0.94601 1.02208,-1.36133c0.23228,-0.25381 0.60396,-0.50762 0.67366,-0.8768c0.0232,-0.13844 -0.1859,-0.20766 -0.2323,-0.06922c-0.0697,0.41532 -0.58074,0.69221 -0.81302,1.03831c-0.37167,0.55376 -0.78979,1.06138 -1.23114,1.54592c-0.81301,0.94602 -1.62602,1.84588 -2.55518,2.67653c-0.97562,0.87679 -1.99769,1.68437 -3.04299,2.46887c-0.97562,0.73835 -1.71894,1.59207 -2.50873,2.49191c-0.09292,0.1385 0.06969,0.3 0.1626,0.1846z" fill="#1e194a" fill-opacity="1"></path></g></g><g><title>Group</title><g><title>Vector</title><path d="M72.33435,84.2169c0.65041,-1.03827 1.69572,-1.91507 2.60165,-2.74571c1.02208,-0.94602 2.11384,-1.82281 3.22883,-2.65345c0.95239,-0.71528 1.78864,-1.45364 2.43905,-2.4458c0.3252,-0.48454 0.58072,-0.99216 0.85947,-1.49977c0.25552,-0.4384 0.60395,-0.89987 0.72005,-1.40749c0.0233,-0.13844 -0.18578,-0.20766 -0.23224,-0.06922c-0.11615,0.53069 -0.51104,1.03831 -0.78979,1.49978c-0.30197,0.50762 -0.55749,1.01523 -0.8827,1.49978c-0.76655,1.15367 -1.85832,1.89202 -2.92685,2.72267c-0.99885,0.7845 -1.97447,1.61515 -2.90363,2.46887c-0.81301,0.76142 -1.74217,1.54592 -2.3229,2.51504c-0.06969,0.1384 0.11614,0.2538 0.20906,0.1153z" fill="#1e194a" fill-opacity="1"></path></g></g><g><title>Group</title><g><title>Vector</title><path d="M57.42503,76.99999c0.13937,-0.11537 0.32521,-0.16152 0.48781,-0.25381c0.20906,-0.11537 0.39489,-0.27688 0.58073,-0.4384c0.44135,-0.39224 0.78979,-0.85371 1.13822,-1.31518c0.69687,-0.94601 1.85832,-2.19198 3.18237,-1.98432c-0.02322,-0.04615 -0.04645,-0.09229 -0.06968,-0.13844c-0.09292,0.36917 -0.41812,0.62299 -0.67364,0.89987c-0.27875,0.27688 -0.51104,0.62298 -0.78979,0.92294c-0.67364,0.6922 -1.37051,1.24596 -2.27644,1.56899c-0.13938,0.04614 -0.09292,0.2538 0.06968,0.23073c0.78979,-0.23073 1.4402,-0.69221 2.13707,-1.08445c0.97562,-0.55377 2.04415,-0.66913 3.08946,-0.25381c0,-0.06922 -0.02322,-0.13844 -0.02322,-0.20766c-0.74333,0.41532 -1.37052,1.01523 -2.13708,1.3844c-0.44135,0.20766 -0.95239,0.36918 -1.41697,0.46147c-0.60395,0.13844 -1.25436,0.02308 -1.88155,0.06923c-0.13937,0 -0.1626,0.18458 -0.02323,0.23073c0.67364,0.23073 1.37052,0.06922 2.06739,0.11537c0.76656,0.04614 1.44019,0.53068 2.16029,0.76142c0.02323,-0.06922 0.04647,-0.13844 0.0697,-0.23074c-0.99885,-0.18458 -1.97448,0.23074 -2.99655,0.06923c-0.97562,-0.16152 -1.88155,-0.69221 -2.83394,-0.94601c-0.13937,-0.04615 -0.20906,0.18458 -0.06969,0.23073c0.97562,0.25381 1.85832,0.73835 2.83394,0.94601c0.99885,0.20766 1.97447,-0.25381 2.99654,-0.06922c0.13938,0.02307 0.20907,-0.18459 0.0697,-0.23074c-0.69688,-0.20766 -1.30083,-0.5999 -2.02093,-0.73834c-0.74333,-0.13844 -1.48666,0.09229 -2.22999,-0.13844c0,0.06922 -0.02323,0.16151 -0.02323,0.23073c0.58073,-0.04615 1.13823,0 1.71895,-0.04615c0.46458,-0.04615 0.90593,-0.23074 1.32405,-0.36918c0.92916,-0.32302 1.64927,-1.06137 2.50874,-1.54591c0.09292,-0.04615 0.06969,-0.18459 -0.02323,-0.20766c-0.90593,-0.36918 -1.85832,-0.34611 -2.76425,0.02307c-0.90593,0.36917 -1.64926,1.0383 -2.60165,1.31519c0.02322,0.06922 0.04645,0.13844 0.06968,0.23073c0.88271,-0.32303 1.60281,-0.85372 2.25322,-1.49977c0.37166,-0.36918 0.67364,-0.76142 1.02207,-1.1306c0.25552,-0.27688 0.53428,-0.53069 0.65042,-0.89986c0.02323,-0.04615 -0.02323,-0.13844 -0.06969,-0.13844c-1.02208,-0.16151 -2.06738,0.53069 -2.76425,1.22289c-0.46458,0.48454 -0.81302,1.06138 -1.23114,1.56899c-0.27875,0.32303 -0.60396,0.62298 -0.95239,0.87679c-0.20906,0.16151 -0.46458,0.20766 -0.67364,0.39225c-0.1626,0.04615 0,0.20766 0.11615,0.11537z" fill="#1e194a" fill-opacity="1"></path></g></g><g><title>Group</title><g><title>Vector</title><path d="M75.74778,73.13954c-0.46458,-0.09229 -0.95239,-0.18459 -1.41697,-0.11537c-0.62718,0.09229 -1.16145,0.41532 -1.74217,0.64606c-0.09292,0.04615 -0.11614,0.20766 0,0.23073c1.09176,0.16151 2.16029,0.36918 3.25205,0.39225c0,-0.06922 0,-0.16151 0,-0.23073c-1.37051,0.02307 -1.90477,1.19982 -2.55518,2.19198c-0.04646,0.09229 0.04646,0.20766 0.13938,0.16152c0.5575,-0.16152 1.16145,-0.23074 1.67248,-0.48455c0.58073,-0.27688 1.04531,-0.62299 1.57958,-0.99216c-0.04646,-0.04615 -0.11615,-0.11537 -0.16261,-0.16151c-0.55749,0.89986 -1.46342,1.4767 -2.34612,2.03046c-0.09292,0.04615 -0.06969,0.18459 0.02323,0.20766c0.99884,0.27689 1.928,-0.39224 2.6481,-0.99215c0.90593,-0.76143 1.53311,-1.6613 1.88154,-2.7919c0.04646,-0.13844 -0.18583,-0.20766 -0.23228,-0.06922c-0.32521,0.99216 -0.81302,1.77666 -1.6028,2.49194c-0.67364,0.62298 -1.67249,1.40748 -2.6481,1.1306c0,0.06922 0.02323,0.13845 0.02323,0.20767c0.90593,-0.57684 1.85831,-1.17676 2.43904,-2.12277c0.06969,-0.09229 -0.06969,-0.23074 -0.16261,-0.16152c-0.46458,0.32303 -0.8827,0.66914 -1.39374,0.89987c-0.58072,0.27689 -1.18468,0.36918 -1.78863,0.55377c0.04646,0.04614 0.09292,0.11536 0.13938,0.16151c0.60395,-0.92294 1.09176,-2.07661 2.36935,-2.09969c0.13938,0 0.13938,-0.23073 0,-0.23073c-1.06853,-0.02307 -2.13706,-0.20766 -3.18237,-0.36918c0,0.06922 0,0.13844 0,0.23074c0.39489,-0.16152 0.78979,-0.34611 1.18468,-0.50762c0.58073,-0.23074 1.25437,-0.13844 1.85832,-0.02308c0.09291,0.06922 0.1626,-0.16151 0.02323,-0.18458z" fill="#1e194a" fill-opacity="1"></path></g></g><g><title>Group</title><g><title>Vector</title><path d="M63.13135,79.26067c-1.13822,-0.64606 -2.36935,-0.64605 -3.62372,-0.29995c-0.69687,0.20766 -1.39374,0.48454 -2.13707,0.59991c-0.60395,0.09229 -1.2079,0.1846 -1.74217,0.5307c-0.06969,0.04614 -0.06969,0.16151 0,0.20766c1.20791,0.64606 2.69456,0.3461 3.97216,0.16152c-0.02323,-0.06923 -0.04647,-0.13845 -0.06969,-0.23074c-1.53312,0.39225 -3.06623,0.96908 -3.97216,2.33042c-0.04646,0.06922 0,0.16151 0.06969,0.16151c0.85947,0.13844 1.57957,-0.11536 2.34613,-0.43839c0.39489,-0.16152 0.78978,-0.29996 1.16145,-0.48455c0.44135,-0.20766 0.83624,-0.48454 1.30082,-0.64605c-0.04646,-0.06922 -0.06968,-0.13845 -0.11614,-0.18459c-0.78979,0.85372 -1.115,2.2612 -1.30083,3.36873c-0.02323,0.09229 0.06969,0.18459 0.1626,0.13844c1.18468,-0.64606 2.04415,-1.73051 2.81071,-2.81497c0.44135,-0.62298 1.41697,-1.59207 0.97562,-2.42271c-0.06969,-0.13844 -0.27875,-0.02307 -0.20906,0.11537c0.37166,0.71528 -0.65042,1.73052 -1.02208,2.26121c-0.74333,1.03831 -1.55634,2.03046 -2.67133,2.65345c0.04646,0.04615 0.11614,0.09229 0.1626,0.13843c0.18583,-1.06138 0.48781,-2.44578 1.23114,-3.25335c0.06968,-0.09229 0,-0.23074 -0.11615,-0.18459c-0.30198,0.09229 -0.58072,0.25381 -0.85947,0.41532c-0.39489,0.23074 -0.81301,0.36918 -1.23114,0.55377c-0.85947,0.3461 -1.64925,0.76142 -2.60164,0.59991c0.02323,0.04614 0.04646,0.11536 0.06968,0.16151c0.8827,-1.29212 2.36936,-1.84588 3.83279,-2.21506c0.13937,-0.04614 0.09291,-0.25381 -0.06969,-0.23073c-1.20791,0.16151 -2.67133,0.48455 -3.78632,-0.13844c0,0.06922 0,0.13844 0,0.20766c0.51104,-0.32303 1.09176,-0.41532 1.67248,-0.50762c0.60396,-0.09229 1.16145,-0.32303 1.74218,-0.48454c1.30082,-0.39225 2.57841,-0.55376 3.80955,0.16152c0.20906,0.04615 0.3252,-0.16151 0.20906,-0.23074z" fill="#1e194a" fill-opacity="1"></path></g></g><g><title>Group</title><g><title>Vector</title><path d="M64.18364,84.05203c-0.53427,-0.02308 -0.41812,-1.2229 -0.39489,-1.54592c0.04646,-0.80758 0.51104,-1.56901 0.90593,-2.26121c-0.06969,0 -0.13937,-0.02307 -0.20906,-0.02307c0.09292,0.53069 0.13937,1.06138 0.18583,1.59207c0.02323,0.4384 -0.09292,0.87679 -0.11615,1.31519c0,0.11536 0.16261,0.13844 0.20906,0.06922c0.41813,-0.57684 0.85948,-1.10753 1.2776,-1.6613c0.46458,-0.59991 1.09176,-0.80757 1.78863,-1.01523c-0.04645,-0.04615 -0.09291,-0.0923 -0.13937,-0.13844c-0.44135,1.10753 -1.41697,1.84588 -2.36935,2.49194c-0.11615,0.06922 -0.04646,0.23074 0.09291,0.20766c0.67364,-0.16151 1.30082,-0.39225 1.90477,-0.71528c0.60396,-0.29995 1.09177,-1.03831 1.81187,-1.06138c-0.04646,-0.04615 -0.06969,-0.0923 -0.11615,-0.13844c-0.1626,0.87679 -0.51104,1.569 -1.23114,2.12276c-0.76655,0.57684 -1.74217,0.94602 -2.67133,1.15368c0.04646,0.04615 0.09292,0.11537 0.13937,0.16152l-0.02323,0.02306c0.13938,-0.02307 0.13938,-0.2538 0,-0.23073c-0.09291,0 -0.11614,0.02308 -0.18582,0.0923c-0.06969,0.09229 0.04645,0.18458 0.13937,0.16151c1.02208,-0.23074 2.02092,-0.66913 2.85716,-1.29212c0.7201,-0.53069 1.04531,-1.29211 1.20791,-2.14583c0.02323,-0.06922 -0.02322,-0.13845 -0.11614,-0.13845c-0.51104,0.02307 -0.92916,0.34611 -1.32406,0.64607c-0.72009,0.57684 -1.57957,0.89986 -2.46227,1.1306c0.02323,0.06922 0.06969,0.13844 0.09292,0.20766c1.02208,-0.69221 1.99769,-1.45363 2.4855,-2.63038c0.02323,-0.09229 -0.06969,-0.16152 -0.13938,-0.13844c-0.60395,0.18459 -1.2079,0.36918 -1.69571,0.80757c-0.27875,0.27688 -0.51104,0.66913 -0.74333,0.96909c-0.25552,0.3461 -0.53427,0.66913 -0.78979,1.03831c0.06969,0.02307 0.13938,0.04614 0.20906,0.06922c0.02323,-0.53069 0.13938,-0.99217 0.09293,-1.52286c-0.02323,-0.48454 -0.09292,-0.96908 -0.18584,-1.43055c-0.02323,-0.09229 -0.1626,-0.11537 -0.20906,-0.02307c-0.51104,0.89987 -0.95239,1.75359 -0.95239,2.7919c0,0.46147 0.02323,1.33826 0.65042,1.36134c0.18583,-0.06922 0.18583,-0.29996 0.02322,-0.29996z" fill="#1e194a" fill-opacity="1"></path></g></g><g><title>Vector</title><path d="M51.34084,69.89c-1.55634,0.06922 -1.27759,2.93032 0.69687,2.81496c1.97446,-0.11537 33.47289,0.73835 36.79469,0.2538c0.2323,-2.05353 0.2323,-2.56114 0.2323,-2.56114c-2.0209,0 -18.0489,-0.11537 -21.6959,-0.11537c-3.6701,-0.02307 -15.05234,-0.32303 -16.02796,-0.39225z" fill="#cbd7f2" fill-opacity="1"></path></g><g><title>Vector</title><path d="M49.17546,60.80296c2.57842,-0.16151 18.51354,0.32303 25.04084,0.32303c6.5273,0 21.6726,0.32303 22.5089,0.39225c0.6736,0.16151 0.3484,2.44579 0.3484,5.07617c0,2.63037 0.3717,9.41399 0.2323,11.67519c-0.1626,2.2612 -0.1626,4.0609 -0.1626,4.2916c0,0.2308 0.1626,0.5307 -1.0685,1.4306c-1.2079,0.8999 -4.9943,3.0919 -5.4588,3.2303c-0.4646,0.1615 -3.1127,0 -3.4147,0c-0.302,0 0.0697,-17.16668 0.1626,-17.9281c0.0697,-0.76143 2.1835,-5.05309 2.1835,-5.42227c0,-0.36917 -40.30225,-0.66913 -40.69714,-0.53069c-0.37167,0.16152 -2.8804,3.62254 -2.8804,4.13015c0,0.53069 0.97562,17.62811 0.67365,17.83581c-0.30198,0.2307 -3.64695,0 -3.64695,-0.3c0,-0.2999 -0.76656,-17.0974 -0.76656,-17.46658c0,-0.36918 1.4402,-3.39181 1.81186,-3.76098c0.44135,-0.3461 4.52965,-2.83804 5.1336,-2.97648z" fill="#78bac2" fill-opacity="1"></path></g><g><title>Vector</title><path d="M40.16004,80.43642c-1.18468,1.06138 -5.45881,5.03002 -5.92339,5.76837c-0.46458,0.73835 -1.48665,3.50717 -1.48665,3.94557c0,0.46144 0.62718,10.33694 0.55749,11.00604c-0.04646,0.3923 2.83394,0.5538 3.57727,0.3923c0.74332,-0.1616 6.43444,-3.9456 7.10804,-4.684c0.6737,-0.7383 0.1162,-15.75916 0,-16.1514c-0.0929,-0.39225 -3.32172,-0.3461 -3.83276,-0.27688z" fill="#aabbe3" fill-opacity="1"></path></g><g><title>Vector</title><path d="M42.95106,94.6c-1.25437,0 -3.01977,0 -3.25206,0.16152c-0.23229,0.16152 -0.97562,1.59206 0.67364,1.63821c1.64926,0.04615 32.75286,1.08446 33.19426,1.08446c0.4645,0 0.9756,-1.68437 0.0464,-1.79973c-0.8827,-0.13844 -30.66224,-1.08446 -30.66224,-1.08446v0z" fill="#cbd7f2" fill-opacity="1"></path></g><g><title>Group</title><g><title>Vector</title><path d="M44.53453,63.87156c0.97562,0 1.95124,0.16151 2.92686,-0.06921c0.13938,-0.02307 0.09292,-0.2538 -0.06969,-0.23073c-0.95239,0.20765 -1.90478,0.06922 -2.85717,0.04615c-0.13937,0.02307 -0.13937,0.25379 0,0.25379z" fill="#1e194a" fill-opacity="1"></path></g></g><g><title>Group</title><g><title>Vector</title><path d="M42.94906,67.55818c0.39489,-0.16151 0.90593,-0.02307 1.32405,0c0.46457,0.02307 0.88269,0.16151 1.34727,0c0.13937,-0.04615 0.06969,-0.27688 -0.06969,-0.23073c-0.85946,0.27688 -1.88154,-0.34609 -2.71777,0.02307c-0.13937,0.06922 -0.02323,0.2538 0.11614,0.20766z" fill="#1e194a" fill-opacity="1"></path></g></g><g><title>Group</title><g><title>Vector</title><path d="M90.12453,64.48684c0.69687,-0.02307 1.34727,0.20765 2.04414,0.16151c0.13937,0 0.13937,-0.23072 0,-0.23072c-0.69687,0.02307 -1.34727,-0.20765 -2.04414,-0.16151c-0.13937,0.02307 -0.13937,0.25379 0,0.23072z" fill="#1e194a" fill-opacity="1"></path></g></g><g><title>Group</title><g><title>Vector</title><path d="M87.71396,69.29315c0.09292,0.18458 0.60396,0.13844 0.76656,0.16151c0.41813,0.02307 0.88272,-0.02308 1.30084,0.06922c0.13938,0.02307 0.20906,-0.18458 0.06969,-0.23073c-0.30198,-0.06922 -0.62719,-0.04614 -0.95239,-0.06922c-0.20907,0 -0.41813,-0.02307 -0.6272,-0.02307c-0.09292,0 -0.18584,-0.02307 -0.25552,-0.02307c-0.06969,0 -0.09291,-0.04615 -0.06968,0c-0.09292,-0.11536 -0.30198,0 -0.23229,0.11536z" fill="#1e194a" fill-opacity="1"></path></g></g><g><title>Group</title><g><title>Vector</title><path d="M96.58838,61.77003c-0.90594,0.80757 -1.81186,1.56899 -2.85717,2.1689c-0.81301,0.46147 -1.41697,0.96909 -1.85832,1.79973c-0.20906,0.39225 -0.34844,0.83064 -0.51104,1.24597c-0.23229,0.57683 -0.51104,1.08445 -0.81302,1.61514c-0.51104,0.87679 -0.7201,1.75359 -0.81301,2.76882c-0.11615,1.17671 -0.06969,2.37661 -0.09292,3.57641c-0.02323,1.269 -0.02322,2.515 0.06969,3.784c0.06969,1.2691 0.18583,2.5381 0.1626,3.8302c-0.02323,1.3383 -0.11614,2.6766 -0.23229,4.0148c-0.02323,0.1385 0.20906,0.1385 0.23229,0c0.20906,-2.3996 0.27875,-4.7762 0.11615,-7.1758c-0.1626,-2.3997 -0.1626,-4.7993 -0.06968,-7.199c0.04646,-1.17671 0.18583,-2.28424 0.74333,-3.32254c0.23229,-0.4384 0.51104,-0.83065 0.7201,-1.29212c0.23229,-0.50762 0.41813,-1.06138 0.65042,-1.56899c0.44135,-1.01524 1.2079,-1.52285 2.13706,-2.05354c0.97562,-0.55377 1.78864,-1.29212 2.60165,-2.05355c0.09292,-0.09229 -0.06969,-0.2538 -0.18583,-0.13843z" fill="#1e194a" fill-opacity="1"></path></g></g><g><title>Group</title><g><title>Vector</title><path d="M43.41381,80.64669c-1.83508,2.56116 -5.59817,3.66869 -6.38795,6.9682c-0.23229,1.03831 -0.7201,1.98432 -0.92916,3.02261c-0.23229,1.0845 -0.02323,2.2382 0.04646,3.3226c0.09292,1.246 0.23229,2.4919 0.30197,3.7148c0.04646,1.2691 0,2.5381 -0.02323,3.8072c0.06969,0 0.1626,-0.0231 0.23229,-0.0231c-0.02323,-0.0462 -0.04646,-0.1154 -0.04646,-0.1615c-0.04646,-0.1385 -0.27875,-0.0692 -0.23229,0.0692c0.02323,0.0461 0.04646,0.1154 0.04646,0.1615c0.04646,0.1154 0.23229,0.0923 0.23229,-0.0231c0.04646,-1.1998 0.06969,-2.3765 0.04646,-3.5764c-0.02323,-1.1767 -0.18583,-2.3534 -0.27875,-3.5071c-0.09292,-1.1537 -0.27875,-2.3535 -0.11614,-3.5072c0.1626,-1.03831 0.62718,-2.00739 0.90593,-2.99955c0.23229,-0.85372 0.53426,-1.569 1.09176,-2.2612c0.51103,-0.64606 1.16145,-1.17676 1.81186,-1.68437c1.23113,-0.96909 2.55518,-1.86895 3.48433,-3.16107c0.09292,-0.16151 -0.09291,-0.27688 -0.18583,-0.16152z" fill="#1e194a" fill-opacity="1"></path></g></g><g><title>Group</title><g><title>Vector</title><path d="M32.89502,90.35542c0.58072,-0.04615 1.11499,0.02307 1.67248,0.16151c0.34844,0.09229 0.7201,0.20766 1.06853,0.11537c0.13937,-0.04615 0.09292,-0.25381 -0.06969,-0.23073c-0.37166,0.09229 -0.81301,-0.09229 -1.18467,-0.16151c-0.51103,-0.09229 -0.99884,-0.16151 -1.50988,-0.11537c-0.13937,0.02307 -0.13937,0.25381 0.02323,0.23073z" fill="#1e194a" fill-opacity="1"></path></g></g><g><title>Group</title><g><title>Vector</title><path d="M34.82195,86.17686c0.78978,-0.04615 1.55634,0.20767 2.32289,0.16152c0.13937,0 0.13937,-0.23074 0,-0.23074c-0.78978,0.02307 -1.55633,-0.20767 -2.32289,-0.16152c-0.1626,0.02307 -0.1626,0.25381 0,0.23074z" fill="#1e194a" fill-opacity="1"></path></g></g><g><title>Vector</title><path d="M43.29539,85.48283c-0.8827,-0.7845 -0.76656,-1.89202 0.46458,-1.98431c1.20791,-0.11537 11.77713,0.3461 14.70393,0.3461c2.9269,0 18.6064,0.36917 19.3265,0.46147c0.2555,0.87679 0.2555,1.96123 -0.5575,2.07661c-0.8362,0.06922 -31.49847,-0.78449 -33.93751,-0.89986z" fill="#d7dff2" fill-opacity="1"></path></g><g><title>Vector</title><path d="M41.46222,85.32083c2.90362,-0.23073 33.82138,0.39225 35.19188,0.50762c1.3705,0.11537 0.4646,7.45273 -1.928,7.40658c-2.3926,-0.04615 -30.40672,-1.24597 -33.19419,-1.17675c-2.78748,0.04615 -2.74102,-6.43749 -0.06969,-6.73745z" fill="#cbd7f2" fill-opacity="1"></path></g><g><title>Vector</title><path d="M45.34581,85.16c-1.69572,0.3461 -3.41466,1.68436 -3.13591,5.69914c0.27875,4.01479 0.23229,8.12186 0.34843,8.58336c0.11615,0.4614 1.92801,0.4614 4.43674,0.3922c2.50873,-0.0461 21.13833,0.4615 22.23013,0.5538c1.0918,0.1154 1.1847,0.2307 1.1382,-0.8999c-0.0464,-1.1306 -0.3484,-8.42179 -0.2323,-9.48317c0.1162,-1.06138 0.9756,-4.29167 2.7875,-4.33782c-5.1801,-0.27688 -27.57279,-0.50761 -27.57279,-0.50761z" fill="#ea575f" fill-opacity="1"></path></g><g><title>Group</title><g><title>Vector</title><path d="M46.53136,85.25607c-0.99884,0.36918 -1.95123,0.92294 -2.53195,1.82281c-0.60395,0.89987 -0.53427,2.14584 -0.46458,3.18415c0.11614,1.569 0.25552,3.11493 0.30198,4.68393c0.06969,1.47674 -0.13937,2.97644 0.06969,4.45324c0.02323,0.1384 0.23229,0.0922 0.23229,-0.0693c-0.18583,-1.3844 0,-2.7919 -0.04646,-4.17628c-0.04646,-1.33827 -0.1626,-2.67653 -0.25552,-4.0148c-0.06969,-1.1306 -0.23229,-2.30736 0.11615,-3.39181c0.37166,-1.15368 1.6028,-1.86896 2.67133,-2.26121c0.11614,-0.04615 0.06969,-0.27688 -0.09292,-0.23074z" fill="#1e194a" fill-opacity="1"></path></g></g><g><title>Group</title><g><title>Vector</title><path d="M70.73263,85.69325c-1.69571,1.24596 -1.97445,3.23028 -1.92799,5.19153c0.02323,1.40748 0.04645,2.79189 0.06968,4.19938c0,0.71524 0.06968,1.43054 0.06968,2.12274c0,0.623 -0.06968,1.246 -0.04645,1.869c0,0.1384 0.23229,0.1384 0.23229,0c-0.02323,-0.4846 0.02322,-0.9922 0.04645,-1.4767c0.02323,-0.623 -0.02322,-1.2229 -0.04645,-1.8459c-0.04646,-1.26905 0,-2.5381 -0.04646,-3.80714c-0.04646,-2.19198 -0.20906,-4.59162 1.7654,-6.06832c0.11614,-0.06922 0,-0.27689 -0.11615,-0.18459z" fill="#1e194a" fill-opacity="1"></path></g></g><g><title>Group</title><g><title>Vector</title><path d="M50.08497,85.20608c-0.97562,0.25381 -1.55635,1.10754 -2.41582,1.56901c-0.09292,0.04615 -0.06969,0.18459 0.02323,0.20766c1.39374,0.20766 2.69456,-0.27688 4.04184,-0.59991c-0.02323,-0.06922 -0.06968,-0.13844 -0.09291,-0.20766c-0.76656,0.46147 -1.02208,1.24597 -1.16145,2.05354c-0.02323,0.0923 0.06968,0.18459 0.1626,0.13845c0.85947,-0.48455 1.6028,-1.15368 2.41581,-1.68437c-0.04646,-0.02308 -0.11614,-0.04615 -0.1626,-0.06923c0.13937,0.85373 -0.58072,1.52286 -1.18468,2.03048c-0.09291,0.0923 0,0.20766 0.11615,0.18459c1.74217,-0.23074 2.74102,-1.68437 3.2056,-3.25338c0.04645,-0.13844 -0.18584,-0.20766 -0.23229,-0.06922c-0.44135,1.49979 -1.37051,2.86113 -3.043,3.09186c0.04646,0.06922 0.06969,0.13844 0.11615,0.18459c0.67364,-0.57684 1.39373,-1.29212 1.25436,-2.26121c0,-0.06922 -0.11614,-0.11536 -0.1626,-0.06922c-0.81302,0.55377 -1.55634,1.19983 -2.41581,1.68437c0.04645,0.04615 0.11614,0.0923 0.1626,0.13844c0.13937,-0.76142 0.3252,-1.49978 1.0453,-1.91511c0.11615,-0.06922 0.04646,-0.23073 -0.09292,-0.20766c-1.30082,0.32303 -2.55518,0.80758 -3.92569,0.59992c0,0.06922 0.02323,0.13844 0.02323,0.20766c0.83624,-0.4384 1.41696,-1.29212 2.36935,-1.54593c0.13938,-0.02307 0.09292,-0.25381 -0.04645,-0.20767z" fill="#1e194a" fill-opacity="1"></path></g></g><g><title>Group</title><g><title>Vector</title><path d="M60.83346,85.57511c-0.60396,0.27688 -1.13822,0.66913 -1.34728,1.31519c-0.02323,0.04614 0.02323,0.13844 0.06968,0.13844c0.46458,0.09229 0.83624,-0.06923 1.25437,-0.20767c0.60395,-0.20766 1.2776,-0.23073 1.90478,-0.18458c-0.02323,-0.06922 -0.04646,-0.13844 -0.09292,-0.20766c-1.18468,0.99216 -0.67364,3.11491 0.02323,4.24551c0.04646,0.06922 0.16261,0.06922 0.20906,0c0.41813,-0.64606 0.58073,-1.40748 0.95239,-2.07661c0.34844,-0.57684 0.69687,-1.10752 0.48781,-1.79973c-0.04646,-0.13844 -0.23229,-0.09229 -0.23229,0.06922c0.09291,0.73835 0.39489,1.40748 0.48781,2.14583c0.09291,0.73835 -0.09291,1.49978 -0.04646,2.2612c0,0.09229 0.09292,0.13844 0.18583,0.09229c1.76541,-0.80757 1.41697,-3.16106 0.95239,-4.6839c-0.04645,0.04614 -0.11614,0.09229 -0.1626,0.13843c0.99885,0.50762 2.02093,1.31519 3.2056,1.29212c0.11615,0 0.16261,-0.16152 0.06969,-0.20766c-0.81302,-0.41533 -1.0453,-1.40748 -1.71895,-1.98432c-0.11614,-0.09229 -0.27875,0.06922 -0.1626,0.16152c0.67364,0.59991 0.90593,1.59206 1.7654,2.03046c0.02323,-0.06922 0.04646,-0.13844 0.06969,-0.20766c-1.13822,0.02307 -2.11384,-0.76143 -3.08946,-1.26904c-0.09291,-0.04615 -0.20906,0.02307 -0.1626,0.13844c0.41812,1.40748 0.81302,3.6456 -0.85947,4.4301c0.06969,0.02307 0.11614,0.06922 0.18583,0.0923c-0.04646,-0.76143 0.09292,-1.49978 0.04646,-2.26121c-0.04646,-0.76142 -0.3949,-1.4767 -0.48781,-2.21505c-0.06969,0.02308 -0.13938,0.04615 -0.23229,0.06923c0.20906,0.73835 -0.32521,1.31518 -0.62719,1.91509c-0.30197,0.57684 -0.41812,1.2229 -0.78978,1.79973c0.06969,0 0.13937,0 0.20906,0c-0.65041,-1.0383 -1.16145,-3.0457 -0.04646,-3.96863c0.09292,-0.06922 0.00001,-0.18459 -0.09291,-0.20766c-0.48781,-0.02307 -0.95239,0 -1.41697,0.06922c-0.5575,0.0923 -1.115,0.4384 -1.69572,0.3461c0.02323,0.04614 0.04646,0.09229 0.06969,0.13844c0.18583,-0.59991 0.69687,-0.92294 1.23113,-1.17675c0.13938,-0.11537 0.02323,-0.29995 -0.11614,-0.23073z" fill="#1e194a" fill-opacity="1"></path></g></g><g><title>Vector</title><path d="M80.02546,81.53789c-1.18468,1.06138 -5.41235,5.46841 -5.8537,6.20676c-0.46458,0.73835 -1.09176,3.78405 -1.09176,4.24555c0,0.4614 0.39489,9.7601 0.34844,10.4523c-0.04646,0.3922 2.90362,0.6691 3.64695,0.5076c0.74333,-0.1615 4.71548,-4.061 5.41235,-4.7993c0.67367,-0.7384 0.85947,-16.15144 0.74337,-16.54369c-0.1394,-0.39225 -2.6946,-0.11537 -3.20564,-0.06922z" fill="#aabbe3" fill-opacity="1"></path></g><g><title>Group</title><g><title>Vector</title><path d="M74.49453,88.39697c0.46458,0.02307 0.90593,-0.04614 1.37051,0c0.44135,0.02307 0.85948,0.04614 1.30083,0.04614c0.13938,0 0.13938,-0.23073 0,-0.23073c-0.44135,0 -0.8827,0 -1.30083,-0.04614c-0.46458,-0.04615 -0.90593,0.02307 -1.37051,0c-0.13937,-0.02307 -0.13937,0.20765 0,0.23073z" fill="#1e194a" fill-opacity="1"></path></g></g><g><title>Group</title><g><title>Vector</title><path d="M73.58566,91.74466c0.8827,-0.23074 1.7654,0.0923 2.64811,-0.09229c0.13937,-0.02307 0.09291,-0.25382 -0.0697,-0.23074c-0.8827,0.18459 -1.7654,-0.11537 -2.6481,0.0923c-0.13937,0.04615 -0.06969,0.25382 0.06968,0.23074z" fill="#1e194a" fill-opacity="1"></path></g></g><g><title>Group</title><g><title>Vector</title><path d="M82.65214,82.23249c-0.95239,1.61515 -2.27645,3.06878 -3.48435,4.49933c-0.53427,0.62298 -1.0453,1.24597 -1.32405,2.03047c-0.32521,0.89987 -0.60396,1.79973 -0.95239,2.67652c-0.30198,0.78449 -0.32521,1.61519 -0.37166,2.44579c-0.06969,1.0383 -0.06968,2.0997 -0.06968,3.138c0,1.8228 0.02323,3.6456 0.18583,5.4684c0.02323,0.1384 0.25552,0.1384 0.23229,0c-0.13937,-1.6613 -0.18583,-3.3457 -0.18583,-5.03c0,-0.9691 0,-1.9613 0.04645,-2.9303c0.02323,-1.0153 0.02323,-2.0767 0.3949,-3.02267c0.32521,-0.83064 0.65041,-1.66129 0.90593,-2.515c0.27875,-0.96909 0.97562,-1.68437 1.62603,-2.44579c1.13822,-1.33826 2.34612,-2.6996 3.22882,-4.19938c0.04646,-0.13844 -0.1626,-0.25381 -0.23228,-0.11537z" fill="#1e194a" fill-opacity="1"></path></g></g><g><title>Group</title><g><title>Vector</title><path d="M48.27149,96.54062c0.04646,-0.18459 0.23229,-0.39225 0.30198,-0.59991c0.11614,-0.29996 0.20906,-0.62298 0.27875,-0.94601c0.16261,-0.66913 0.16261,-1.36134 0.18583,-2.05355c0.04646,-1.29212 0.41812,-3.20722 1.7654,-3.80713c-0.04646,-0.02307 -0.11615,-0.04614 -0.1626,-0.06922c0.1626,0.41532 0,0.89986 -0.06969,1.33826c-0.06969,0.46147 -0.06969,0.92295 -0.1626,1.40749c-0.20906,1.10753 -0.48781,2.09969 -1.16145,3.02263c-0.06969,0.11537 0.09291,0.23074 0.18583,0.13845c0.62718,-0.76143 0.95239,-1.6613 1.39374,-2.53809c0.5575,-1.10753 1.53311,-1.9151 2.76425,-2.16891c-0.04646,-0.04615 -0.09292,-0.11537 -0.13937,-0.16152c-0.48781,1.01524 -0.69688,2.14584 -1.37052,3.09185c-0.37166,0.53069 -0.76655,1.03831 -1.27759,1.43056c-0.44135,0.32303 -0.8827,0.59991 -1.30082,0.92294c-0.09292,0.06922 0,0.23074 0.11614,0.18459c0.69687,-0.18459 1.23114,-0.66913 1.81186,-1.08445c0.83624,-0.57684 1.88155,-0.55377 2.83394,-0.83065c-0.02323,-0.06922 -0.06969,-0.13844 -0.09292,-0.20766c-0.99884,0.4384 -1.62602,1.40748 -2.57841,1.9151c-1.09177,0.57684 -2.41582,0.64606 -3.57727,1.06138c-0.13937,0.04615 -0.06969,0.27688 0.06969,0.23074c1.13822,-0.39225 2.34613,-0.50762 3.43789,-0.99217c1.06853,-0.46147 1.69571,-1.52285 2.76425,-2.00739c0.11614,-0.04615 0.02323,-0.25381 -0.09292,-0.20766c-0.81301,0.25381 -1.67249,0.27688 -2.46227,0.62298c-0.78979,0.3461 -1.34728,1.06138 -2.20676,1.31519c0.04646,0.06922 0.06969,0.13844 0.11615,0.18459c0.46458,-0.36918 0.97562,-0.64606 1.4402,-1.01523c0.44135,-0.34611 0.74333,-0.7845 1.09176,-1.2229c0.7201,-0.99216 0.95239,-2.14584 1.48666,-3.23029c0.04645,-0.0923 -0.02324,-0.18459 -0.13938,-0.16152c-0.95239,0.20766 -1.85832,0.73835 -2.43904,1.52285c-0.74333,1.01524 -1.02208,2.28428 -1.83509,3.25337c0.06968,0.04615 0.11614,0.09229 0.18583,0.13844c0.69687,-0.94602 0.95239,-1.93817 1.18468,-3.06878c0.11614,-0.55376 0.11614,-1.10753 0.20906,-1.66129c0.06969,-0.39225 0.1626,-0.80757 0.02323,-1.19982c-0.02323,-0.06922 -0.09292,-0.0923 -0.16261,-0.06922c-1.06853,0.48454 -1.62603,1.86896 -1.81186,2.95342c-0.11614,0.76142 -0.06968,1.52285 -0.13937,2.28427c-0.04646,0.46148 -0.13937,0.89987 -0.27875,1.33827c-0.11614,0.3461 -0.37167,0.62298 -0.44135,0.94601c0,0.0923 0.23229,0.16152 0.25552,0z" fill="#1e194a" fill-opacity="1"></path></g></g><g><title>Group</title><g><title>Vector</title><path d="M46.45296,94.02647c-0.46457,-0.13844 -0.74332,-0.53069 -1.06853,-0.85372c-0.39489,-0.39225 -0.67364,-0.87679 -0.85947,-1.3844c-0.30198,-0.85372 -0.09291,-1.75359 -0.25552,-2.6073c-0.04646,0.04615 -0.11615,0.09229 -0.16261,0.13844c1.09176,0.53069 1.30082,1.75358 1.64926,2.79189c0.04645,0.11537 0.18583,0.11537 0.23229,0c0.09291,-0.39225 0.09291,-0.76143 0.09291,-1.15367c0,-0.64606 0.32521,-1.24597 0.69687,-1.75359c-0.06969,0 -0.13937,-0.02307 -0.20906,-0.02307c0.1626,0.46147 0.32521,0.94601 0.41812,1.43055c0.13938,0.71528 -0.09292,1.40749 -0.25552,2.07662c-0.02323,0.11536 0.16261,0.20766 0.20906,0.09229c0.27875,-0.57684 0.51104,-1.15368 0.8827,-1.68437c-0.06968,-0.02307 -0.13937,-0.04614 -0.20906,-0.06922c0.11615,1.03831 0.27875,2.05354 -0.69687,2.76882c-0.11614,0.09229 0,0.27688 0.11615,0.20766c1.06853,-0.76143 0.95239,-1.8228 0.81301,-2.9534c-0.02323,-0.11537 -0.13937,-0.16152 -0.20906,-0.06923c-0.34843,0.53069 -0.60395,1.10753 -0.8827,1.68437c0.06969,0.02307 0.13937,0.06922 0.20906,0.09229c0.1626,-0.62298 0.32521,-1.19982 0.30198,-1.84587c-0.02323,-0.59991 -0.25552,-1.22289 -0.46458,-1.79973c-0.02323,-0.09229 -0.1626,-0.11537 -0.20906,-0.02307c-0.27875,0.39225 -0.48781,0.80757 -0.65041,1.26904c-0.18583,0.55377 -0.02323,1.1306 -0.1626,1.68436c0.06968,0 0.13937,0 0.23229,0c-0.37167,-1.08445 -0.60396,-2.37656 -1.76541,-2.93032c-0.09292,-0.04615 -0.18583,0.02307 -0.1626,0.13844c0.11614,0.53069 0,1.08446 0.06969,1.63822c0.06969,0.53069 0.18583,1.03831 0.41812,1.52285c0.23229,0.46147 0.58072,0.83065 0.92916,1.17675c0.27874,0.29995 0.53426,0.55376 0.92915,0.66913c0.09292,0.04615 0.16261,-0.18459 0.02323,-0.23074z" fill="#1e194a" fill-opacity="1"></path></g></g><g><title>Group</title><g><title>Vector</title><path d="M48.22566,99.90895c0.53427,-0.20766 0.99884,-0.53069 1.41696,-0.89987c0.11614,-0.09229 -0.04646,-0.25381 -0.1626,-0.16152c-0.41812,0.34611 -0.83624,0.64607 -1.32405,0.85373c-0.13937,0.04615 -0.06969,0.27688 0.06969,0.20766z" fill="#1e194a" fill-opacity="1"></path></g></g><g><title>Group</title><g><title>Vector</title><path d="M49.61773,98.86698c-1.04531,-1.47669 -2.8804,-2.0766 -4.59934,-1.47669c-0.06969,0.02307 -0.11615,0.11536 -0.06969,0.16151c0.74333,1.0383 2.1603,1.45363 3.39143,1.47671c0,-0.06922 0,-0.16152 0,-0.23074c-0.65041,0.02308 -1.2079,0.27688 -1.74217,0.64605c-0.11614,0.0923 0,0.27688 0.11615,0.20766c0.4878,-0.3461 0.99884,-0.57683 1.62602,-0.62297c0.13938,0 0.13938,-0.23074 0,-0.23074c-1.13822,-0.02307 -2.4855,-0.41532 -3.2056,-1.3844c-0.02323,0.04615 -0.04646,0.11536 -0.06969,0.16151c1.62602,-0.57683 3.34497,-0.02307 4.34382,1.3844c0.09291,0.13844 0.30197,0.02308 0.20906,-0.09229z" fill="#1e194a" fill-opacity="1"></path></g></g><g><title>Group</title><g><title>Vector</title><path d="M60.23582,96.05886c-0.30197,-0.57684 -0.78978,-0.87679 -1.3705,-1.15367c-0.74333,-0.36918 -1.34728,-0.6922 -1.95123,-1.29211c-1.41697,-1.45363 -1.88155,-3.29951 -1.67249,-5.28383c-0.06969,0.02307 -0.11615,0.06923 -0.18583,0.0923c0.51104,0.29995 0.7201,0.92293 0.95239,1.43055c0.30197,0.66913 0.78978,1.29212 1.2079,1.9151c0.65041,0.99216 1.32405,2.2612 2.3229,2.93033c0.09291,0.06922 0.20906,-0.06922 0.1626,-0.16151c-0.60395,-1.10753 -1.41696,-2.51501 -1.2079,-3.80713c0.09291,-0.48454 0.04645,-0.96909 0.13937,-1.45363c0.02323,-0.18459 0.06969,-0.3461 0.09292,-0.53069c0.04645,-0.29995 -0.09292,-0.5999 -0.02323,-0.92293c-0.06969,0 -0.13938,0.02307 -0.20906,0.02307c0.30197,0.4384 0.34843,0.94601 0.44134,1.4767c0.09292,0.48454 0.25552,0.96908 0.41813,1.43055c0.39489,1.06138 0.85947,2.03047 0.78978,3.18415c0,0.13844 0.23229,0.13844 0.23229,0c0.04646,-0.46147 0.23229,-0.85372 0.37167,-1.29212c0.11614,-0.36918 0.1626,-0.7845 0.18582,-1.17675c0.02323,-0.46147 -0.02322,-0.94601 -0.06968,-1.43055c-0.04646,-0.41532 -0.23229,-0.87679 -0.13938,-1.31519c-0.06968,0 -0.13937,0.02307 -0.20905,0.02307c0.30197,0.59992 0.62718,1.17675 0.95238,1.77666c0.34844,0.66913 0.90593,1.63821 0.78979,2.42271c-0.09292,0.57684 -0.76656,0.92295 -1.06854,1.36134c-0.34843,0.50762 -0.67364,1.08445 -0.81301,1.70744c-0.04646,0.13844 0.18583,0.20766 0.23229,0.06922c0.18583,-0.7845 0.65041,-1.52286 1.20791,-2.09969c0.39489,-0.39225 0.7201,-0.7845 0.69687,-1.36134c0,-0.59991 -0.3949,-1.31518 -0.65042,-1.84587c-0.34843,-0.71528 -0.76655,-1.40748 -1.11498,-2.12276c-0.04646,-0.09229 -0.18584,-0.06923 -0.20906,0.02307c-0.06969,0.29996 -0.02324,0.57684 0.04645,0.8768c0.11614,0.48454 0.13938,0.99216 0.16261,1.49977c0.02322,0.53069 -0.06969,1.01524 -0.18583,1.52285c-0.11615,0.46147 -0.34844,0.85372 -0.37167,1.33826c0.06969,0 0.1626,0 0.23229,0c0.06969,-1.01523 -0.23229,-2.00739 -0.65041,-2.93033c-0.25552,-0.55377 -0.44135,-1.15368 -0.5575,-1.73051c-0.11614,-0.53069 -0.1626,-1.06138 -0.46458,-1.52285c-0.04646,-0.06922 -0.18583,-0.06923 -0.20906,0.02307c-0.02323,0.18459 -0.02323,0.34611 0,0.53069c0.04646,0.36917 -0.02323,0.71527 -0.06968,1.08444c-0.04646,0.25381 -0.02323,0.5307 -0.02323,0.78451c0,0.29995 -0.11615,0.59991 -0.13938,0.89986c-0.09291,1.2229 0.69687,2.56116 1.2776,3.59946c0.04645,-0.04614 0.11614,-0.11537 0.1626,-0.16151c-0.60395,-0.41533 -1.02208,-1.08446 -1.46343,-1.6613c-0.46458,-0.62298 -0.85947,-1.29211 -1.27759,-1.93817c-0.34843,-0.55376 -0.67364,-1.08445 -0.95239,-1.68436c-0.18583,-0.39224 -0.41812,-0.7845 -0.78978,-0.99216c-0.09292,-0.04615 -0.1626,0.02308 -0.18583,0.0923c-0.18583,1.77666 0.13937,3.50716 1.27759,4.91465c0.51104,0.62298 1.0453,1.17675 1.78863,1.54592c0.74333,0.36918 1.55634,0.62298 1.97446,1.40748c0,0.11537 0.18583,0 0.11614,-0.11537z" fill="#1e194a" fill-opacity="1"></path></g></g><g><title>Group</title><g><title>Vector</title><path d="M73.47076,79.18385c-0.58072,-0.13844 -1.09176,-0.04615 -1.64925,0.16151c-0.78979,0.29996 -1.46343,0.46147 -2.3229,0.43839c-1.85832,-0.04614 -3.4379,-0.96907 -4.73872,-2.21503c-0.02323,0.06922 -0.02322,0.13843 -0.04645,0.18458c0.5575,-0.16151 1.18467,0.16151 1.71895,0.32303c0.65041,0.20766 1.37051,0.27688 2.04415,0.39225c1.11499,0.18458 2.41582,0.57683 3.55404,0.3461c0.11614,-0.02308 0.11614,-0.18459 0,-0.23074c-1.13822,-0.27688 -2.27644,-0.62298 -3.25206,-1.29211c-0.25552,-0.16151 -0.41813,-0.39225 -0.62719,-0.62298c-0.20906,-0.23074 -0.48781,-0.41532 -0.7201,-0.62298c-0.20906,-0.18459 -0.37166,-0.41532 -0.58072,-0.59991c-0.20906,-0.18459 -0.44135,-0.27688 -0.62718,-0.48454c-0.04646,0.06922 -0.06969,0.13844 -0.11615,0.18459c0.5575,0.09229 1.04531,0.43839 1.53312,0.71527c0.41812,0.23073 0.8827,0.4384 1.34728,0.59991c0.99885,0.36917 1.95123,0.71528 2.76425,1.43055c0.11614,0.09229 0.27875,-0.06922 0.1626,-0.16151c-0.3252,-0.29996 -0.53426,-0.69221 -0.81301,-1.06138c-0.23229,-0.32303 -0.53427,-0.62298 -0.83625,-0.87679c-0.30197,-0.27688 -0.65041,-0.50762 -0.99884,-0.73835c-0.41812,-0.27688 -0.95239,-0.46146 -1.2776,-0.85371c-0.04645,0.06922 -0.06968,0.13844 -0.11614,0.18458c1.30082,0.36917 2.71779,0.57683 3.90247,1.24597c0.67364,0.39224 0.60395,1.31518 0.85947,1.96123c0.11615,0.32303 0.48781,1.36134 0.85947,1.33826c-0.18583,0.04615 -0.18583,0.27689 -0.02323,0.25381c0.06969,0 0.11615,0 0.16261,-0.04615c0.04645,-0.04614 0.04645,-0.11537 0,-0.16151c-0.48781,-0.59991 -0.83625,-1.36133 -0.97562,-2.09968c-0.09292,-0.46146 -0.20906,-0.99215 -0.65041,-1.29211c-1.16145,-0.80757 -2.74102,-0.99215 -4.08831,-1.36133c-0.11614,-0.02307 -0.18583,0.11536 -0.11614,0.18458c0.23229,0.25381 0.53427,0.41532 0.83624,0.57684c0.51104,0.27688 0.97562,0.64606 1.41697,1.01523c0.67364,0.55376 1.02208,1.36133 1.64926,1.93816c0.04646,-0.04614 0.11614,-0.11536 0.1626,-0.16151c-0.69687,-0.64605 -1.57957,-1.06137 -2.46227,-1.36132c-0.62719,-0.20766 -1.25437,-0.46147 -1.83509,-0.80757c-0.46458,-0.25381 -0.8827,-0.55377 -1.41697,-0.64606c-0.11615,-0.02307 -0.18583,0.11537 -0.11615,0.18459c0.16261,0.16151 0.32521,0.27688 0.53427,0.39224c0.27875,0.16152 0.48781,0.4384 0.69687,0.66913c0.20907,0.23073 0.48781,0.41532 0.7201,0.62298c0.18584,0.16152 0.32521,0.39225 0.51104,0.55376c1.02207,0.76143 2.22998,1.1306 3.46112,1.43056c0,-0.06922 0,-0.13844 0,-0.23074c-0.62719,0.11537 -1.27759,-0.02307 -1.90478,-0.06922c-0.72009,-0.06922 -1.4402,-0.2538 -2.13707,-0.36917c-0.62718,-0.11537 -1.23113,-0.20766 -1.83509,-0.41532c-0.44135,-0.13845 -0.92916,-0.29996 -1.41697,-0.18459c-0.09292,0.02307 -0.11614,0.13844 -0.04645,0.18459c1.13822,1.10752 2.53196,2.00738 4.15799,2.21504c0.74333,0.09229 1.50989,0.13844 2.22998,-0.04615c0.85948,-0.23073 1.50989,-0.73834 2.43905,-0.50761c0.09291,0.04615 0.1626,-0.18458 0.02322,-0.20766z" fill="#1e194a" fill-opacity="1"></path></g></g><g><title>Group</title><g><title>Vector</title><path d="M52.65896,99.26606c0.65041,-1.61515 0.97561,-3.53025 2.55518,-4.52242c-0.04646,-0.02307 -0.11614,-0.02308 -0.1626,-0.04615c0.67364,1.40749 -0.58073,2.72268 -1.18468,3.89943c0.06969,0.04614 0.13938,0.06922 0.20906,0.11537c0.3949,-0.7845 0.97562,-1.36134 1.69572,-1.86895c0.25551,-0.18459 0.51103,-0.34611 0.78978,-0.50762c0.09291,-0.04615 0.8827,-0.4384 0.78978,-0.0923c-0.09291,0.41533 -0.74332,0.83065 -1.0453,1.08445c-0.30198,0.25381 -0.69687,0.48455 -0.95238,0.78451c-0.09292,0.09229 0.02322,0.23073 0.13937,0.18458c1.32405,-0.62298 2.83393,-0.57683 4.06506,0.23074c0,-0.06922 0.02323,-0.13844 0.02323,-0.20766c-1.09176,0.3461 -2.13706,0.76143 -3.20559,1.17675c-0.13938,0.04615 -0.06969,0.27688 0.06968,0.23074c1.04531,-0.41533 2.11383,-0.83065 3.20559,-1.17676c0.09292,-0.02307 0.11615,-0.16151 0.02323,-0.20766c-1.30082,-0.85372 -2.90361,-0.87679 -4.29735,-0.23073c0.04646,0.06922 0.09292,0.11536 0.13938,0.18458c0.3252,-0.36917 2.53195,-1.63821 2.02091,-2.2612c-0.37166,-0.46147 -1.25436,0.20766 -1.57956,0.41532c-0.85948,0.57684 -1.62603,1.2229 -2.09061,2.16891c-0.06969,0.13844 0.13938,0.25381 0.20906,0.11537c0.65041,-1.29212 1.90477,-2.63038 1.18468,-4.13016c-0.02323,-0.04615 -0.11615,-0.06922 -0.1626,-0.04615c-1.62603,1.03831 -1.99769,2.97649 -2.67133,4.66086c-0.04646,0.11536 0.1626,0.18459 0.23229,0.04615z" fill="#1e194a" fill-opacity="1"></path></g></g><g><title>Group</title><g><title>Vector</title><path d="M67.64531,92.89519c-1.23113,-0.18459 -2.39259,0.20766 -3.34498,0.96908c-0.60396,0.48454 -1.18468,1.03831 -1.85832,1.43056c-0.53427,0.32303 -1.0453,0.64605 -1.41697,1.15367c-0.04646,0.06922 0.02323,0.16151 0.09292,0.18459c1.34728,0.16151 2.62488,-0.6922 3.71664,-1.31519c-0.04646,-0.06922 -0.06969,-0.13844 -0.11614,-0.20766c-1.2776,0.94601 -2.48551,2.03046 -2.83395,3.62253c-0.02323,0.09229 0.04646,0.16152 0.13938,0.13844c0.78978,-0.16151 1.34728,-0.62298 1.90478,-1.17674c0.37167,-0.36918 0.76656,-0.73835 1.13822,-1.10753c0.30198,-0.29995 0.51104,-0.66913 0.83625,-0.94601c-0.06969,-0.04615 -0.13938,-0.06922 -0.18584,-0.11537c-0.39489,1.08446 -0.18583,2.49194 0.06969,3.59946c0.02323,0.06922 0.13937,0.11537 0.18583,0.04615c0.85948,-1.06138 1.25437,-2.35349 1.55635,-3.64561c0.18583,-0.73835 0.7201,-2.00739 0,-2.60729c-0.11615,-0.09229 -0.27875,0.06922 -0.16261,0.16151c0.62719,0.53069 0.06969,1.8228 -0.09291,2.49193c-0.30198,1.2229 -0.67364,2.46886 -1.48666,3.46102c0.06969,0.02307 0.13937,0.02307 0.18583,0.04614c-0.23229,-1.0383 -0.44135,-2.44578 -0.06968,-3.48409c0.04646,-0.11537 -0.11615,-0.18459 -0.18584,-0.11537c-0.23229,0.18459 -0.39489,0.39225 -0.55749,0.62299c-0.30198,0.39225 -0.67364,0.71528 -1.02208,1.06138c-0.65041,0.64606 -1.25437,1.31519 -2.20676,1.49977c0.04646,0.04615 0.09292,0.0923 0.13938,0.13845c0.34843,-1.54593 1.48665,-2.58423 2.71779,-3.4841c0.11615,-0.09229 0.02323,-0.27688 -0.11614,-0.20766c-1.06854,0.62299 -2.29968,1.43055 -3.6005,1.29211c0.02323,0.06922 0.06969,0.11537 0.09291,0.18459c0.37167,-0.53069 0.95239,-0.83064 1.50989,-1.15367c0.41812,-0.25381 0.78978,-0.59991 1.16145,-0.92294c1.06853,-0.89986 2.25321,-1.56899 3.71664,-1.36133c0.18583,0 0.25553,-0.23074 0.09292,-0.25381z" fill="#1e194a" fill-opacity="1"></path></g></g><g><title>Vector</title><path d="M38.1234,37.88244c-0.34844,0 -0.5575,-0.11537 -0.7201,0.71528c-0.1626,0.83064 -0.65041,3.94556 -0.67364,4.24552c-0.04646,0.29996 -0.18583,0.55376 0.60395,0.64606c0.78978,0.06922 5.22652,0.11537 6.22537,0.11537c0.97561,0 1.2079,0.16151 1.39373,-0.5307c0.18584,-0.66913 0.67365,-2.86111 0.88271,-3.43794c0.18583,-0.55377 0.51103,-1.6613 -0.18584,-1.75359c-0.90593,-0.11537 -6.31828,0.04615 -7.52618,0z" fill="#5e598f" fill-opacity="1"></path></g><g><title>Group</title><g><title>Vector</title><path d="M35.81502,44.37381c1.50988,0 3.043,0 4.55288,0c0.76656,0 1.50988,0.02307 2.27644,0.04615c0.67364,0.02307 1.55634,-0.09229 2.18352,0.18459c0.13937,0.06922 0.25552,-0.13844 0.11615,-0.20766c-0.46458,-0.20766 -0.97562,-0.18459 -1.48666,-0.18459c-0.78978,0 -1.6028,-0.06922 -2.41581,-0.06922c-1.74217,-0.02307 -3.48434,-0.02307 -5.24974,-0.02307c-0.13937,0.02307 -0.13938,0.25381 0.02323,0.25381z" fill="#1e194a" fill-opacity="1"></path></g></g><g><title>Group</title><g><title>Vector</title><path d="M32.70811,46.49751c0.76656,0.53069 1.90477,0.48454 2.81071,0.55376c1.39374,0.0923 2.83394,0.11537 4.22768,0.0923c0.62718,0 1.27759,-0.04615 1.90477,-0.04615c0.5575,0 1.09173,0.04615 1.64923,-0.11536c0.9292,-0.29996 1.6028,-1.43056 2.1139,-2.16891c0.0929,-0.11537 -0.1162,-0.23073 -0.2091,-0.11537c-0.6736,0.92294 -1.3937,2.09968 -2.6481,2.19197c-0.48781,0.04615 -0.99884,-0.02307 -1.48665,0c-0.58073,0.02307 -1.18468,0.02308 -1.76541,0.02308c-1.18468,0 -2.39258,-0.02308 -3.57726,-0.0923c-0.90593,-0.04615 -2.13707,0 -2.90363,-0.53069c-0.11615,-0.06922 -0.23229,0.13844 -0.11615,0.20766z" fill="#1e194a" fill-opacity="1"></path></g></g><g><title>Group</title><g><title>Vector</title><path d="M43.34927,47.02114c-0.02323,0.23073 -0.06969,0.48454 -0.1626,0.6922c-0.04646,0.13844 0.1626,0.20766 0.23228,0.06922c0.09291,-0.25381 0.13937,-0.50761 0.18583,-0.76142c0,-0.16151 -0.23228,-0.16151 -0.25551,0z" fill="#1e194a" fill-opacity="1"></path></g></g><g><title>Group</title><g><title>Vector</title><path d="M35.56392,45.08572c-0.41812,0.23073 -0.8827,0.53069 -1.18468,0.92294c-0.04646,0.04615 0,0.13845 0.04646,0.16152c0.41812,0.25381 0.99885,0.23073 1.46343,0.27688c0.78978,0.0923 1.60279,0.09229 2.41581,0.09229c0.76656,0 1.50988,0.02308 2.27644,0.11537c0.67364,0.0923 1.32405,-0.20766 1.97446,-0.20766c0.04646,0 0.09292,-0.04615 0.11615,-0.09229c0.11614,-0.27689 0.34843,-1.01524 0.62718,-1.17675c0.09291,-0.04615 0.04646,-0.20766 -0.06969,-0.20766c-1.32405,0.02307 -2.62487,0 -3.94892,-0.09229c-1.18468,-0.09229 -2.41582,-0.20766 -3.57727,0.11537c-0.13937,0.04615 -0.09291,0.25381 0.06969,0.23073c1.20791,-0.32303 2.50873,-0.18459 3.73987,-0.09229c1.23113,0.09229 2.4855,0.09229 3.71663,0.06922c-0.02322,-0.06922 -0.04645,-0.13844 -0.06968,-0.20766c-0.27875,0.16151 -0.44135,0.69221 -0.58073,0.96909c-0.1626,0.32303 -0.06969,0.23073 -0.44135,0.27688c-0.60395,0.06922 -1.11499,0.25381 -1.71894,0.16152c-0.85947,-0.11537 -1.71895,-0.0923 -2.57842,-0.11537c-0.51104,0 -1.02207,-0.02308 -1.53311,-0.04615c-0.46458,-0.02308 -1.37051,-0.02307 -1.78863,-0.29995c0.02323,0.04614 0.02323,0.11536 0.04646,0.16151c0.25552,-0.3461 0.7201,-0.62299 1.09176,-0.83065c0.13937,-0.06922 0.02323,-0.25381 -0.09292,-0.18459z" fill="#1e194a" fill-opacity="1"></path></g></g><g><title>Group</title><g><title>Vector</title><path d="M50.92195,70.14288c1.20791,0 2.41581,0 3.64695,-0.04615c0.62718,-0.02307 1.23114,0.11537 1.83509,0.16152c0.65041,0.04615 1.27759,0 1.92801,0.11537c0.13937,0.02307 0.20905,-0.20766 0.06968,-0.23074c-0.53427,-0.09229 -1.06853,-0.11537 -1.6028,-0.11537c-0.62718,0 -1.2079,-0.11537 -1.83509,-0.18459c-0.62718,-0.04615 -1.30082,0.04614 -1.928,0.04614c-0.69687,0.02307 -1.41697,0 -2.11384,0c-0.1626,0.02307 -0.1626,0.25381 0,0.25381z" fill="#1e194a" fill-opacity="1"></path></g></g><g><title>Group</title><g><title>Vector</title><path d="M83.64453,70.51072c1.16144,0.02307 2.34611,0.1615 3.50755,0.04614c0.13938,-0.02307 0.13938,-0.2538 0,-0.23072c-1.16144,0.13843 -2.34611,-0.02307 -3.50755,-0.04614c-0.13937,0 -0.13937,0.23072 0,0.23072z" fill="#1e194a" fill-opacity="1"></path></g></g><g><title>Group</title><g><title>Vector</title><path d="M46.83244,37.59111c-0.02323,0.7845 -0.27874,1.49978 -0.41812,2.26121c-0.13937,0.6922 -0.27874,1.36134 -0.46457,2.05354c-0.18583,0.69221 -0.44135,1.38441 -0.67364,2.07662c-0.04646,0.13844 0.18583,0.20766 0.23229,0.06921c0.25552,-0.76142 0.51104,-1.49977 0.7201,-2.28427c0.18583,-0.66913 0.32521,-1.36134 0.46458,-2.05354c0.13937,-0.71528 0.37166,-1.38441 0.39489,-2.09969c0,-0.16151 -0.23229,-0.16152 -0.25552,-0.02308z" fill="#1e194a" fill-opacity="1"></path></g></g><g><title>Group</title><g><title>Vector</title><path d="M97.28341,56.92226c2.57841,-0.11537 5.1336,-0.11537 7.71202,-0.16152c0.13937,0 0.13937,-0.23074 0,-0.23074c-2.57842,0.04615 -5.13361,0.04615 -7.71202,0.16152c-0.13937,0.02307 -0.1626,0.25381 0,0.23074z" fill="#1e194a" fill-opacity="1"></path></g></g><g><title>Group</title><g><title>Vector</title><path d="M83.15906,66.56312c-0.92917,0.64605 -1.37053,2.12274 -0.72011,3.09182c0.09292,0.11537 0.27875,0 0.20906,-0.11537c-0.5575,-0.85371 -0.18583,-2.21503 0.65043,-2.76879c0.09291,-0.09229 -0.02323,-0.29995 -0.13938,-0.20766z" fill="#1e194a" fill-opacity="1"></path></g></g><g><title>Group</title><g><title>Vector</title><path d="M59.3304,66.49756c-0.85947,0.83065 -0.76656,1.96124 -0.1626,2.93033c0.06969,0.11537 0.27875,0 0.20906,-0.11537c-0.5575,-0.87679 -0.65041,-1.89203 0.13937,-2.65345c0.09292,-0.09229 -0.06969,-0.2538 -0.18584,-0.16151z" fill="#1e194a" fill-opacity="1"></path></g></g><g><title>Vector</title><path d="M95.74737,65.25318c-0.8827,0.59991 -1.88155,0.83065 -2.36936,1.82281c-0.48781,0.99216 -1.88156,2.6996 -1.88156,4.47625c0,1.77666 -0.04645,11.72136 -0.04645,12.22896c0,0.4845 0.95239,0.2077 1.74218,-0.3461c0.78978,-0.5538 2.18353,-1.1768 2.43905,-1.4306c0.25551,-0.2538 0.4878,-0.3461 0.4878,-1.3382c0,-0.9922 -0.13937,-13.59032 -0.09292,-14.23637c0.02323,-0.64606 0.11615,-1.47671 -0.27874,-1.17675z" fill="#53959c" fill-opacity="1"></path></g><g><title>Group</title><g><title>Vector</title><path d="M79.93502,36.49839c0.67364,-0.06922 1.34728,0 1.99768,0c0.32521,0 0.65041,0.02307 0.97561,0c0.32521,-0.02307 0.60395,-0.13844 0.90593,-0.04615c0.13937,0.04615 0.20906,-0.18459 0.06969,-0.23074c-0.48781,-0.16152 -1.06853,0.04615 -1.57957,0.04615c-0.78978,0 -1.60279,-0.09229 -2.39257,-0.02307c-0.13937,0.04615 -0.13937,0.27688 0.02323,0.25381z" fill="#1e194a" fill-opacity="1"></path></g></g></g><g><title>Group</title><g><title>Vector</title><path d="M22.18,29.32884c0.25552,-1.06138 0.76656,-2.53809 0.8827,-2.93033c0.11615,-0.39225 4.06507,-4.86851 5.08714,-4.86851c1.02208,0 0.85948,0.96909 0.67364,2.76882c-0.1626,1.79973 -0.62718,4.84543 -2.90362,4.06093c-0.18583,0.16152 -0.76655,1.77666 -0.76655,1.77666v0z" fill="#fab191" fill-opacity="1"></path></g><g><title>Vector</title><path d="M24.06746,19.90818c-1.97447,0.16151 -3.06623,1.4767 -2.81071,3.94556c0.25552,2.49194 0.76656,2.99955 1.4402,3.23029c0.67364,0.23073 2.39258,0.29995 2.39258,-0.89987c0,-1.19982 0.04646,-1.77665 0.83624,-1.43055c0.78979,0.3461 0.30198,1.26904 0.83625,1.24597c0.53426,-0.04615 0.4878,-0.96909 1.02207,-1.96125c0.53427,-0.96908 1.74217,-1.61514 1.50988,-2.37656c-0.20906,-0.73836 -1.2079,-1.86895 -5.22651,-1.75359z" fill="#1e194a" fill-opacity="1"></path></g><g><title>Vector</title><path d="M36.1,40.76808c1.18468,-0.66913 3.64695,-1.40748 4.15799,-0.85372c0.51103,0.55377 -0.65041,1.77666 -3.76309,2.12277c-0.39489,-0.20766 -0.39489,-1.26905 -0.39489,-1.26905v0z" fill="#fab191" fill-opacity="1"></path></g><g><title>Vector</title><path d="M13.07765,79.78839c-0.1626,1.06138 -0.51104,2.81497 0.04646,3.11492c0.55749,0.27688 6.08599,0.73835 6.01631,0.11537c-0.04646,-0.62299 -1.9977,-1.40748 -3.06623,-1.79973c-1.06853,-0.39225 -1.18468,-1.86895 -1.18468,-1.86895v0z" fill="#1e194a" fill-opacity="1"></path></g><g><title>Vector</title><path d="M23.36765,80.0684c-0.1626,1.06138 -0.51104,2.81497 0.04646,3.11492c0.5575,0.27689 6.08599,0.73836 6.01631,0.11537c-0.04646,-0.62298 -1.9977,-1.40748 -3.06623,-1.79973c-1.06853,-0.39225 -1.18468,-1.86896 -1.18468,-1.86896v0z" fill="#1e194a" fill-opacity="1"></path></g><g><title>Vector</title><path d="M16.72475,49.58289c-0.39489,1.9151 0.23229,9.20631 -1.06853,12.80581c-1.30083,3.6225 -3.18237,8.2372 -2.83394,13.3134c0.27875,4.1763 0,4.2455 0.78978,4.3378c0.78978,0.1153 2.20675,0.0461 2.20675,-0.3461c0,-0.3923 0.34843,-4.2917 2.16029,-8.4219c1.81186,-4.1301 3.80956,-7.2912 3.85601,-6.9912c0,3.3226 -1.53311,13.7748 1.30078,16.9359c1.8816,0.3461 3.1824,0 3.1824,0v0c0,0 -0.0464,-9.5985 0.6737,-14.6286c0.7433,-5.03 1.5331,-14.3978 1.0685,-18.228z" fill="#5e598f" fill-opacity="1"></path></g><g><title>Vector</title><path d="M23.3204,28.91511c-1.48665,-0.27688 -2.55518,-0.46147 -4.94777,3.66868c-2.39258,4.13015 -4.87808,7.84501 -0.67364,10.33691c-0.46458,4.4532 -1.02207,6.899 -1.02207,6.899c2.78747,1.592 5.11037,1.4767 7.6191,0.5537c2.50868,-0.8998 4.08828,-1.4074 4.08828,-1.4074c0.1162,-1.7536 0.2323,-3.7841 0.2323,-3.7841c2.6713,-0.2769 7.5494,-2.9995 7.9211,-3.1149c0.209,-0.3692 -0.0697,-1.1306 -0.4181,-1.2921c-0.3485,-0.1615 -3.856,-0.623 -7.7817,-0.2769c0.0464,-2.88419 0.2323,-9.59857 -2.7178,-11.00605c-2.4623,-0.80757 -2.2997,-0.57684 -2.2997,-0.57684z" fill="#78bac2" fill-opacity="1"></path></g><g><title>Group</title><g><title>Vector</title><path d="M18.21302,36.22359c-0.34844,1.22289 -0.23229,2.49194 -0.44135,3.71483c-0.20906,1.26904 -0.34844,2.53808 -0.37166,3.80712c0,0.13844 0.23229,0.13844 0.23229,0c0,-1.33826 0.18583,-2.65345 0.39489,-3.96864c0.18583,-1.17674 0.06969,-2.35349 0.3949,-3.50716c0.04646,-0.13844 -0.18583,-0.18459 -0.20906,-0.04615z" fill="#1e194a" fill-opacity="1"></path></g></g><g><title>Group</title><g><title>Vector</title><path d="M21.64996,42.08136c0.51104,0.50762 0.90593,1.15367 1.44019,1.66129c0.46458,0.46147 1.02208,0.87679 1.62603,1.1306c1.34728,0.53069 2.8804,0.53069 4.25091,0.13844c0.13937,-0.04615 0.09291,-0.25381 -0.06969,-0.23073c-1.37051,0.39225 -2.95008,0.39224 -4.27413,-0.20767c-0.62719,-0.29995 -1.16145,-0.76142 -1.64926,-1.26904c-0.44135,-0.43839 -0.7201,-0.96908 -1.16145,-1.40748c-0.11614,-0.06922 -0.27875,0.09229 -0.1626,0.18459z" fill="#1e194a" fill-opacity="1"></path></g></g><g><title>Group</title><g><title>Vector</title><path d="M18.84,52.05047c0.04646,0.46147 0.23229,0.87679 0.32521,1.31519c0.11615,0.50762 0.13937,1.01523 0.27875,1.52285c0.32521,1.1306 0.81302,2.21505 1.16146,3.34565c0.72009,2.3535 1.11499,4.75314 1.27759,7.19894c0,0.1384 0.23229,0.1384 0.23229,0c-0.13937,-2.3304 -0.53427,-4.6147 -1.16145,-6.85283c-0.30198,-1.08446 -0.7201,-2.12276 -1.09176,-3.18414c-0.20906,-0.55377 -0.34844,-1.1306 -0.41813,-1.73051c-0.06969,-0.55377 -0.32521,-1.08446 -0.37166,-1.6613c0,-0.09229 -0.23229,-0.09229 -0.23229,0.04615z" fill="#1e194a" fill-opacity="1"></path></g></g><g><title>Group</title><g><title>Vector</title><path d="M27.13084,36.82114c-0.02323,0.92294 0.44135,1.77665 0.60395,2.67652c0.09292,0.50762 0.27875,1.06138 0.8827,1.10753c0.13938,0.02307 0.13938,-0.20766 0,-0.23074c-0.62718,-0.04614 -0.65041,-0.92294 -0.74332,-1.38441c-0.1626,-0.73835 -0.53427,-1.3844 -0.51104,-2.1689c0,-0.16151 -0.23229,-0.16151 -0.23229,0z" fill="#1e194a" fill-opacity="1"></path></g></g></g><g><title>Group</title><g><title>Vector</title><path d="M145.67161,64.3716c-0.25552,-7.12968 1.7654,-10.06001 5.52849,-11.07524c3.80954,-1.08445 3.6237,-2.79189 4.15797,-2.19198c-0.41812,2.86111 -0.81302,4.38396 -2.83393,6.32213c-1.50988,1.43055 -3.99537,4.40699 -4.36704,6.32209c-0.39489,1.4075 -2.48549,0.623 -2.48549,0.623z" fill="#78bac2" fill-opacity="1"></path></g><g><title>Group</title><g><title>Vector</title><path d="M153.42337,53.53177c-0.27875,0.50762 -0.76656,0.89987 -1.20791,1.26904c-0.65041,0.53069 -1.30082,1.0383 -1.928,1.59207c-1.50987,1.31518 -2.8107,2.88418 -3.53079,4.77621c-0.04646,0.13844 0.1626,0.20766 0.23229,0.06922c0.76655,-1.98432 2.18351,-3.55332 3.78631,-4.93773c0.58072,-0.50761 1.18467,-0.96908 1.78862,-1.45363c0.39489,-0.3461 0.83625,-0.71527 1.09176,-1.17674c0.04646,-0.16151 -0.1626,-0.27688 -0.23228,-0.13844z" fill="#1e194a" fill-opacity="1"></path></g></g><g><title>Vector</title><path d="M143.72155,64.3273c0.76655,-3.34561 -0.99885,-7.86801 -4.158,-9.89848c-1.50989,-0.96909 -3.71664,-1.54592 -5.06393,-2.76882c-0.67364,0.32303 0.04646,5.28383 3.34499,8.39875c2.34613,2.21505 5.22653,2.81495 5.29622,4.33785c0.44135,0.5999 0.58072,-0.0693 0.58072,-0.0693z" fill="#78bac2" fill-opacity="1"></path></g><g><title>Vector</title><path d="M144.11423,64.2125c-2.02092,-3.1611 -3.29852,-8.0757 -1.9977,-10.82146c1.30082,-2.74575 5.66787,-4.75314 5.18006,-8.49104c3.06623,3.57639 1.32406,8.23723 0.16261,10.3831c-1.16145,2.1227 -1.55635,6.8066 -0.97562,8.7679c-0.06969,0.6691 -2.36935,0.1615 -2.36935,0.1615z" fill="#78bac2" fill-opacity="1"></path></g><g><title>Group</title><g><title>Vector</title><path d="M135.77328,53.81198c0.27875,0.48454 0.78979,0.85371 1.2079,1.19981c0.74333,0.62299 1.50988,1.24597 2.22998,1.9151c1.64925,1.4767 3.36819,3.25335 3.87923,5.49148c0.02323,0.13844 0.25552,0.09229 0.23229,-0.06922c-0.46458,-2.12276 -2.06737,-3.85327 -3.62371,-5.30689c-0.74332,-0.69221 -1.53311,-1.33826 -2.29967,-1.98432c-0.48781,-0.39224 -1.11498,-0.83064 -1.41696,-1.3844c-0.09292,-0.09229 -0.30198,0.02307 -0.20907,0.13844z" fill="#1e194a" fill-opacity="1"></path></g></g><g><title>Group</title><g><title>Vector</title><path d="M147.27397,48.36419c-0.09292,2.09968 -1.53311,3.71482 -2.39259,5.51455c-1.23114,2.56115 -0.88271,5.28386 0.06968,7.89116c0.04646,0.1384 0.27875,0.0692 0.23229,-0.0693c-0.58073,-1.5459 -0.9524,-3.1841 -0.85948,-4.84539c0.06969,-1.17674 0.46458,-2.28427 0.99885,-3.34565c0.8827,-1.68436 2.11384,-3.2072 2.18353,-5.16845c0,-0.13844 -0.23229,-0.13844 -0.23229,0.02308z" fill="#1e194a" fill-opacity="1"></path></g></g><g><title>Vector</title><path d="M152.7257,64.09822c0,1.33826 0.4181,2.97648 -0.9756,3.0457c0.0232,5.03001 -1.3473,7.54498 -5.55177,7.68348c-4.11153,0.1384 -6.2486,-1.569 -6.36474,-7.42967c-1.06853,0.11537 -0.99884,-1.03831 -1.06853,-2.51501c-0.04646,-0.92293 -0.06969,-1.52285 1.27759,-1.569c1.34729,-0.04615 11.01055,-0.29995 11.80035,-0.32303c0.7898,-0.02307 0.8827,0.53069 0.8827,1.10752z" fill="#1e194a" fill-opacity="1"></path></g><g><title>Vector</title><path d="M151.1534,67.05c-3.55404,0.09229 -7.10807,0.16152 -10.63887,0.25381c-0.13937,0 -0.13937,0.23073 0,0.23073c3.55403,-0.09229 7.10806,-0.16152 10.63887,-0.25381c0.1394,0 0.1394,-0.23073 0,-0.23073z" fill="#5e598f" fill-opacity="1"></path></g></g></g></g></g></svg>