<svg width="148" height="143" viewBox="0 0 148 143" fill="none" xmlns="http://www.w3.org/2000/svg">
<g clip-path="url(#clip0_96_1426)">
<path d="M9.08776 137.614C8.78816 137.314 8.28884 137.115 7.68965 137.115H5.99194V142.408H6.79086V140.81H7.68965C8.28884 140.81 8.78816 140.61 9.08776 140.31C9.48722 140.011 9.68695 139.511 9.68695 138.912C9.68695 138.313 9.48722 137.914 9.08776 137.614ZM8.58843 139.711C8.3887 139.911 8.08911 140.011 7.68965 140.011H6.79086V137.814H7.68965C8.08911 137.814 8.3887 137.914 8.58843 138.113C8.78816 138.313 8.88803 138.613 8.88803 138.912C8.88803 139.212 8.78816 139.511 8.58843 139.711ZM51.4305 137.015H50.7315L48.7342 142.308H49.5331L50.0324 140.91H52.1296L52.6289 142.308H53.4278L51.4305 137.015ZM50.332 140.211L51.1309 138.313L51.9299 140.211H50.332ZM97.2686 140.51L97.1687 140.71C96.969 141.009 96.7693 141.309 96.4697 141.509C96.1701 141.708 95.8705 141.808 95.471 141.808C94.9717 141.808 94.4724 141.609 94.0729 141.209C93.7733 140.91 93.4737 140.41 93.4737 139.811C93.4737 139.312 93.6734 138.812 94.0729 138.413C94.4724 138.013 94.8718 137.814 95.471 137.814C95.8705 137.814 96.1701 137.914 96.4697 138.113C96.7693 138.313 96.969 138.513 97.1687 138.812L97.2686 139.012L97.9676 138.613L97.8678 138.413C97.6681 138.013 97.2686 137.614 96.8691 137.414C96.4697 137.215 95.9703 137.015 95.5709 137.015C94.772 137.015 94.1728 137.314 93.6735 137.814C93.1741 138.313 92.8745 139.012 92.8745 139.711C92.8745 140.51 93.1741 141.109 93.6735 141.609C94.1728 142.108 94.8718 142.408 95.5709 142.408C96.0702 142.408 96.5695 142.308 96.969 142.008C97.3685 141.708 97.7679 141.409 97.9676 140.91L98.0675 140.71L97.2686 140.51ZM139.911 139.212L141.808 137.015H140.81L138.513 139.611V137.015H137.714V142.308H138.513V140.81L139.412 139.811L141.109 142.408H142.008L139.911 139.212Z" fill="white"/>
<path d="M8.88804 138.413C8.78818 138.213 8.78818 138.113 8.58845 138.013C8.48858 137.914 8.28885 137.814 8.18899 137.814C7.98926 137.814 7.88939 137.714 7.68966 137.714H6.69101V140.111H7.68966C7.88939 140.111 8.08912 140.111 8.18899 140.011C8.38872 139.911 8.48858 139.911 8.58845 139.811C8.68831 139.711 8.78818 139.611 8.88804 139.412C8.98791 139.312 8.98791 139.112 8.98791 138.912C8.98791 138.713 8.98791 138.613 8.88804 138.413ZM8.18899 139.911C8.08912 140.011 7.88939 140.011 7.68966 140.011H6.89074V137.914H7.68966C7.88939 137.914 7.98926 137.914 8.18899 138.013C8.38872 138.013 8.48858 138.113 8.58845 138.213C8.68831 138.313 8.78818 138.413 8.78818 138.513C8.88804 138.613 8.88804 138.812 8.88804 138.912C8.88804 139.112 8.88804 139.212 8.78818 139.312C8.78818 139.412 8.68831 139.511 8.58845 139.611C8.38872 139.811 8.28885 139.811 8.18899 139.911ZM8.88804 138.413C8.78818 138.213 8.78818 138.113 8.58845 138.013C8.48858 137.914 8.28885 137.814 8.18899 137.814C7.98926 137.814 7.88939 137.714 7.68966 137.714H6.69101V140.111H7.68966C7.88939 140.111 8.08912 140.111 8.18899 140.011C8.38872 139.911 8.48858 139.911 8.58845 139.811C8.68831 139.711 8.78818 139.611 8.88804 139.412C8.98791 139.312 8.98791 139.112 8.98791 138.912C8.98791 138.713 8.98791 138.613 8.88804 138.413ZM8.18899 139.911C8.08912 140.011 7.88939 140.011 7.68966 140.011H6.89074V137.914H7.68966C7.88939 137.914 7.98926 137.914 8.18899 138.013C8.38872 138.013 8.48858 138.113 8.58845 138.213C8.68831 138.313 8.78818 138.413 8.78818 138.513C8.88804 138.613 8.88804 138.812 8.88804 138.912C8.88804 139.112 8.88804 139.212 8.78818 139.312C8.78818 139.412 8.68831 139.511 8.58845 139.611C8.38872 139.811 8.28885 139.811 8.18899 139.911ZM8.88804 138.413C8.78818 138.213 8.78818 138.113 8.58845 138.013C8.48858 137.914 8.28885 137.814 8.18899 137.814C7.98926 137.814 7.88939 137.714 7.68966 137.714H6.69101V140.111H7.68966C7.88939 140.111 8.08912 140.111 8.18899 140.011C8.38872 139.911 8.48858 139.911 8.58845 139.811C8.68831 139.711 8.78818 139.611 8.88804 139.412C8.98791 139.312 8.98791 139.112 8.98791 138.912C8.98791 138.713 8.98791 138.613 8.88804 138.413ZM8.18899 139.911C8.08912 140.011 7.88939 140.011 7.68966 140.011H6.89074V137.914H7.68966C7.88939 137.914 7.98926 137.914 8.18899 138.013C8.38872 138.013 8.48858 138.113 8.58845 138.213C8.68831 138.313 8.78818 138.413 8.78818 138.513C8.88804 138.613 8.88804 138.812 8.88804 138.912C8.88804 139.112 8.88804 139.212 8.78818 139.312C8.78818 139.412 8.68831 139.511 8.58845 139.611C8.38872 139.811 8.28885 139.811 8.18899 139.911ZM8.88804 138.413C8.78818 138.213 8.78818 138.113 8.58845 138.013C8.48858 137.914 8.28885 137.814 8.18899 137.814C7.98926 137.814 7.88939 137.714 7.68966 137.714H6.69101V140.111H7.68966C7.88939 140.111 8.08912 140.111 8.18899 140.011C8.38872 139.911 8.48858 139.911 8.58845 139.811C8.68831 139.711 8.78818 139.611 8.88804 139.412C8.98791 139.312 8.98791 139.112 8.98791 138.912C8.98791 138.713 8.98791 138.613 8.88804 138.413ZM8.18899 139.911C8.08912 140.011 7.88939 140.011 7.68966 140.011H6.89074V137.914H7.68966C7.88939 137.914 7.98926 137.914 8.18899 138.013C8.38872 138.013 8.48858 138.113 8.58845 138.213C8.68831 138.313 8.78818 138.413 8.78818 138.513C8.88804 138.613 8.88804 138.812 8.88804 138.912C8.88804 139.112 8.88804 139.212 8.78818 139.312C8.78818 139.412 8.68831 139.511 8.58845 139.611C8.38872 139.811 8.28885 139.811 8.18899 139.911ZM8.88804 138.413C8.78818 138.213 8.78818 138.113 8.58845 138.013C8.48858 137.914 8.28885 137.814 8.18899 137.814C7.98926 137.814 7.88939 137.714 7.68966 137.714H6.69101V140.111H7.68966C7.88939 140.111 8.08912 140.111 8.18899 140.011C8.38872 139.911 8.48858 139.911 8.58845 139.811C8.68831 139.711 8.78818 139.611 8.88804 139.412C8.98791 139.312 8.98791 139.112 8.98791 138.912C8.98791 138.713 8.98791 138.613 8.88804 138.413ZM8.18899 139.911C8.08912 140.011 7.88939 140.011 7.68966 140.011H6.89074V137.914H7.68966C7.88939 137.914 7.98926 137.914 8.18899 138.013C8.38872 138.013 8.48858 138.113 8.58845 138.213C8.68831 138.313 8.78818 138.413 8.78818 138.513C8.88804 138.613 8.88804 138.812 8.88804 138.912C8.88804 139.112 8.88804 139.212 8.78818 139.312C8.78818 139.412 8.68831 139.511 8.58845 139.611C8.38872 139.811 8.28885 139.811 8.18899 139.911ZM8.88804 138.413C8.78818 138.213 8.78818 138.113 8.58845 138.013C8.48858 137.914 8.28885 137.814 8.18899 137.814C7.98926 137.814 7.88939 137.714 7.68966 137.714H6.69101V140.111H7.68966C7.88939 140.111 8.08912 140.111 8.18899 140.011C8.38872 139.911 8.48858 139.911 8.58845 139.811C8.68831 139.711 8.78818 139.611 8.88804 139.412C8.98791 139.312 8.98791 139.112 8.98791 138.912C8.98791 138.713 8.98791 138.613 8.88804 138.413ZM8.18899 139.911C8.08912 140.011 7.88939 140.011 7.68966 140.011H6.89074V137.914H7.68966C7.88939 137.914 7.98926 137.914 8.18899 138.013C8.38872 138.013 8.48858 138.113 8.58845 138.213C8.68831 138.313 8.78818 138.413 8.78818 138.513C8.88804 138.613 8.88804 138.812 8.88804 138.912C8.88804 139.112 8.88804 139.212 8.78818 139.312C8.78818 139.412 8.68831 139.511 8.58845 139.611C8.38872 139.811 8.28885 139.811 8.18899 139.911ZM9.5871 138.113C9.48723 137.914 9.38737 137.614 9.18764 137.514C8.98791 137.314 8.78818 137.215 8.48858 137.115C8.28885 137.015 7.98926 137.015 7.68966 137.015H5.89209V142.507H6.79088V140.91H7.5898C7.88939 140.91 8.18899 140.91 8.38872 140.81C8.68831 140.71 8.88804 140.61 9.08777 140.41C9.2875 140.211 9.38737 140.011 9.48723 139.811C9.5871 139.611 9.5871 139.312 9.5871 139.012C9.78683 138.613 9.68696 138.413 9.5871 138.113ZM8.48858 140.61C8.28885 140.71 7.98926 140.71 7.68966 140.71H6.69101V142.308H6.09182V137.115H7.68966C7.98926 137.115 8.18899 137.115 8.48858 137.215C8.68831 137.314 8.98791 137.414 9.08777 137.614C9.2875 137.814 9.38737 138.013 9.48723 138.213C9.5871 138.413 9.5871 138.713 9.5871 138.912C9.5871 139.112 9.5871 139.412 9.48723 139.611C9.38737 139.811 9.2875 140.011 9.08777 140.211C8.88804 140.41 8.68831 140.51 8.48858 140.61ZM8.58845 138.013C8.48858 137.914 8.28885 137.814 8.18899 137.814C7.98926 137.814 7.88939 137.714 7.68966 137.714H6.69101V140.111H7.68966C7.88939 140.111 8.08912 140.111 8.18899 140.011C8.38872 139.911 8.48858 139.911 8.58845 139.811C8.68831 139.711 8.78818 139.611 8.88804 139.412C8.98791 139.312 8.98791 139.112 8.98791 138.912C8.98791 138.713 8.98791 138.613 8.88804 138.413C8.78818 138.313 8.78818 138.213 8.58845 138.013ZM8.78818 139.312C8.78818 139.412 8.68831 139.511 8.58845 139.611C8.48858 139.711 8.38872 139.811 8.18899 139.811C8.08912 139.911 7.88939 139.911 7.68966 139.911H6.89074V137.814H7.68966C7.88939 137.814 7.98926 137.814 8.18899 137.914C8.38872 137.914 8.48858 138.013 8.58845 138.113C8.68831 138.213 8.78818 138.313 8.78818 138.413C8.88804 138.513 8.88804 138.713 8.88804 138.812C8.78818 139.112 8.78818 139.212 8.78818 139.312ZM8.88804 138.413C8.78818 138.213 8.78818 138.113 8.58845 138.013C8.48858 137.914 8.28885 137.814 8.18899 137.814C7.98926 137.814 7.88939 137.714 7.68966 137.714H6.69101V140.111H7.68966C7.88939 140.111 8.08912 140.111 8.18899 140.011C8.38872 139.911 8.48858 139.911 8.58845 139.811C8.68831 139.711 8.78818 139.611 8.88804 139.412C8.98791 139.312 8.98791 139.112 8.98791 138.912C8.98791 138.713 8.98791 138.613 8.88804 138.413ZM8.18899 139.911C8.08912 140.011 7.88939 140.011 7.68966 140.011H6.89074V137.914H7.68966C7.88939 137.914 7.98926 137.914 8.18899 138.013C8.38872 138.013 8.48858 138.113 8.58845 138.213C8.68831 138.313 8.78818 138.413 8.78818 138.513C8.88804 138.613 8.88804 138.812 8.88804 138.912C8.88804 139.112 8.88804 139.212 8.78818 139.312C8.78818 139.412 8.68831 139.511 8.58845 139.611C8.38872 139.811 8.28885 139.811 8.18899 139.911ZM8.88804 138.413C8.78818 138.213 8.78818 138.113 8.58845 138.013C8.48858 137.914 8.28885 137.814 8.18899 137.814C7.98926 137.814 7.88939 137.714 7.68966 137.714H6.69101V140.111H7.68966C7.88939 140.111 8.08912 140.111 8.18899 140.011C8.38872 139.911 8.48858 139.911 8.58845 139.811C8.68831 139.711 8.78818 139.611 8.88804 139.412C8.98791 139.312 8.98791 139.112 8.98791 138.912C8.98791 138.713 8.98791 138.613 8.88804 138.413ZM8.18899 139.911C8.08912 140.011 7.88939 140.011 7.68966 140.011H6.89074V137.914H7.68966C7.88939 137.914 7.98926 137.914 8.18899 138.013C8.38872 138.013 8.48858 138.113 8.58845 138.213C8.68831 138.313 8.78818 138.413 8.78818 138.513C8.88804 138.613 8.88804 138.812 8.88804 138.912C8.88804 139.112 8.88804 139.212 8.78818 139.312C8.78818 139.412 8.68831 139.511 8.58845 139.611C8.38872 139.811 8.28885 139.811 8.18899 139.911ZM8.88804 138.413C8.78818 138.213 8.78818 138.113 8.58845 138.013C8.48858 137.914 8.28885 137.814 8.18899 137.814C7.98926 137.814 7.88939 137.714 7.68966 137.714H6.69101V140.111H7.68966C7.88939 140.111 8.08912 140.111 8.18899 140.011C8.38872 139.911 8.48858 139.911 8.58845 139.811C8.68831 139.711 8.78818 139.611 8.88804 139.412C8.98791 139.312 8.98791 139.112 8.98791 138.912C8.98791 138.713 8.98791 138.613 8.88804 138.413ZM8.18899 139.911C8.08912 140.011 7.88939 140.011 7.68966 140.011H6.89074V137.914H7.68966C7.88939 137.914 7.98926 137.914 8.18899 138.013C8.38872 138.013 8.48858 138.113 8.58845 138.213C8.68831 138.313 8.78818 138.413 8.78818 138.513C8.88804 138.613 8.88804 138.812 8.88804 138.912C8.88804 139.112 8.88804 139.212 8.78818 139.312C8.78818 139.412 8.68831 139.511 8.58845 139.611C8.38872 139.811 8.28885 139.811 8.18899 139.911ZM8.88804 138.413C8.78818 138.213 8.78818 138.113 8.58845 138.013C8.48858 137.914 8.28885 137.814 8.18899 137.814C7.98926 137.814 7.88939 137.714 7.68966 137.714H6.69101V140.111H7.68966C7.88939 140.111 8.08912 140.111 8.18899 140.011C8.38872 139.911 8.48858 139.911 8.58845 139.811C8.68831 139.711 8.78818 139.611 8.88804 139.412C8.98791 139.312 8.98791 139.112 8.98791 138.912C8.98791 138.713 8.98791 138.613 8.88804 138.413ZM8.18899 139.911C8.08912 140.011 7.88939 140.011 7.68966 140.011H6.89074V137.914H7.68966C7.88939 137.914 7.98926 137.914 8.18899 138.013C8.38872 138.013 8.48858 138.113 8.58845 138.213C8.68831 138.313 8.78818 138.413 8.78818 138.513C8.88804 138.613 8.88804 138.812 8.88804 138.912C8.88804 139.112 8.88804 139.212 8.78818 139.312C8.78818 139.412 8.68831 139.511 8.58845 139.611C8.38872 139.811 8.28885 139.811 8.18899 139.911ZM8.88804 138.413C8.78818 138.213 8.78818 138.113 8.58845 138.013C8.48858 137.914 8.28885 137.814 8.18899 137.814C7.98926 137.814 7.88939 137.714 7.68966 137.714H6.69101V140.111H7.68966C7.88939 140.111 8.08912 140.111 8.18899 140.011C8.38872 139.911 8.48858 139.911 8.58845 139.811C8.68831 139.711 8.78818 139.611 8.88804 139.412C8.98791 139.312 8.98791 139.112 8.98791 138.912C8.98791 138.713 8.98791 138.613 8.88804 138.413ZM8.18899 139.911C8.08912 140.011 7.88939 140.011 7.68966 140.011H6.89074V137.914H7.68966C7.88939 137.914 7.98926 137.914 8.18899 138.013C8.38872 138.013 8.48858 138.113 8.58845 138.213C8.68831 138.313 8.78818 138.413 8.78818 138.513C8.88804 138.613 8.88804 138.812 8.88804 138.912C8.88804 139.112 8.88804 139.212 8.78818 139.312C8.78818 139.412 8.68831 139.511 8.58845 139.611C8.38872 139.811 8.28885 139.811 8.18899 139.911ZM8.88804 138.413C8.78818 138.213 8.78818 138.113 8.58845 138.013C8.48858 137.914 8.28885 137.814 8.18899 137.814C7.98926 137.814 7.88939 137.714 7.68966 137.714H6.69101V140.111H7.68966C7.88939 140.111 8.08912 140.111 8.18899 140.011C8.38872 139.911 8.48858 139.911 8.58845 139.811C8.68831 139.711 8.78818 139.611 8.88804 139.412C8.98791 139.312 8.98791 139.112 8.98791 138.912C8.98791 138.713 8.98791 138.613 8.88804 138.413ZM8.18899 139.911C8.08912 140.011 7.88939 140.011 7.68966 140.011H6.89074V137.914H7.68966C7.88939 137.914 7.98926 137.914 8.18899 138.013C8.38872 138.013 8.48858 138.113 8.58845 138.213C8.68831 138.313 8.78818 138.413 8.78818 138.513C8.88804 138.613 8.88804 138.812 8.88804 138.912C8.88804 139.112 8.88804 139.212 8.78818 139.312C8.78818 139.412 8.68831 139.511 8.58845 139.611C8.38872 139.811 8.28885 139.811 8.18899 139.911ZM51.131 138.313L51.0311 138.113L50.2322 140.31H51.9299L51.131 138.313ZM51.0311 138.513L51.6303 140.211H50.332L51.0311 138.513ZM51.131 138.313L51.0311 138.113L50.2322 140.31H51.9299L51.131 138.313ZM51.0311 138.513L51.6303 140.211H50.332L51.0311 138.513ZM51.131 138.313L51.0311 138.113L50.2322 140.31H51.9299L51.131 138.313ZM51.0311 138.513L51.6303 140.211H50.332L51.0311 138.513ZM51.131 138.313L51.0311 138.113L50.2322 140.31H51.9299L51.131 138.313ZM51.0311 138.513L51.6303 140.211H50.332L51.0311 138.513ZM51.131 138.313L51.0311 138.113L50.2322 140.31H51.9299L51.131 138.313ZM51.0311 138.513L51.6303 140.211H50.332L51.0311 138.513ZM51.131 138.313L51.0311 138.113L50.2322 140.31H51.9299L51.131 138.313ZM51.0311 138.513L51.6303 140.211H50.332L51.0311 138.513ZM51.4305 137.015H50.6316C49.9326 138.812 49.2335 140.71 48.5345 142.507H49.5331L50.0324 141.109H52.0297L52.5291 142.507H53.5277C52.8287 140.61 52.1296 138.812 51.4305 137.015ZM48.8341 142.308L50.8314 137.115H51.4305L53.4278 142.308H52.7288L52.2295 140.91H49.9326L49.4332 142.308H48.8341ZM51.131 138.313L51.0311 138.113L50.2322 140.31H51.9299L51.131 138.313ZM51.0311 138.513L51.6303 140.211H50.332L51.0311 138.513ZM51.131 138.313L51.0311 138.113L50.2322 140.31H51.9299L51.131 138.313ZM51.0311 138.513L51.6303 140.211H50.332L51.0311 138.513ZM51.131 138.313L51.0311 138.113L50.2322 140.31H51.9299L51.131 138.313ZM51.0311 138.513L51.6303 140.211H50.332L51.0311 138.513ZM51.131 138.313L51.0311 138.113L50.2322 140.31H51.9299L51.131 138.313ZM51.0311 138.513L51.6303 140.211H50.332L51.0311 138.513ZM51.131 138.313L51.0311 138.113L50.2322 140.31H51.9299L51.131 138.313ZM51.0311 138.513L51.6303 140.211H50.332L51.0311 138.513ZM51.131 138.313L51.0311 138.113L50.2322 140.31H51.9299L51.131 138.313ZM51.0311 138.513L51.6303 140.211H50.332L51.0311 138.513ZM51.131 138.313L51.0311 138.113L50.2322 140.31H51.9299L51.131 138.313ZM51.0311 138.513L51.6303 140.211H50.332L51.0311 138.513ZM97.2686 140.41L97.1687 140.61C97.0689 140.81 96.969 140.91 96.8691 141.009C96.7693 141.109 96.6694 141.209 96.4697 141.309C96.3698 141.409 96.1701 141.509 95.9704 141.509C95.7706 141.509 95.6708 141.609 95.471 141.609C95.1714 141.609 94.9717 141.509 94.772 141.409C94.5722 141.309 94.3725 141.209 94.1728 141.009C93.9731 140.81 93.8732 140.61 93.7733 140.41C93.6735 140.211 93.5736 139.911 93.5736 139.711C93.5736 139.412 93.5736 139.212 93.7733 139.012C93.8732 138.812 93.9731 138.513 94.1728 138.413C94.3725 138.213 94.5722 138.113 94.772 138.013C94.9717 137.914 95.2713 137.814 95.471 137.814C95.6708 137.814 95.7706 137.814 95.9704 137.914C96.1701 137.914 96.27 138.013 96.4697 138.113C96.6694 138.213 96.7693 138.313 96.8691 138.413C96.969 138.513 97.0689 138.613 97.1687 138.812L97.2686 139.012L98.0675 138.513L97.9677 138.313C97.8678 138.113 97.6681 137.914 97.4683 137.714C97.2686 137.514 97.0689 137.414 96.8691 137.314C96.6694 137.215 96.4697 137.115 96.1701 137.015C95.9704 136.915 95.6708 136.915 95.471 136.915C95.0716 136.915 94.772 137.015 94.3725 137.115C94.0729 137.215 93.6735 137.414 93.4737 137.714C93.1741 138.013 92.9744 138.313 92.8745 138.613C92.7747 138.912 92.6748 139.312 92.6748 139.711C92.6748 140.111 92.7747 140.51 92.8745 140.81C92.9744 141.209 93.274 141.509 93.4737 141.708C93.7733 142.008 94.0729 142.208 94.3725 142.308C94.6721 142.408 95.0716 142.507 95.471 142.507C95.7706 142.507 95.9704 142.507 96.27 142.408C96.4697 142.308 96.7693 142.208 96.969 142.108C97.1687 142.008 97.3685 141.808 97.5682 141.609C97.7679 141.409 97.8678 141.209 98.0675 141.009L98.1674 140.81L97.2686 140.41ZM96.1701 142.308C95.9704 142.408 95.6708 142.408 95.471 142.408C95.0716 142.408 94.772 142.308 94.4724 142.208C94.1728 142.108 93.8732 141.908 93.5736 141.609C93.3739 141.409 93.1741 141.109 92.9744 140.71C92.8745 140.41 92.7747 140.011 92.7747 139.711C92.7747 139.312 92.8745 139.012 92.9744 138.713C93.0743 138.413 93.274 138.113 93.5736 137.814C93.7733 137.614 94.0729 137.414 94.4724 137.215C94.8718 137.015 95.1714 137.015 95.471 137.015C95.6708 137.015 95.9704 137.015 96.1701 137.115C96.3698 137.215 96.5695 137.215 96.7693 137.414C96.969 137.514 97.1687 137.714 97.2686 137.814C97.4683 138.013 97.5682 138.113 97.6681 138.313L97.7679 138.413L97.2686 138.713L97.1687 138.613C97.0689 138.413 96.969 138.313 96.8691 138.213C96.7693 138.113 96.5695 138.013 96.4697 137.914C96.27 137.814 96.1701 137.714 95.9704 137.714C95.7706 137.714 95.6708 137.614 95.471 137.614C95.1714 137.614 94.9717 137.614 94.6721 137.814C94.4724 137.914 94.1728 138.113 94.0729 138.313C93.8732 138.513 93.7733 138.713 93.6735 139.012C93.5736 139.212 93.4737 139.511 93.4737 139.811C93.4737 140.111 93.4737 140.41 93.6735 140.61C93.7733 140.81 93.8732 141.109 94.0729 141.309C94.2726 141.509 94.4724 141.609 94.6721 141.708C94.8718 141.808 95.1714 141.908 95.471 141.908C95.6708 141.908 95.8705 141.908 96.0702 141.808C96.2699 141.708 96.3698 141.709 96.5695 141.609C96.7693 141.509 96.8691 141.409 96.969 141.309C97.0689 141.209 97.1687 141.009 97.2686 140.81L97.3685 140.71L97.9677 141.009L97.8678 141.109C97.7679 141.309 97.5682 141.509 97.4683 141.708C97.2686 141.908 97.1687 142.008 96.8691 142.108C96.6694 142.108 96.4697 142.208 96.1701 142.308ZM140.011 139.312L142.008 137.015H140.81L138.613 139.511V137.015H137.714V142.507H138.613V140.81L139.412 139.911L141.109 142.408H142.208L140.011 139.312ZM138.413 142.308H137.814V137.115H138.413V139.911L140.81 137.115H141.609L139.811 139.212L141.808 142.308H141.109L139.412 139.711L138.513 140.81V142.308H138.413Z" fill="white"/>
<path fill-rule="evenodd" clip-rule="evenodd" d="M9.08773 125.031C9.08773 125.031 12.9825 128.926 20.2726 130.524H6.2915L6.49123 130.224L9.08773 125.031Z" fill="white"/>
<path fill-rule="evenodd" clip-rule="evenodd" d="M44.34 96.3698L31.1578 122.534C21.2712 125.431 13.282 117.042 13.282 117.042L29.4601 85.7841C29.4601 85.6843 37.7489 84.6856 44.34 96.3698Z" fill="white"/>
<path d="M46.9366 78.8933V88.6801C43.8408 83.2874 39.3468 79.7921 33.2551 78.394C31.3576 77.8947 29.2605 77.695 27.0634 77.5951H26.3644C22.0702 77.5951 17.9757 78.5937 14.081 80.7908C9.98652 82.9878 6.5911 86.1835 3.99461 90.1781C1.29826 94.2726 1.1535e-05 98.9662 -0.0998535 104.459C-0.0998535 109.552 1.09853 114.046 3.59515 117.941C5.19299 120.437 7.09043 122.534 9.38733 124.332C10.6856 125.331 12.0837 126.229 13.4818 127.028C17.5763 129.225 21.9703 130.424 26.4642 130.424H27.5628C31.3576 130.424 35.0526 129.525 38.4481 127.727C42.1431 125.83 44.9393 123.134 46.8367 119.638V129.325H53.5277V78.8933H46.9366ZM41.1444 117.941C38.1485 120.937 34.6532 122.834 30.6586 123.533C29.4602 123.733 28.162 123.833 26.7638 123.833H26.5641C24.0675 123.733 21.5709 123.134 19.1741 122.135C16.7773 121.136 14.5803 119.838 12.7827 117.941L12.6829 117.841C10.7854 116.043 9.28746 113.846 8.28881 111.25C7.39003 109.053 6.99056 106.656 6.99056 104.159V102.861C6.99056 100.165 7.88935 97.2685 9.68692 94.2726C11.4845 91.2766 13.8813 88.78 17.0769 86.8825C19.973 85.1848 23.0688 84.2861 26.4642 84.2861H27.363C28.2618 84.2861 29.1606 84.3859 29.9595 84.5856C34.3536 85.2847 38.0486 87.1821 41.2443 90.3778C42.7423 91.8758 43.9406 93.4736 44.8394 95.2712C46.2375 97.9676 46.9366 101.063 46.9366 104.359C46.9366 109.452 44.9393 113.946 41.1444 117.941Z" fill="white"/>
<path fill-rule="evenodd" clip-rule="evenodd" d="M138.912 125.031C138.912 125.031 135.018 128.926 127.728 130.524H141.709L141.509 130.224L138.912 125.031Z" fill="white"/>
<path fill-rule="evenodd" clip-rule="evenodd" d="M103.66 96.3698L116.842 122.534C126.729 125.431 134.718 117.042 134.718 117.042L118.54 85.7841C118.54 85.6843 110.251 84.6856 103.66 96.3698Z" fill="white"/>
<path fill-rule="evenodd" clip-rule="evenodd" d="M144.005 90.1781C141.409 86.0836 138.014 82.9878 133.919 80.7908C130.024 78.6936 125.93 77.5951 121.636 77.5951H120.937C118.74 77.695 116.642 77.8947 114.745 78.394C108.653 79.892 104.159 83.2874 101.064 88.6801V78.8933H94.3726V129.425H101.064V119.738C102.961 123.233 105.757 125.93 109.452 127.827C112.947 129.625 116.543 130.524 120.337 130.524H121.436C125.93 130.424 130.224 129.325 134.418 127.128C135.916 126.329 137.315 125.43 138.513 124.432C140.81 122.634 142.707 120.537 144.305 118.04C146.802 114.146 148 109.652 148 104.559C148 98.9662 146.602 94.2726 144.005 90.1781ZM141.01 104.159C141.01 106.656 140.61 109.053 139.711 111.25C138.713 113.846 137.215 116.043 135.317 117.841L135.217 117.941C133.42 119.838 131.323 121.236 128.826 122.135C126.429 123.134 123.933 123.633 121.436 123.833H121.236C119.938 123.833 118.64 123.733 117.342 123.533C113.347 122.834 109.752 120.937 106.856 117.941C102.961 113.946 101.064 109.452 101.064 104.359C101.064 100.964 101.763 97.9676 103.161 95.2712C104.059 93.4736 105.258 91.8758 106.756 90.3778C109.952 87.1821 113.647 85.2847 118.041 84.5856C118.939 84.4858 119.738 84.3859 120.637 84.2861H121.536C124.931 84.2861 128.027 85.1848 130.923 86.8825C134.119 88.78 136.516 91.2766 138.313 94.2726C140.111 97.2685 141.01 100.165 141.01 102.861V104.159V104.159Z" fill="white"/>
<path fill-rule="evenodd" clip-rule="evenodd" d="M114.345 77.5951C106.157 78.6937 102.162 85.085 102.162 85.085V78.0945H94.4723L74.0999 37.749L74 37.9487L73.9001 37.749L53.6275 77.9946H45.9379V84.9852C45.9379 84.9852 41.9433 78.5938 33.7544 77.4953L73.9001 0V0.099865V0L74 0.099865V0V0.099865L74.1997 0L114.345 77.5951Z" fill="white"/>
<path d="M88.6801 79.9919V86.1836H78.0944V130.524H69.9055V86.1836H59.3198V79.9919H69.9055V62.1161H78.0944V79.9919H88.6801Z" fill="white"/>
</g>
<defs>
<clipPath id="clip0_96_1426">
<rect width="148" height="142.507" fill="white"/>
</clipPath>
</defs>
</svg>
