<?xml version="1.0" encoding="UTF-8"?>
<svg id="SVGDoc" width="105" height="103" xmlns="http://www.w3.org/2000/svg" version="1.1" xmlns:xlink="http://www.w3.org/1999/xlink" xmlns:avocode="https://avocode.com/" viewBox="0 0 105 103"><defs></defs><desc>Generated with Avocode.</desc><g><g><title>Frame</title><g><title>Background</title></g><g><title>Group</title><g><title>Vector</title><path d="M72.9449,80.8753c7.4352,-1.606 14.7746,-4.2907 20.7753,-8.9888c6.0007,-4.6982 10.5188,-11.6256 11.1888,-19.2242c0.956,-10.9544 -6.2639,-21.3574 -15.5877,-27.1342c-9.3238,-5.77687 -20.4406,-7.79037 -31.2944,-9.25255c-10.304,-1.39027 -20.8709,-2.39702 -31.0075,-0.16779c-20.29715,4.41052 -30.95972,21.35744 -25.67624,41.51644c3.99248,15.245 23.57244,20.8301 37.19944,23.4908c11.332,2.2292 23.1182,2.2052 34.4023,-0.2397z" fill="#fbeed1" fill-opacity="1"></path></g><g><title>Group</title><g><title>Vector</title><path d="M72.6516,18.6249c0,10.2832 -18.5758,31.4489 -18.5758,31.4489c0,0 -18.5758,-21.1657 -18.5758,-31.4489c0,-10.28327 8.31967,-18.6249 18.5758,-18.6249c10.2801,0 18.5758,8.34163 18.5758,18.6249zM60.8415,16.6114c0,-3.7394 -3.0362,-6.78361 -6.7657,-6.78361c-3.7295,0 -6.7657,3.04421 -6.7657,6.78361c0,3.7393 3.0362,6.7835 6.7657,6.7835c3.7534,0 6.7657,-3.0442 6.7657,-6.7835z" fill="#e8916a" fill-opacity="1"></path></g><g><title>Group</title><g><title>Group</title><g><title>Group</title><g><title>Vector</title><path d="M55.8509,39.24221c-0.8129,1.51013 -4.78143,2.75658 -7.79373,6.71169c-0.50205,0.6711 -1.12363,2.2771 -1.14754,3.1161h-2.0082c-0.26298,-4.57831 1.91257,-9.22853 5.49864,-12.10496c0.86066,-0.69513 1.86475,-1.29439 2.96448,-1.39027c0.71721,-0.07191 1.45833,0.11985 2.03215,0.55132c0.1434,0.09588 0.2629,0.21573 0.3586,0.33559c0.1434,0.16779 0.2629,0.35955 0.3586,0.57528c0.239,0.71911 0.1195,1.5341 -0.263,2.20526z" fill="#f4d071" fill-opacity="1"></path></g><g><title>Vector</title><path d="M55.7227,36.48558c-0.93237,0.35955 -1.84084,0.79102 -2.7015,1.31836c-3.92076,2.44496 -6.52664,6.66372 -6.98087,11.28996h-0.43033c0.11954,-1.2944 0.40642,-2.5888 0.83675,-3.81125c1.50615,-4.17082 4.80533,-7.52665 8.91735,-9.13265c0.14344,0.09588 0.263,0.19176 0.3586,0.33558z" fill="#efb041" fill-opacity="1"></path></g></g><g><title>Group</title><g><title>Vector</title><path d="M46.9334,49.0648v0h-3.9447c-0.8606,-3.7393 -2.89275,-7.0712 -5.71379,-9.66c-1.3627,-1.27038 -2.91666,-2.32507 -4.27936,-3.57152c-1.09973,-0.98278 -2.15164,-2.2532 -2.17555,-3.73936c0,-1.05469 0.54987,-2.01349 1.36271,-2.68466c0.14344,-0.11985 0.28688,-0.21573 0.43032,-0.31161c0.23907,-0.16779 0.50205,-0.28764 0.78894,-0.38352c1.41051,-0.52734 3.01229,-0.33558 4.44672,0.16779c2.12773,0.74307 3.96861,2.18128 5.37911,3.93111c1.4105,1.74983 2.3907,3.81127 3.0362,5.96857c0.9563,3.3079 1.2432,6.8795 0.6694,10.2832z" fill="#efb041" fill-opacity="1"></path></g><g><title>Vector</title><path d="M45.7631,49.0672v0h-0.4303c0,-1.3903 -0.1195,-2.8045 -0.3825,-4.1708c-0.7172,-4.027 -2.4863,-7.88623 -5.35519,-10.83456c-2.05601,-2.10938 -4.61407,-3.76333 -7.43511,-4.65023c0.14344,-0.11985 0.28689,-0.21573 0.43033,-0.31161c1.09972,0.35955 2.15164,0.83896 3.15573,1.41424c3.49044,1.98953 6.23976,5.12963 7.91324,8.77306c1.4105,3.0682 2.0799,6.4241 2.1038,9.7799z" fill="#e89236" fill-opacity="1"></path></g></g></g><g><title>Group</title><g><title>Group</title><g><title>Vector</title><path d="M74.18866,42.47538c0.52596,0.95881 3.03622,1.74983 4.94879,4.2667c0.3108,0.43147 0.71722,1.43822 0.71722,1.96556h1.26708c0.16735,-2.90039 -1.21926,-5.84873 -3.49045,-7.67047c-0.54986,-0.43147 -1.17145,-0.81499 -1.86476,-0.8869c-0.45424,-0.04794 -0.93238,0.07191 -1.29099,0.35955c-0.09563,0.07191 -0.16735,0.14382 -0.21516,0.21573c-0.09563,0.09588 -0.16735,0.2397 -0.21516,0.35955c-0.16735,0.45543 -0.07173,0.98278 0.14344,1.39027z" fill="#e89236" fill-opacity="1"></path></g><g><title>Vector</title><path d="M74.28,40.72176c0.59767,0.21573 1.17144,0.50338 1.69739,0.83896c2.48632,1.55806 4.13591,4.21876 4.42279,7.16709h0.28689c-0.07172,-0.81498 -0.26298,-1.62997 -0.52596,-2.42099c-0.95628,-2.66069 -3.03618,-4.77007 -5.64204,-5.77682c-0.11953,0.04794 -0.19126,0.11985 -0.23907,0.19176z" fill="#efb041" fill-opacity="1"></path></g></g><g><title>Group</title><g><title>Vector</title><path d="M79.84633,48.7073v0h2.51024c0.54987,-2.373 1.84085,-4.4824 3.60998,-6.13634c0.86066,-0.79102 1.84085,-1.46219 2.72541,-2.2532c0.69331,-0.62323 1.36274,-1.43822 1.38664,-2.37305c0,-0.67117 -0.3586,-1.27043 -0.86068,-1.70189c-0.09563,-0.07191 -0.19126,-0.14382 -0.28689,-0.19176c-0.16735,-0.09588 -0.31079,-0.19176 -0.50205,-0.2397c-0.90847,-0.33558 -1.91257,-0.21573 -2.82104,0.09588c-1.3388,0.4794 -2.51025,1.39027 -3.39481,2.4929c-0.88456,1.10263 -1.50615,2.42099 -1.93648,3.78729c-0.62159,2.10938 -0.78893,4.36257 -0.43033,6.51987z" fill="#efb041" fill-opacity="1"></path></g><g><title>Vector</title><path d="M80.59,48.7102v0h0.28688c0,-0.8869 0.07172,-1.7738 0.23907,-2.6607c0.45424,-2.56476 1.57788,-4.98576 3.39482,-6.8794c1.29099,-1.34234 2.94059,-2.39702 4.70972,-2.94834c-0.09563,-0.07191 -0.19126,-0.14382 -0.28689,-0.19176c-0.69331,0.2397 -1.36271,0.52734 -2.0082,0.8869c-2.19946,1.27042 -3.94468,3.23598 -5.02051,5.56109c-0.88456,1.98952 -1.31489,4.09891 -1.31489,6.23221z" fill="#e89236" fill-opacity="1"></path></g></g></g><g><title>Group</title><g><title>Vector</title><path d="M83.1761,32.4805c-0.4064,0.6471 -1.0041,1.1505 -1.5779,1.6299c-2.7493,2.2772 -5.4747,4.5783 -8.2001,6.8555c0.9324,-0.4554 1.4583,-0.5992 2.4863,-0.767c1.0041,-0.1918 2.1278,-0.048 2.9406,0.5992c0.3108,0.2637 0.5738,0.6232 0.7172,1.0068c0.0717,0.1678 0.0956,0.3116 0.1195,0.5033c0.0718,0.4315 0,0.8869 -0.239,1.2705c-0.5738,0.9588 -1.8409,1.1266 -2.9406,1.2944c-4.3033,0.6232 -8.4631,2.5408 -11.18851,5.9206h-2.60587c0.86065,-4.3146 -0.16736,-8.6293 -1.62569,-12.8001c-0.47814,-1.3903 -1.07581,-2.7566 -1.17144,-4.1948c-0.09563,-1.4622 0.45423,-3.06817 1.74521,-3.76331c0.21516,-0.11985 0.45424,-0.19176 0.6694,-0.2397c0.16735,-0.04794 0.3347,-0.04794 0.50205,-0.07191c1.17145,-0.04794 2.41461,0.57528 3.15573,1.53409c1.0041,1.29443 1.3149,2.99623 1.36271,4.62623c0.07172,1.63 -0.04781,3.3798 -0.21516,5.0338c1.43442,-3.5716 1.86474,-7.3109 1.33879,-11.12221c-0.21516,-1.55806 -0.59767,-3.09216 -0.40642,-4.65022c0.19126,-1.55806 1.14754,-3.1401 2.6776,-3.49965c0.0956,-0.02397 0.2152,-0.04794 0.3108,-0.04794c0.1673,-0.02397 0.3347,-0.02397 0.5259,0c0.789,0.04794 1.554,0.40749 2.1517,0.93484c0.8128,0.7191 1.3388,1.70188 1.6974,2.70863c1.0758,2.97231 1.1714,6.54385 -0.263,9.37235c0.7172,-1.606 1.793,-2.9483 3.084,-4.14684c0.765,-0.69514 1.6496,-1.31837 2.6537,-1.46219c0.8367,-0.11985 1.7691,0.1678 2.2712,0.81499c0.0956,0.11985 0.1912,0.26367 0.263,0.40749c0,0.02397 0.0239,0.02397 0.0239,0.04795c0.3347,0.7191 0.1434,1.5581 -0.263,2.2053z" fill="#df4268" fill-opacity="1"></path></g><g><title>Group</title><g><title>Vector</title><path d="M66.32248,47.7455c-0.02391,0.024 -0.0239,0.024 -0.04781,0.0479c1.21926,-1.9415 2.55806,-3.8112 4.01639,-5.609c2.74934,-3.3798 5.88114,-6.448 9.29984,-9.1326c1.2671,-0.9828 2.5581,-1.91765 3.8969,-2.80455c-0.0717,-0.14382 -0.1435,-0.28764 -0.263,-0.40749c-2.9645,1.91764 -5.7377,4.12284 -8.2719,6.56784c-2.2711,2.1813 -4.39886,4.5543 -6.28752,7.0712c0.57377,-1.1506 1.12363,-2.3251 1.62568,-3.5236c1.69741,-4.0989 2.72544,-8.5334 2.41464,-12.96789c-0.1196,-1.82174 -0.47816,-3.64348 -1.09975,-5.36933c-0.16735,-0.02397 -0.3347,-0.02397 -0.52596,0c1.31491,3.57156 1.43441,7.50268 0.78894,11.21802c-0.76503,4.4345 -2.60587,8.5814 -4.78142,12.5125c-0.45423,0.791 -0.90847,1.582 -1.36271,2.373c-0.0239,0.048 -0.04781,0.072 -0.07171,0.1199c-0.28689,0.5034 -0.59769,0.9828 -0.88457,1.4861c-0.02391,0.048 -0.04781,0.0959 -0.09563,0.1439c1.02801,-5.3214 0.83675,-10.8585 -0.59767,-16.084c-0.3347,-1.2465 -0.74113,-2.46898 -1.24318,-3.64352c-0.16735,0 -0.33469,0.02397 -0.50204,0.07191c2.22336,5.51311 2.98838,11.62551 2.19945,17.54621c-0.14344,1.1506 -0.3586,2.2772 -0.64549,3.4038c-0.02391,0.0239 -0.02391,0.0239 -0.02391,0.0479h0.02391v0h0.04781v0h0.04782v0h0.40641v0h0.04782v0h0.04782v0h0.04781c2.7015,-4.1948 7.05259,-7.1671 11.97745,-8.1499c1.028,-0.1917 2.056,-0.3116 3.1079,-0.3356c-0.0239,-0.1677 -0.0717,-0.3355 -0.1195,-0.5033c-4.9488,0.1438 -9.7541,2.2771 -13.17282,5.9206z" fill="#c6204f" fill-opacity="1"></path></g></g></g><g><title>Group</title><g><title>Vector</title><path d="M35.9612,36.407c0.0239,0.4794 -0.1196,0.93484 -0.263,1.39027c-0.6216,2.13335 -1.2432,4.29067 -1.8648,6.42402c0.3108,-0.57529 0.5499,-0.81499 1.0041,-1.27042c0.4543,-0.45544 1.0998,-0.76705 1.7214,-0.71911c0.2629,0.02397 0.502,0.11985 0.7172,0.26367c0.0956,0.04794 0.1673,0.11985 0.239,0.21573c0.1913,0.21574 0.3108,0.45544 0.3108,0.74308c0.0239,0.69514 -0.5737,1.24646 -1.0758,1.70186c-2.0082,1.8218 -3.51433,4.2667 -3.72949,6.9993l-1.36271,0.9109c-1.05191,-2.5409 -3.08402,-4.4105 -5.28347,-6.0645c-0.74112,-0.5513 -1.50615,-1.0547 -2.07992,-1.7738c-0.54986,-0.7191 -0.83675,-1.74979 -0.40642,-2.56478c0.07172,-0.14382 0.16735,-0.26367 0.26298,-0.35955c0.07172,-0.07191 0.14344,-0.14382 0.23907,-0.21573c0.59768,-0.43146 1.45833,-0.55131 2.17555,-0.31161c0.98019,0.31161 1.72131,1.10263 2.31899,1.91761c0.59767,0.83896 1.14754,1.77376 1.64959,2.68466c-0.50205,-2.34907 -1.57787,-4.43448 -3.17965,-6.23225c-0.64549,-0.7191 -1.38661,-1.39027 -1.81694,-2.27717c-0.43033,-0.86292 -0.50205,-2.03746 0.16735,-2.75657c0.04781,-0.04794 0.09563,-0.09588 0.14344,-0.14382c0.07172,-0.07191 0.16735,-0.11985 0.26298,-0.19176c0.43033,-0.2397 0.95629,-0.33558 1.43443,-0.26367c0.6694,0.09588 1.29098,0.40749 1.84085,0.81499c1.60177,1.17454 2.89276,2.97231 3.13183,4.93786c-0.19126,-1.07866 -0.09563,-2.15731 0.16735,-3.23597c0.14344,-0.62323 0.38251,-1.27042 0.86065,-1.67792c0.38254,-0.35955 0.98024,-0.52734 1.45834,-0.38352c0.0956,0.02397 0.1913,0.07191 0.2869,0.11985c0,0 0.0239,0 0.0239,0.02397c0.4542,0.31161 0.6455,0.81499 0.6455,1.29439z" fill="#df4268" fill-opacity="1"></path></g><g><title>Group</title><g><title>Vector</title><path d="M32.53358,50.2428c0,0.024 0,0.024 0,0.048c-0.04781,-1.4382 0,-2.8764 0.11954,-4.3147c0.23907,-2.70859 0.78893,-5.41722 1.64958,-8.00601c0.3108,-0.9588 0.6694,-1.89364 1.0519,-2.82848c-0.0956,-0.04794 -0.1673,-0.09588 -0.2869,-0.11985c-0.8606,2.03747 -1.53002,4.14684 -2.00816,6.30416c-0.43033,1.94159 -0.69331,3.90718 -0.81285,5.87268c-0.09563,-0.791 -0.21516,-1.606 -0.38251,-2.397c-0.54986,-2.70863 -1.55396,-5.36932 -3.27527,-7.57458c-0.69331,-0.91087 -1.53006,-1.72585 -2.43853,-2.39702c-0.09562,0.04794 -0.19125,0.11985 -0.26297,0.19176c1.91256,1.39027 3.34699,3.3798 4.32718,5.53712c1.14754,2.56481 1.64959,5.36932 1.88866,8.14982c0.04782,0.5753 0.09563,1.1506 0.11954,1.7019c0,0.024 0,0.0719 0,0.0959c0.0239,0.3596 0.04781,0.7191 0.04781,1.0787c0,0.0239 0,0.0719 0,0.0959c-1.31489,-3.1162 -3.34699,-5.9207 -5.92896,-8.12595c-0.59768,-0.52734 -1.24317,-1.00674 -1.91257,-1.46218c-0.09563,0.07191 -0.16735,0.11985 -0.23907,0.21573c3.08402,2.08541 5.59426,4.9858 7.24385,8.3177c0.3108,0.6472 0.59768,1.3183 0.86066,1.9895c0,0.024 0,0.024 0,0.024v0l0.02391,-0.024v0l0.0239,-0.024v0l0.21517,-0.1438v0l0.0239,-0.024v0l0.02391,-0.0239v0l0.02391,-0.024c-0.04782,-3.1401 1.17145,-6.2083 3.37089,-8.41355c0.4542,-0.45544 0.9563,-0.8869 1.4823,-1.27042c-0.0718,-0.07191 -0.1435,-0.14383 -0.2391,-0.21574c-2.4625,1.86968 -4.20767,4.65021 -4.70972,7.76631z" fill="#c6204f" fill-opacity="1"></path></g></g></g></g><g><title>Group</title><g><title>Group</title><g><title>Group</title><g><title>Vector</title><path d="M59.0239,87.2v0h-4.82923c-2.17555,0 -3.94467,3.3079 -3.94467,7.4068c0,4.0989 1.76912,7.4068 3.94467,7.4068c0.07172,0 0.14344,0 0.21517,0h4.42281c0.07172,0 0.14344,0 0.21516,0c2.17559,0 3.94469,-3.3079 3.94469,-7.4068c-0.0239,-4.0989 -1.7931,-7.4068 -3.9686,-7.4068z" fill="#21255c" fill-opacity="1"></path></g></g><g><title>Group</title><g><title>Vector</title><path d="M88.98112,95.23059v0h-9.49112c0,-5.08169 2.12773,-9.18059 4.75751,-9.18059c2.60587,0 4.73361,4.0989 4.73361,9.18059z" fill="#10164f" fill-opacity="1"></path></g><g><title>Group</title><g><title>Vector</title><path d="M83.6239,87.2v0h-4.82923c-2.17555,0 -3.94467,3.3079 -3.94467,7.4068c0,4.0989 1.76912,7.4068 3.94467,7.4068c0.07172,0 0.14344,0 0.21516,0h4.42281c0.07173,0 0.14345,0 0.21517,0c2.17559,0 3.94469,-3.3079 3.94469,-7.4068c-0.0239,-4.0989 -1.7931,-7.4068 -3.9686,-7.4068z" fill="#21255c" fill-opacity="1"></path></g><g><title>Group</title><g><title>Vector</title><path d="M83.62467,102.0136c2.17858,0 3.94467,-3.3161 3.94467,-7.4068c0,-4.09066 -1.76609,-7.4068 -3.94467,-7.4068c-2.17858,0 -3.94467,3.31614 -3.94467,7.4068c0,4.0907 1.76609,7.4068 3.94467,7.4068z" fill="#495375" fill-opacity="1"></path></g><g><title>Vector</title><path d="M83.1,90.94161c0.21516,-0.19176 0.43033,-0.31161 0.69331,-0.31161c0.98019,0 1.76912,1.79776 1.76912,4.02699c0,2.22923 -0.78893,4.027 -1.76912,4.027c-0.23907,0 -0.47814,-0.11985 -0.69331,-0.31161c0.64549,-0.59926 1.09973,-2.03747 1.09973,-3.71539c0,-1.65394 -0.45424,-3.09215 -1.09973,-3.71538z" fill="#c7d2d7" fill-opacity="1"></path></g><g><title>Vector</title><path d="M83.09972,98.40076c0.60736,0 1.09973,-1.66343 1.09973,-3.71538c0,-2.05195 -0.49237,-3.71538 -1.09973,-3.71538c-0.60736,0 -1.09972,1.66343 -1.09972,3.71538c0,2.05195 0.49236,3.71538 1.09972,3.71538z" fill="#99a3b0" fill-opacity="1"></path></g></g></g><g><title>Group</title><g><title>Vector</title><path d="M62.0864,47.6v0h-39.0164v0v47.6288v0h39.0164v0z" fill="#eca85e" fill-opacity="1"></path></g><g><title>Vector</title><path d="M58.62,47.6v0v47.6288v0h20.8709c0,-0.3835 0,-0.7431 0.0239,-1.1026c0,-0.0719 0,-0.1199 0.0239,-0.1918c0.0478,-0.6232 0.1196,-1.2225 0.2391,-1.7978c0.0239,-0.0719 0.0239,-0.1198 0.0478,-0.1917c0.1195,-0.6472 0.2869,-1.2465 0.4782,-1.7978c0.0239,-0.0719 0.0478,-0.1198 0.0717,-0.1917c0.239,-0.6712 0.5259,-1.2705 0.8606,-1.7978c0.0478,-0.0719 0.0717,-0.1438 0.1196,-0.1918c0.6455,-0.9588 1.4105,-1.582 2.2472,-1.7977c0.2152,-0.048 0.4065,-0.0719 0.6216,-0.0719c0.2152,0 0.4303,0.0239 0.6216,0.0719c0.8368,0.2157 1.6018,0.8629 2.2473,1.7977c0.0478,0.0719 0.0956,0.1199 0.1195,0.1918c0.3347,0.5273 0.6216,1.1266 0.8607,1.7978c0.0239,0.0719 0.0478,0.1198 0.0717,0.1917c0.1912,0.5513 0.3586,1.1746 0.4781,1.7978c0.0239,0.0719 0.0239,0.1198 0.0478,0.1917c0.0957,0.5753 0.1913,1.1746 0.2391,1.7978c0,0.0719 0,0.1199 0.0239,0.1918c0.0239,0.3595 0.0239,0.743 0.0239,1.1026h2.4625v0v-47.6288v0z" fill="#f4d071" fill-opacity="1"></path></g><g><title>Vector</title><path d="M75.551,92.66503v0h-13.24458c-0.23907,0 -0.40642,-0.19177 -0.40642,-0.4075v-6.40003c0,-0.2397 0.19126,-0.4075 0.40642,-0.4075h13.24458c0.239,0 0.4064,0.19176 0.4064,0.4075v6.40003c0,0.21573 -0.1674,0.4075 -0.4064,0.4075z" fill="#fbeed1" fill-opacity="1"></path></g><g><title>Vector</title><path d="M80.825,47.6v0h-11.595v0v22.4601v0h11.595v0z" fill="#fcf5e6" fill-opacity="1"></path></g><g><title>Group</title><g opacity="0.4"><title>Vector</title></g><g opacity="0.4"><title>Vector</title></g><g opacity="0.4"><title>Vector</title></g></g></g></g><g><title>Vector</title><path d="M97.1105,55.39033v0h-32.82451v0l-5.66599,-7.79033v0h32.8245v0z" fill="#eca85e" fill-opacity="1"></path></g><g><title>Vector</title><path d="M17.33,55.39033v0h35.6455v0l5.666,-7.79033v0h-35.64552v0z" fill="#f4d071" fill-opacity="1"></path></g><g><title>Group</title><g><title>Group</title><g><title>Vector</title><path d="M20.46068,71.61912v0h-5.88114c-0.07172,0 -0.11953,-0.04794 -0.11953,-0.11985v-8.50942c0,-0.07191 0.04781,-0.11985 0.11954,-0.11985h2.22336c0.07173,0 0.11954,0.04794 0.11954,0.11985c0,0.07191 -0.04781,0.11985 -0.11954,0.11985h-2.10382v0v8.26972v0h5.7377c0.07172,0 0.11953,0.04794 0.11953,0.11985c0.04782,0.07191 -0.0239,0.11985 -0.09562,0.11985z" fill="#21255c" fill-opacity="1"></path></g><g><title>Vector</title><path d="M13.7994,70.46798v0h1.57787c0.35861,0 0.6694,-0.28764 0.6694,-0.67116v-5.10566c0,-0.35955 -0.28689,-0.67116 -0.6694,-0.67116h-1.57787c-0.35861,0 -0.6694,0.28764 -0.6694,0.67116v5.10566c0,0.35955 0.31079,0.67116 0.6694,0.67116z" fill="#21255c" fill-opacity="1"></path></g></g><g><title>Vector</title><path d="M53.77112,95.23059v0h-9.49112c0,-5.08169 2.12773,-9.18059 4.75752,-9.18059c2.60587,0 4.7336,4.0989 4.7336,9.18059z" fill="#10164f" fill-opacity="1"></path></g><g><title>Group</title><g><title>Vector</title><path d="M48.5039,87.2v0h-4.82923c-2.17554,0 -3.94467,3.3079 -3.94467,7.4068c0,4.0989 1.76913,7.4068 3.94467,7.4068c0.07172,0 0.14345,0 0.21517,0h4.3989c0.07172,0 0.14344,0 0.21516,0c2.1755,0 3.9447,-3.3079 3.9447,-7.4068c0,-4.0989 -1.7692,-7.4068 -3.9447,-7.4068z" fill="#21255c" fill-opacity="1"></path></g><g><title>Group</title><g><title>Vector</title><path d="M48.5081,102.0136c2.2578,0 4.08811,-3.3161 4.08811,-7.4068c0,-4.09066 -1.83031,-7.4068 -4.08811,-7.4068c-2.25779,0 -4.0881,3.31614 -4.0881,7.4068c0,4.0907 1.83031,7.4068 4.0881,7.4068z" fill="#495375" fill-opacity="1"></path></g><g><title>Vector</title><path d="M48.1,90.94161c0.21516,-0.19176 0.43033,-0.31161 0.69331,-0.31161c0.98019,0 1.76912,1.79776 1.76912,4.02699c0,2.22923 -0.78893,4.027 -1.76912,4.027c-0.23907,0 -0.47814,-0.11985 -0.69331,-0.31161c0.64549,-0.59926 1.09973,-2.03747 1.09973,-3.71539c0,-1.65394 -0.45424,-3.09215 -1.09973,-3.71538z" fill="#c7d2d7" fill-opacity="1"></path></g><g><title>Vector</title><path d="M48.09972,98.40076c0.60737,0 1.09973,-1.66343 1.09973,-3.71538c0,-2.05195 -0.49236,-3.71538 -1.09973,-3.71538c-0.60736,0 -1.09972,1.66343 -1.09972,3.71538c0,2.05195 0.49236,3.71538 1.09972,3.71538z" fill="#99a3b0" fill-opacity="1"></path></g></g></g><g><title>Group</title><g><title>Vector</title><path d="M21.8739,87.2v0h-4.82923c-2.17554,0 -3.94467,3.3079 -3.94467,7.4068c0,4.0989 1.76913,7.4068 3.94467,7.4068c0.07172,0 0.14344,0 0.21516,0h4.42282c0.07172,0 0.14344,0 0.21516,0c2.17559,0 3.94469,-3.3079 3.94469,-7.4068c-0.0239,-4.0989 -1.793,-7.4068 -3.9686,-7.4068z" fill="#21255c" fill-opacity="1"></path></g></g><g><title>Group</title><g><title>Vector</title><path d="M56.4939,59.18v0v36.0512v0h-2.7254c0,-5.0817 -2.1278,-9.1806 -4.7575,-9.1806c-2.6298,0 -4.7576,4.0989 -4.7576,9.1806h-35.1434v0v-13.8308c0,-0.6712 0.14344,-1.3184 0.38251,-1.9416l7.98498,-19.03235c0.31079,-0.76704 1.05191,-1.24645 1.86471,-1.24645z" fill="#df4268" fill-opacity="1"></path></g><g><title>Vector</title><path d="M54.10278,76.3v0h-2.89278v0v0.62323v0h2.89278v0z" fill="#f4c84d" fill-opacity="1"></path></g><g><title>Group</title><g><title>Group</title><g><title>Vector</title><path d="M13.50965,78.52496v0h-1.53005c-0.26298,0 -0.38251,-0.21573 -0.28688,-0.45543l0.59768,-1.5341c0.09563,-0.26367 0.38251,-0.45543 0.64549,-0.45543h1.53005c0.26298,0 0.38252,0.21573 0.28689,0.45543l-0.59768,1.5341c-0.09563,0.2397 -0.38251,0.45543 -0.64549,0.45543z" fill="#ffffff" fill-opacity="1"></path></g><g><title>Vector</title><path d="M11.97754,78.6426c-0.16735,0 -0.28688,-0.07191 -0.38251,-0.19176c-0.09563,-0.11985 -0.09563,-0.28764 -0.02391,-0.45543l0.62158,-1.5341c0.11954,-0.31161 0.45423,-0.55131 0.76503,-0.55131h1.53005c0.16735,0 0.28688,0.07191 0.38251,0.19176c0.09563,0.11985 0.09563,0.28764 0.02391,0.45543l-0.59768,1.5341c-0.14344,0.31161 -0.47814,0.55131 -0.78893,0.55131zM12.95774,76.19764c-0.19126,0 -0.45424,0.16779 -0.52596,0.38353l-0.59768,1.5341c-0.02391,0.09588 -0.02391,0.16779 0,0.21573c0.04781,0.04794 0.09563,0.07191 0.16735,0.07191h1.53006c0.19125,0 0.45423,-0.16779 0.52595,-0.38352l0.59768,-1.5341c0.02391,-0.09588 0.02391,-0.16779 0,-0.21573c-0.04782,-0.04794 -0.09563,-0.07192 -0.16735,-0.07192z" fill="#c6204f" fill-opacity="1"></path></g></g><g><title>Group</title><g><title>Vector</title><path d="M37.81965,78.52496v0h-1.53005c-0.26298,0 -0.38251,-0.21573 -0.28688,-0.45543l0.59768,-1.5341c0.09563,-0.26367 0.38251,-0.45543 0.64549,-0.45543h1.53005c0.26298,0 0.38251,0.21573 0.28689,0.45543l-0.59768,1.5341c-0.09563,0.2397 -0.38251,0.45543 -0.64549,0.45543z" fill="#ffffff" fill-opacity="1"></path></g><g><title>Vector</title><path d="M36.28754,78.6426c-0.16735,0 -0.28688,-0.07191 -0.38251,-0.19176c-0.09563,-0.11985 -0.09563,-0.28764 -0.0239,-0.45543l0.59768,-1.5341c0.11954,-0.31161 0.45423,-0.55131 0.76502,-0.55131h1.53005c0.16735,0 0.28689,0.07191 0.38252,0.19176c0.09563,0.11985 0.09562,0.28764 0.0239,0.45543l-0.59767,1.5341c-0.11954,0.31161 -0.45424,0.55131 -0.76503,0.55131zM37.26773,76.19764c-0.19126,0 -0.45423,0.16779 -0.52595,0.38353l-0.59768,1.5341c-0.02391,0.09588 -0.02391,0.16779 0,0.21573c0.04781,0.04794 0.09563,0.07191 0.16735,0.07191h1.53005c0.19126,0 0.45423,-0.16779 0.52595,-0.38352l0.59768,-1.5341c0.02391,-0.09588 0.02391,-0.16779 0,-0.21573c-0.04781,-0.04794 -0.09563,-0.07192 -0.16735,-0.07192z" fill="#c6204f" fill-opacity="1"></path></g></g></g><g><title>Vector</title><path d="M39.6639,81.8581c0,-0.024 0,-2.8046 0,-2.8285l2.41462,-5.5851l5.35519,-12.41656c0.0239,-0.02397 0.04781,-0.04794 0.09563,-0.04794h7.69806c0.0478,0 0.0956,0.04794 0.0956,0.09588v23.03542c0,0.0479 -0.0478,0.0958 -0.0956,0.0958h-4.9487c-0.81289,0 -1.57791,0.1439 -2.31903,0.4555c-1.6735,0.6951 -2.94058,2.0854 -3.46653,3.8352l-0.54986,1.7978c-0.02391,0.0479 -0.04782,0.0719 -0.09564,0.0719h-1.6974c-0.04781,0 -0.09563,-0.048 -0.09563,-0.0959v-16.2997l-2.22335,5.1296v15.3409c0,0.048 -0.04782,0.0959 -0.09563,0.0959c-0.04782,0 -0.09563,-0.0479 -0.09563,-0.0959v-12.3207zM55.1079,61.14779h-7.53075l-5.33128,12.34471v16.6593h1.50615l0.52595,-1.7259c0.54987,-1.7978 1.86476,-3.236 3.58607,-3.9551c0.76502,-0.3116 1.57786,-0.4794 2.39066,-0.4794h4.8532z" fill="#c6204f" fill-opacity="1"></path></g><g><title>Group</title><g><title>Group</title><g><title>Vector</title><path d="M41.3839,89.62027v0v4.91389c0,0.76705 -0.5738,1.39028 -1.2671,1.39028h-30.95972c-0.69331,0 -1.26708,-0.62323 -1.26708,-1.39028v-4.91389c0,-0.76705 0.57377,-1.39027 1.26708,-1.39027h30.98362c0.6694,0 1.2432,0.62322 1.2432,1.39027z" fill="#ad1245" fill-opacity="1"></path></g><g><title>Vector</title><path d="M36.9849,89.62027v0v4.91389c0,0.76705 -0.5737,1.39028 -1.267,1.39028h-26.56082c-0.69331,0 -1.26708,-0.62323 -1.26708,-1.39028v-4.91389c0,-0.76705 0.57377,-1.39027 1.26708,-1.39027h26.58472c0.6933,0 1.2431,0.62322 1.2431,1.39027z" fill="#c6204f" fill-opacity="1"></path></g></g><g><title>Group</title><g><title>Group</title><g><title>Vector</title><path d="M14.41533,93.84482v0h-4.47063c-0.19126,0 -0.3347,-0.16779 -0.3347,-0.35955v-1.84572c0,-0.19176 0.14344,-0.35955 0.3347,-0.35955h3.56216c0.11953,0 0.23907,0.07192 0.28688,0.19177l0.90848,1.8457c0.11953,0.21573 -0.02391,0.52735 -0.28689,0.52735z" fill="#ffffff" fill-opacity="1"></path></g><g><title>Vector</title><path d="M14.17899,93.53248v0h-2.15164c-0.09563,0 -0.16735,-0.07191 -0.16735,-0.16779v-0.8869c0,-0.09588 0.07172,-0.16779 0.16735,-0.16779h1.6974c0.04782,0 0.11954,0.02397 0.14344,0.09588l0.43033,0.8869c0.07172,0.09588 0,0.2397 -0.11953,0.2397z" fill="#f4c84d" fill-opacity="1"></path></g><g><title>Vector</title><path d="M10.71238,93.51144c0.51493,0 0.93237,-0.46147 0.93237,-1.03072c0,-0.56925 -0.41744,-1.03072 -0.93237,-1.03072c-0.51494,0 -0.93238,0.46147 -0.93238,1.03072c0,0.56925 0.41744,1.03072 0.93238,1.03072z" fill="#d6e9ea" fill-opacity="1"></path></g></g><g><title>Group</title><g><title>Vector</title><path d="M30.57646,93.84482v0h4.47062c0.19126,0 0.3347,-0.16779 0.3347,-0.35955v-1.84572c0,-0.19176 -0.14344,-0.35955 -0.3347,-0.35955h-3.56215c-0.11954,0 -0.23907,0.07192 -0.28689,0.19177l-0.90847,1.8457c-0.11954,0.21573 0.04782,0.52735 0.28689,0.52735z" fill="#ffffff" fill-opacity="1"></path></g><g><title>Vector</title><path d="M30.83815,93.53248v0h2.15164c0.09562,0 0.16734,-0.07191 0.16734,-0.16779v-0.8869c0,-0.09588 -0.07172,-0.16779 -0.16734,-0.16779h-1.69741c-0.04781,0 -0.11953,0.02397 -0.14344,0.09588l-0.43033,0.8869c-0.07172,0.09588 0,0.2397 0.11954,0.2397z" fill="#f4c84d" fill-opacity="1"></path></g><g><title>Vector</title><path d="M33.35,92.48072c0,0.55131 0.40642,1.03072 0.93239,1.03072c0.50205,0 0.93239,-0.45544 0.93239,-1.03072c0,-0.55132 -0.40642,-1.03072 -0.93238,-1.03072c-0.50205,0.02397 -0.93238,0.4794 -0.93238,1.03072z" fill="#d6e9ea" fill-opacity="1"></path></g></g></g><g><title>Vector</title><path d="M28.592,93.62909v0h-12.16874c-0.07172,0 -0.16734,-0.04794 -0.19125,-0.11985l-1.02801,-1.84571c-0.09563,-0.16779 0.02391,-0.38353 0.19126,-0.38353h14.22474c0.1912,0 0.2869,0.21573 0.1912,0.38353l-1.028,1.84571c-0.0239,0.07191 -0.1195,0.11985 -0.1912,0.11985z" fill="#c6204f" fill-opacity="1"></path></g></g><g><title>Group</title><g><title>Group</title><g><title>Group</title><g><title>Group</title><g><title>Vector</title><path d="M45.5146,63.06631v0l-4.0881,9.58809c-0.1434,0.3595 -0.502,0.5992 -0.8845,0.5992h-26.0827c-0.69331,0 -1.17145,-0.7191 -0.88456,-1.3663l4.08811,-9.58804c0.14344,-0.35955 0.50205,-0.59926 0.88456,-0.59926h26.08269c0.6933,0 1.1475,0.71911 0.8845,1.36631z" fill="#7dd3e9" fill-opacity="1"></path></g><g><title>Vector</title><path d="M44.6309,62.22735c0.1434,0 0.2869,0.07191 0.3825,0.19176c0.0956,0.11985 0.0956,0.28764 0.0478,0.43147l-4.0881,9.58812c-0.0717,0.1678 -0.2391,0.2636 -0.4064,0.2636h-26.10656c-0.14344,0 -0.28689,-0.0719 -0.38251,-0.1917c-0.09563,-0.1199 -0.09563,-0.2877 -0.04782,-0.4315l4.08811,-9.58808c0.07173,-0.16779 0.23907,-0.26367 0.40642,-0.26367zM18.54825,61.7c-0.38251,0 -0.74112,0.2397 -0.88456,0.59926l-4.08812,9.58804c-0.26298,0.6472 0.19126,1.3663 0.88456,1.3663h26.08266c0.3825,0 0.7411,-0.2397 0.8845,-0.5992l4.0882,-9.58809c0.2629,-0.6472 -0.1913,-1.36631 -0.8846,-1.36631z" fill="#26407a" fill-opacity="1"></path></g></g><g><title>Vector</title><path d="M23.71603,73.05952c-0.02391,0 -0.04781,-0.02396 -0.07172,-0.04793l-1.29098,-1.74983v0h-5.7377c-0.04781,0 -0.09563,-0.04794 -0.09563,-0.09588c0,-0.04794 0.04781,-0.09588 0.09563,-0.09588h5.78551c0.02391,0 0.04782,0.02397 0.07172,0.04794l1.3388,1.79777c0.02391,0.04794 0.02391,0.09587 -0.02391,0.14381c-0.0239,0 -0.04781,0 -0.07172,0z" fill="#214084" fill-opacity="1"></path></g><g><title>Vector</title><path d="M36.02604,73.05952c-0.0239,0 -0.04781,-0.02396 -0.07172,-0.04793l-1.29098,-1.74983v0h-5.73771c-0.04781,0 -0.09563,-0.04794 -0.09563,-0.09588c0,-0.04794 0.04781,-0.09588 0.09563,-0.09588h5.78552c0.02391,0 0.04782,0.02397 0.07172,0.04794l1.3388,1.79777c0.02391,0.04794 0.02391,0.09587 -0.0239,0.14381c-0.02391,0 -0.04782,0 -0.07173,0z" fill="#214084" fill-opacity="1"></path></g></g><g opacity="0.4"><title>Group</title><g opacity="0.16000000000000003"><title>Vector</title><path d="M34.1596,61.7v0l-11.4993,11.5297v0h-4.0403v0l11.4993,-11.5297v0z" fill="#ffffff" fill-opacity="1"></path></g><g opacity="0.16000000000000003"><title>Vector</title><path d="M37.0551,61.7v0l-11.49928,11.5297v0h-1.07582v0l11.4993,-11.5297v0z" fill="#ffffff" fill-opacity="1"></path></g></g></g><g><title>Group</title><g><title>Group</title><g><title>Vector</title><path d="M54.5546,62.39246v0v10.16344c0,0.3835 -0.3108,0.6951 -0.6933,0.6951h-9.65845c-0.09563,0 -0.16735,-0.024 -0.23907,-0.048c-0.35861,-0.1198 -0.54986,-0.5273 -0.38251,-0.9108l1.36271,-3.21203v0l2.96448,-6.95138c0.09563,-0.26367 0.35861,-0.4075 0.62159,-0.4075h5.33126c0.3825,-0.02397 0.6933,0.28764 0.6933,0.67116z" fill="#7dd3e9" fill-opacity="1"></path></g><g><title>Vector</title><path d="M53.8648,62.22735c0.0956,0 0.1673,0.07191 0.1673,0.16779v10.16336c0,0.0959 -0.0717,0.1678 -0.1673,0.1678h-9.65849c-0.07172,0 -0.11953,-0.0479 -0.14344,-0.0719c-0.02391,-0.024 -0.04781,-0.0719 -0.02391,-0.1438l4.32719,-10.1634c0.0239,-0.07191 0.09562,-0.09588 0.14344,-0.09588h5.35521zM48.5335,61.7c-0.26298,0 -0.52596,0.16779 -0.62159,0.4075l-4.32719,10.1634c-0.19126,0.4554 0.14344,0.9588 0.62158,0.9588h9.65849c0.3825,0 0.6933,-0.3116 0.6933,-0.6952v-10.16333c0,-0.35955 -0.3108,-0.67117 -0.6933,-0.67117z" fill="#26407a" fill-opacity="1"></path></g></g><g opacity="0.4"><title>Group</title><g opacity="0.16000000000000003"><title>Vector</title><path d="M54.5546,62.39246v0v0.19177v0l-10.59083,10.61877c-0.35861,-0.1198 -0.54986,-0.5273 -0.38251,-0.9108l1.36271,-3.21203v0l7.33948,-7.35887v0h1.57785c0.3825,-0.02397 0.6933,0.28764 0.6933,0.67116z" fill="#ffffff" fill-opacity="1"></path></g><g opacity="0.16000000000000003"><title>Vector</title><path d="M54.5555,63.83v0v1.34233v0l-8.03279,8.054v0h-1.36271v0z" fill="#ffffff" fill-opacity="1"></path></g></g></g></g><g><title>Group</title><g><title>Group</title><g><title>Vector</title><path d="M29.2103,87.49361c0.3825,0 0.7172,-0.33558 0.7172,-0.7191v-2.06143c0,-0.38352 -0.3108,-0.7191 -0.7172,-0.7191h-4.44672c-0.38251,0 -0.71721,0.31161 -0.71721,0.7191v2.06143c0,0.38352 0.31079,0.7191 0.71721,0.7191zM22.32506,84.6891c0,-0.40749 -0.3347,-0.7191 -0.71722,-0.7191h-4.47063c-0.40642,0 -0.71721,0.33558 -0.71721,0.7191v2.06144c0,0.40749 0.3347,0.7191 0.71721,0.7191h4.44673c0.40642,0.02397 0.74112,-0.31161 0.74112,-0.7191z" fill="#214084" fill-opacity="1"></path></g><g><title>Group</title><g><title>Group</title><g><title>Vector</title><path d="M31.0529,87.06v0l-0.4781,0.31161v0h-15.39619v0l-0.35861,-0.31161v0z" fill="#21255c" fill-opacity="1"></path></g><g><title>Vector</title><path d="M32.1511,86.34v0l-0.4542,0.31161v0h-17.40439v0l-0.38251,-0.31161v0z" fill="#21255c" fill-opacity="1"></path></g><g><title>Vector</title><path d="M33.2793,85.6v0l-0.4781,0.31161v0h-19.38869v0l-0.38251,-0.31161v0z" fill="#21255c" fill-opacity="1"></path></g><g><title>Vector</title><path d="M34.3775,84.88v0l-0.4781,0.31162v0h-21.39689v0l-0.38251,-0.31162v0z" fill="#21255c" fill-opacity="1"></path></g><g><title>Vector</title><path d="M35.4818,84.16v0l-0.4781,0.28763v0h-23.38119v0l-0.38251,-0.28763v0z" fill="#21255c" fill-opacity="1"></path></g></g></g></g><g><title>Group</title><g><title>Vector</title><path d="M14.53751,87.36804v0h-4.27937c-0.26298,0 -0.47814,-0.21573 -0.47814,-0.4794v-2.22923c0,-0.26367 0.21516,-0.4794 0.47814,-0.4794h4.27937c0.26298,0 0.47814,0.21573 0.47814,0.47941v2.22924c0,0.26367 -0.21516,0.4794 -0.47814,0.4794z" fill="#ffffff" fill-opacity="1"></path></g><g><title>Group</title><g><title>Vector</title><path d="M12.62415,85.79095c0,0.76705 -0.57377,1.39028 -1.26707,1.39028c-0.69331,0 -1.26708,-0.62323 -1.26708,-1.39028c0,-0.76705 0.57377,-1.39028 1.26708,-1.39028c0.6933,-0.02397 1.26707,0.59926 1.26707,1.39028z" fill="#d6e9ea" fill-opacity="1"></path></g><g><title>Vector</title><path d="M11.40628,85.33735c0,0.28765 -0.21516,0.52735 -0.47814,0.52735c-0.26298,0 -0.47814,-0.2397 -0.47814,-0.52735c0,-0.28764 0.21516,-0.52735 0.47814,-0.52735c0.26298,0 0.47814,0.23971 0.47814,0.52735z" fill="#ffffff" fill-opacity="1"></path></g></g><g><title>Group</title><g><title>Vector</title><path d="M14.84382,85.96058c0,0.62322 -0.45423,1.15057 -1.05191,1.15057c-0.59767,0 -1.05191,-0.50338 -1.05191,-1.15057c0,-0.62323 0.45423,-1.15058 1.05191,-1.15058c0.59768,0 1.05191,0.50338 1.05191,1.15058z" fill="#d6e9ea" fill-opacity="1"></path></g><g><title>Vector</title><path d="M13.84503,85.60147c0,0.2397 -0.16735,0.43146 -0.38251,0.43146c-0.21517,0 -0.38251,-0.19176 -0.38251,-0.43146c0,-0.2397 0.16735,-0.43147 0.38251,-0.43147c0.21516,0 0.38251,0.19177 0.38251,0.43147z" fill="#ffffff" fill-opacity="1"></path></g></g></g><g><title>Group</title><g><title>Vector</title><path d="M31.69814,87.36804v0h4.27937c0.26298,0 0.47814,-0.21573 0.47814,-0.4794v-2.22923c0,-0.26367 -0.21516,-0.4794 -0.47814,-0.4794h-4.27937c-0.26298,0 -0.47814,0.21573 -0.47814,0.47941v2.22924c0.02391,0.26367 0.21516,0.4794 0.47814,0.4794z" fill="#ffffff" fill-opacity="1"></path></g><g><title>Group</title><g><title>Vector</title><path d="M33.64,85.79424c0,0.76705 0.57377,1.39028 1.26708,1.39028c0.6933,0 1.26707,-0.62323 1.26707,-1.39028c0,-0.76704 -0.54986,-1.41424 -1.26707,-1.41424c-0.69331,0 -1.26708,0.62322 -1.26708,1.41424z" fill="#d6e9ea" fill-opacity="1"></path></g><g><title>Vector</title><path d="M34.86,85.33735c0,0.28765 0.21516,0.52735 0.47814,0.52735c0.26298,0 0.47814,-0.2397 0.47814,-0.52735c0,-0.28764 -0.21516,-0.52735 -0.47814,-0.52735c-0.26298,0 -0.47814,0.23971 -0.47814,0.52735z" fill="#ffffff" fill-opacity="1"></path></g></g><g><title>Group</title><g><title>Vector</title><path d="M31.41,85.96058c0,0.62322 0.45424,1.15057 1.05192,1.15057c0.57377,0 1.05191,-0.50338 1.05191,-1.15057c0,-0.62323 -0.45423,-1.15058 -1.05191,-1.15058c-0.59768,0 -1.05192,0.50338 -1.05192,1.15058z" fill="#d6e9ea" fill-opacity="1"></path></g><g><title>Vector</title><path d="M32.39,85.60147c0,0.2397 0.16735,0.43146 0.38252,0.43146c0.21516,0 0.38251,-0.19176 0.38251,-0.43146c0,-0.2397 -0.16735,-0.43147 -0.38251,-0.43147c-0.19126,0 -0.38251,0.19177 -0.38251,0.43147z" fill="#ffffff" fill-opacity="1"></path></g></g></g></g><g><title>Vector</title><path d="M34.0181,80.9v0h-21.5881v0v1.15057v0h21.5881v0z" fill="#c6204f" fill-opacity="1"></path></g></g><g><title>Group</title><g><title>Vector</title><path d="M50.16069,71.61912v0h-5.88115c-0.07172,0 -0.11954,-0.04794 -0.11954,-0.11985c0,-0.07191 0.04781,-0.11985 0.11954,-0.11985h5.7377v0v-8.26972v0h-2.10382c-0.07173,0 -0.11954,-0.04794 -0.11954,-0.11985c0,-0.07191 0.04781,-0.11985 0.11954,-0.11985h2.22336c0.07172,0 0.11953,0.04794 0.11953,0.11985v8.50942c0.02391,0.07191 -0.0239,0.11985 -0.09562,0.11985z" fill="#21255c" fill-opacity="1"></path></g><g><title>Vector</title><path d="M50.94727,70.46798v0h-1.57787c-0.35861,0 -0.6694,-0.28764 -0.6694,-0.67116v-5.10566c0,-0.35955 0.28689,-0.67116 0.6694,-0.67116h1.57787c0.35861,0 0.66939,0.28764 0.66939,0.67116v5.10566c0,0.35955 -0.31078,0.67116 -0.66939,0.67116z" fill="#21255c" fill-opacity="1"></path></g></g></g></g></g></g><g><title>Vector</title></g></g></g></g></svg>