<?xml version="1.0" encoding="UTF-8"?>
<svg id="SVGDoc" width="142" height="103" xmlns="http://www.w3.org/2000/svg" version="1.1" xmlns:xlink="http://www.w3.org/1999/xlink" xmlns:avocode="https://avocode.com/" viewBox="0 0 142 103"><defs></defs><desc>Generated with Avocode.</desc><g><g><title>Frame</title><g><title>Background</title></g><g><title>Group</title><g><title>Group</title><g opacity="0.6"><title>Vector</title><path d="M67.7932,101.707c3.2912,-0.3634 6.5422,-0.8479 9.9136,-1.4535c11.8801,-2.14 23.6399,-5.8142 34.7172,-10.5786c4.014,-1.7362 7.947,-3.6743 11.68,-5.895c9.231,-5.4508 16.214,-13.2838 17.579,-24.2661c1.365,-10.9016 -1.726,-22.3685 -5.619,-32.4626c-2.448,-6.4198 -5.338,-13.2838 -10.034,-18.41159c-5.378,-5.89495 -13.044,-6.78323 -20.63,-5.89495c-11.3179,1.33242 -22.596,3.10898 -33.8741,4.6029c-11.0775,1.5343 -22.1549,3.755 -31.8276,9.69034c-11.1577,6.864 -19.5461,17.6444 -25.68685,29.1113c-6.34144,11.8303 -17.01753,34.4814 -2.64896,44.7774c3.45171,2.4629 8.02711,3.8761 12.16111,4.6836c3.7728,0.7268 6.4618,0.8075 9.9536,2.6245c3.6524,1.938 7.5054,4.0376 11.6394,4.6033c4.4551,0.605 8.9101,-0.364 13.3652,-0.4849c3.2108,-0.0808 6.2611,-0.3231 9.3114,-0.6461z" fill="#e5e7ed" fill-opacity="1"></path></g><g><title>Group</title><g><title>Vector</title><path d="M43.4303,78.2117c-1.5653,-1.5746 -3.4517,-4.078 -5.619,-5.693c-2.4483,-1.8573 -5.0169,-3.7146 -7.34481,-5.6527c-4.29452,-3.6339 -8.22782,-9.6096 -9.19107,-15.2623c-1.08366,-6.4602 -0.16054,-12.1129 2.44827,-18.0885c2.8095,-6.4603 4.09384,-13.0416 1.44489,-19.8652c5.45845,1.17091 9.19102,5.89494 12.36182,10.0537c3.572,4.6837 4.0938,10.619 3.853,16.4735c-0.3612,9.65 -7.2646,18.2501 -1.3245,27.4963c1.0034,1.5747 2.0871,2.9475 2.4081,4.8452c0.281,1.8169 -0.1605,3.9972 0.7225,5.2893c0.0401,-0.4038 -0.1204,-0.5653 -0.2408,-0.9691" fill="#d8dff4" fill-opacity="1"></path></g><g><title>Vector</title><path d="M32.6672,70.9824c-1.4047,-0.7268 -3.1707,-1.9784 -4.9367,-2.5841c-2.0067,-0.7268 -4.1339,-1.3728 -6.1006,-2.2207c-3.6122,-1.4939 -7.50535,-4.6433 -9.35159,-8.1964c-2.08705,-4.078 -2.64895,-8.0349 -2.20746,-12.557c0.48163,-4.88554 -0.04013,-9.52882 -3.21085,-13.52607c3.85302,-0.36339 7.34483,1.93806 10.355,4.03763c3.3714,2.34183 4.9768,6.17754 6.0605,10.13444c1.766,6.5006 -0.9633,13.6876 4.9367,18.5731c1.0034,0.8076 2.0068,1.4939 2.6088,2.7052c0.5619,1.1306 0.7626,2.7053 1.6054,3.3513c-0.0401,-0.2827 -0.2007,-0.3634 -0.3612,-0.5653" fill="#d8dff4" fill-opacity="1"></path></g><g><title>Vector</title></g><g><title>Vector</title></g><g><title>Vector</title></g><g><title>Vector</title></g><g><title>Vector</title></g><g><title>Vector</title></g><g><title>Vector</title></g><g><title>Vector</title></g><g><title>Vector</title></g></g><g><title>Group</title><g><title>Vector</title><path d="M116.0279,70.0929c1.1639,-2.0188 2.4081,-5.047 4.1339,-7.2677c1.9667,-2.5437 4.0537,-5.0874 5.8598,-7.7119c3.3313,-4.8048 5.6993,-11.9514 5.1775,-17.8867c-0.6422,-6.8236 -3.0904,-12.234 -7.3448,-17.5637c-4.5755,-5.7738 -7.6258,-12.03215 -6.8231,-19.6229c-5.17746,2.70521 -7.70601,8.43865 -9.75293,13.5261c-2.32786,5.693 -1.24419,11.8302 0.56191,17.6444c2.97004,9.6096 12.24132,16.4332 8.74952,27.3752c-0.602,1.8573 -1.32442,3.5531 -1.12375,5.5315c0.20068,1.8977 1.24425,3.9973 0.68235,5.5316c-0.1606,-0.4038 -0.0402,-0.6057 -0.0402,-1.0094" fill="#d8dff4" fill-opacity="1"></path></g><g><title>Vector</title><path d="M123.9,60.2424c1.20407,-1.0902 2.64895,-2.8264 4.29451,-3.9569c1.84624,-1.292 3.77276,-2.5437 5.53873,-3.8761c3.25096,-2.5034 6.34146,-6.7429 7.22446,-10.7805c1.0033,-4.6836 0.5217,-8.802 -1.164,-13.2434c-1.8462,-4.80481 -2.5285,-9.64997 -0.4013,-14.5355c-4.0136,0.6864 -6.90337,3.99726 -9.35165,6.90435c-2.76936,3.27045 -3.33126,7.59075 -3.37139,11.87065c-0.04014,7.0255 4.65574,13.526 0.04014,20.067c-0.80272,1.0902 -1.60544,2.0592 -1.88638,3.432c-0.28095,1.292 -0.04013,2.9475 -0.72244,3.8357c-0.04014,-0.2826 0.08027,-0.4037 0.20068,-0.6863" fill="#d8dff4" fill-opacity="1"></path></g><g><title>Vector</title></g><g><title>Vector</title></g><g><title>Vector</title></g><g><title>Vector</title></g><g><title>Vector</title></g><g><title>Vector</title></g><g><title>Vector</title></g><g><title>Vector</title></g><g><title>Vector</title></g><g><title>Vector</title></g></g></g><g><title>Group</title><g><title>Vector</title><path d="M85.6066,35.01v0l31.0249,7.22736v0l-15.0107,4.52214v0l-26.8508,-8.31751v0z" fill="#d8dff4" fill-opacity="1"></path></g><g><title>Vector</title><path d="M66.1868,39.61v0l30.7038,7.59075v0l-14.6897,4.15875v0l-26.8909,-8.31751v0z" fill="#d8dff4" fill-opacity="1"></path></g><g><title>Group</title><g><title>Vector</title><path d="M46.6003,45.95v0l30.9847,6.50059v0l-14.9706,4.40101v0l-27.9344,-7.10623v0z" fill="#d8dff4" fill-opacity="1"></path></g><g><title>Vector</title><path d="M68.113,54.82903c-1.6857,-0.24226 -3.5721,-0.1615 -5.1775,-0.88828c-1.8462,-0.8479 -3.4115,-2.46296 -5.4584,-2.86672c-0.883,-0.16151 -1.8061,-0.24226 -2.6891,-0.32301c-2.6089,-0.28264 -9.3918,-0.80753 -9.3918,-4.40102l-10.7162,3.43199v0l27.9344,7.10621v0l6.3816,-1.85729c-0.281,-0.12113 -0.602,-0.1615 -0.883,-0.20188z" fill="#d8dff4" fill-opacity="1"></path></g></g><g><title>Group</title><g><title>Group</title><g><title>Vector</title><path d="M62.61,56.8507v0v26.8503v0l61.247,-24.7104v0v-19.3806v0z" fill="#32436b" fill-opacity="1"></path></g><g opacity="0.2"><title>Vector</title><path d="M70.75754,80.1078c3.81286,-4.5625 -0.84285,-10.7804 2.56866,-15.4237c1.4048,-1.8977 3.4116,-2.786 5.4183,-3.9165c2.368,-1.3324 4.4551,-3.1494 6.783,-4.6029c2.087,-1.3324 4.6557,-2.7052 7.1843,-2.7456c1.6054,0 3.0904,0.2019 4.6557,-0.323c1.3646,-0.4442 2.6489,-1.0902 3.8932,-1.7362c1.204,-0.6057 2.4081,-1.2921 3.6523,-1.6958c1.2442,-0.40378 2.5687,-0.48453 3.853,-0.68641c1.7259,-0.24226 3.4116,-0.64602 5.017,-1.3728c1.2041,-0.52489 2.368,-1.17091 3.6122,-1.69581c1.4449,-0.60564 2.9299,-1.04978 4.3346,-1.61505c0.7225,-0.28263 1.4048,-0.60564 2.1272,-0.88828v-3.83575v0l-61.247,17.2811v0v26.8502v0l8.18767,-3.3108c-0.08027,-0.0404 -0.1204,-0.2019 -0.04013,-0.2827z" fill="#32436b" fill-opacity="1"></path></g></g><g><title>Group</title><g><title>Vector</title></g><g><title>Vector</title></g></g></g><g><title>Group</title><g><title>Group</title><g><title>Group</title><g><title>Vector</title><path d="M115.15,17.96355v0l0.24082,44.41395v0l8.46864,-3.3916v0v-42.4759v0z" fill="#6e80b4" fill-opacity="1"></path></g><g><title>Vector</title><path d="M123.8618,16.51409v0l-24.56304,-2.58409v0l-8.50876,0.96903v0l24.3624,3.0686v0z" fill="#d8dff4" fill-opacity="1"></path></g><g><title>Vector</title><path d="M107.4879,39.2469v0l-17.1379,-4.8451v0v-19.5018v0l18.3019,2.30145v0z" fill="#32436b" fill-opacity="1"></path></g><g><title>Vector</title><path d="M115.14467,33.675v0h-7.30467v0v-16.635v0l7.30467,0.92866v0z" fill="#32436b" fill-opacity="1"></path></g></g><g><title>Group</title><g><title>Vector</title><path d="M115.1538,42.0329v0l-24.8038,-6.016v0v-18.9769v0l24.8038,3.43199v0z" fill="#d3d4ed" fill-opacity="1"></path></g><g><title>Group</title><g><title>Group</title><g><title>Vector</title><path d="M96.68313,24.55v0h-0.92313v0v5.20854v0h0.92313v0z" fill="#32436b" fill-opacity="1"></path></g><g><title>Vector</title><path d="M98.25313,24.99v0h-0.92313v0v5.20855v0h0.92313v0z" fill="#32436b" fill-opacity="1"></path></g><g><title>Vector</title><path d="M99.81313,25.4v0h-0.92313v0v5.20855v0h0.92313v0z" fill="#32436b" fill-opacity="1"></path></g><g><title>Vector</title><path d="M101.38313,25.72v0h-0.92313v0v5.20854v0h0.92313v0z" fill="#32436b" fill-opacity="1"></path></g><g><title>Vector</title><path d="M102.94312,26v0h-0.92312v0v5.20854v0h0.92312v0z" fill="#32436b" fill-opacity="1"></path></g><g><title>Vector</title><path d="M104.51311,26.53v0h-0.92311v0v5.20854v0h0.92311v0z" fill="#32436b" fill-opacity="1"></path></g></g></g><g><title>Group</title><g><title>Group</title><g><title>Vector</title><path d="M96.68313,30.48v0h-0.92313v0v5.20854v0h0.92313v0z" fill="#32436b" fill-opacity="1"></path></g><g><title>Vector</title><path d="M98.25313,30.93v0h-0.92313v0v5.20855v0h0.92313v0z" fill="#32436b" fill-opacity="1"></path></g><g><title>Vector</title><path d="M99.81313,31.33v0h-0.92313v0v5.20854v0h0.92313v0z" fill="#32436b" fill-opacity="1"></path></g><g><title>Vector</title><path d="M101.38313,31.66v0h-0.92313v0v5.20854v0h0.92313v0z" fill="#32436b" fill-opacity="1"></path></g><g><title>Vector</title><path d="M102.94312,31.94v0h-0.92312v0v5.20854v0h0.92312v0z" fill="#32436b" fill-opacity="1"></path></g><g><title>Vector</title><path d="M104.51311,32.42v0h-0.92311v0v5.20855v0h0.92311v0z" fill="#32436b" fill-opacity="1"></path></g></g></g><g><title>Vector</title></g><g><title>Vector</title></g><g><title>Vector</title></g><g><title>Vector</title><path d="M94.52,18.13v0v5.16816v0l11.4387,2.2207v0v-5.93531v0z" fill="#6d727f" fill-opacity="1"></path></g><g><title>Vector</title><path d="M107.24436,25.15193v0l-1.28436,0.36339v0v-5.93532v0h1.28436v0z" fill="#32436b" fill-opacity="1"></path></g><g><title>Vector</title><path d="M94.52,18.13075v0l11.4387,1.45355v0h1.2843v0l-11.92029,-1.5343v0z" fill="#32436b" fill-opacity="1"></path></g><g><title>Group</title><g><title>Vector</title><path d="M111.49433,27.45602c0,0.36339 -0.28094,0.64602 -0.64216,0.64602c-0.36122,0 -0.64217,-0.28263 -0.64217,-0.64602c0,-0.36339 0.28095,-0.64602 0.64217,-0.64602c0.36122,0 0.64216,0.28263 0.64216,0.64602z" fill="#ff7875" fill-opacity="1"></path></g><g><title>Vector</title><path d="M111.21245,29.19338c0,0.20188 -0.16054,0.36338 -0.36122,0.36338c-0.20068,0 -0.36123,-0.1615 -0.36123,-0.36338c0,-0.20188 0.16055,-0.36338 0.36123,-0.36338c0.20068,0 0.36122,0.1615 0.36122,0.36338z" fill="#32436b" fill-opacity="1"></path></g><g><title>Vector</title><path d="M111.21245,30.48339c0,0.20188 -0.16054,0.36339 -0.36122,0.36339c-0.20068,0 -0.36123,-0.16151 -0.36123,-0.36339c0,-0.20188 0.16055,-0.36339 0.36123,-0.36339c0.20068,0 0.36122,0.16151 0.36122,0.36339z" fill="#32436b" fill-opacity="1"></path></g><g><title>Vector</title><path d="M111.21245,31.77339c0,0.20189 -0.16054,0.36339 -0.36122,0.36339c-0.20068,0 -0.36123,-0.16151 -0.36123,-0.36339c0,-0.20188 0.16055,-0.36339 0.36123,-0.36339c0.20068,0 0.36122,0.16151 0.36122,0.36339z" fill="#32436b" fill-opacity="1"></path></g></g><g><title>Group</title><g><title>Vector</title><path d="M92.11434,22.81602c0,0.36339 -0.28095,0.64603 -0.64217,0.64603c-0.36122,0 -0.64217,-0.28264 -0.64217,-0.64603c0,-0.36339 0.28095,-0.64602 0.64217,-0.64602c0.32108,0 0.64217,0.28264 0.64217,0.64602z" fill="#ff7875" fill-opacity="1"></path></g><g><title>Vector</title><path d="M91.79244,24.55339c0,0.20188 -0.16054,0.36339 -0.36121,0.36339c-0.20068,0 -0.36122,-0.16151 -0.36122,-0.36339c0,-0.20188 0.16055,-0.36339 0.36122,-0.36339c0.20068,0 0.36121,0.16151 0.36121,0.36339z" fill="#32436b" fill-opacity="1"></path></g><g><title>Vector</title><path d="M91.79244,25.84339c0,0.20188 -0.16054,0.36339 -0.36121,0.36339c-0.20068,0 -0.36122,-0.16151 -0.36122,-0.36339c0,-0.20188 0.16055,-0.36339 0.36122,-0.36339c0.20068,0 0.36121,0.16151 0.36121,0.36339z" fill="#32436b" fill-opacity="1"></path></g><g><title>Vector</title><path d="M91.79244,27.13339c0,0.20188 -0.16054,0.36339 -0.36121,0.36339c-0.20068,0 -0.36122,-0.16151 -0.36122,-0.36339c0,-0.20188 0.16055,-0.36338 0.36122,-0.36338c0.20068,0 0.36121,0.1615 0.36121,0.36339z" fill="#32436b" fill-opacity="1"></path></g></g></g></g><g><title>Vector</title><path d="M116.63,18.05054v0v36.41946v0l5.69926,-2.0189v0v-35.5311v0z" fill="#32436b" fill-opacity="1"></path></g><g><title>Group</title><g><title>Group</title><g><title>Vector</title></g><g><title>Vector</title></g><g><title>Vector</title></g><g><title>Vector</title></g><g><title>Vector</title></g></g><g><title>Vector</title></g><g><title>Vector</title></g><g><title>Vector</title></g></g><g><title>Vector</title></g></g><g><title>Group</title><g><title>Group</title><g><title>Group</title><g><title>Vector</title><path d="M95.56,20.14543v0v50.18777v0l9.7931,-3.9973v0v-47.8459v0z" fill="#6e80b4" fill-opacity="1"></path></g><g><title>Vector</title><path d="M105.3556,18.49672v0l-27.61331,-2.86672v0l-9.55229,1.04978v0l27.3725,3.47237v0z" fill="#d8dff4" fill-opacity="1"></path></g><g><title>Vector</title><path d="M86.9751,44.0551v0l-19.2651,-5.4508v0v-21.9243v0l20.5495,2.58408v0z" fill="#32436b" fill-opacity="1"></path></g><g><title>Vector</title><path d="M95.56767,37.7942v0h-8.18767v0v-18.6942v0l8.18767,1.04979v0z" fill="#32436b" fill-opacity="1"></path></g></g><g><title>Group</title><g><title>Vector</title><path d="M95.5642,47.2019v0l-27.8542,-6.7428v0v-21.3591v0l27.8542,3.83575v0z" fill="#d3d4ed" fill-opacity="1"></path></g><g><title>Group</title><g><title>Group</title><g><title>Vector</title><path d="M74.7734,27.54v0h-1.0034v0v5.85456v0h1.0034v0z" fill="#32436b" fill-opacity="1"></path></g><g><title>Vector</title><path d="M76.58353,28.06v0h-1.04353v0v5.85457v0h1.04353v0z" fill="#32436b" fill-opacity="1"></path></g><g><title>Vector</title><path d="M78.3034,28.51v0h-1.0034v0v5.85456v0h1.0034v0z" fill="#32436b" fill-opacity="1"></path></g><g><title>Vector</title><path d="M80.11353,28.87v0h-1.04353v0v5.85456v0h1.04353v0z" fill="#32436b" fill-opacity="1"></path></g><g><title>Vector</title><path d="M81.87353,29.19v0h-1.04353v0v5.85456v0h1.04353v0z" fill="#32436b" fill-opacity="1"></path></g><g><title>Vector</title><path d="M83.64353,29.76v0h-1.04353v0v5.85456v0h1.04353v0z" fill="#32436b" fill-opacity="1"></path></g></g></g><g><title>Group</title><g><title>Group</title><g><title>Vector</title><path d="M74.7734,34.2v0h-1.0034v0v5.85456v0h1.0034v0z" fill="#32436b" fill-opacity="1"></path></g><g><title>Vector</title><path d="M76.58353,34.72v0h-1.04353v0v5.85457v0h1.04353v0z" fill="#32436b" fill-opacity="1"></path></g><g><title>Vector</title><path d="M78.3034,35.17v0h-1.0034v0v5.85456v0h1.0034v0z" fill="#32436b" fill-opacity="1"></path></g><g><title>Vector</title><path d="M80.11353,35.53v0h-1.04353v0v5.85456v0h1.04353v0z" fill="#32436b" fill-opacity="1"></path></g><g><title>Vector</title><path d="M81.87353,35.85v0h-1.04353v0v5.85456v0h1.04353v0z" fill="#32436b" fill-opacity="1"></path></g><g><title>Vector</title><path d="M83.64353,36.42v0h-1.04353v0v5.85457v0h1.04353v0z" fill="#32436b" fill-opacity="1"></path></g></g></g><g><title>Vector</title></g><g><title>Vector</title></g><g><title>Vector</title></g><g><title>Vector</title><path d="M72.4,20.31v0v5.81419v0l12.8434,2.54371v0v-6.70247v0z" fill="#6d727f" fill-opacity="1"></path></g><g><title>Vector</title><path d="M86.69489,28.21871v0l-1.44489,0.44414v0v-6.70247v0l1.44489,-0.04038v0z" fill="#32436b" fill-opacity="1"></path></g><g><title>Vector</title><path d="M72.4,20.31075v0l12.8434,1.65544v0l1.4449,-0.04038v0l-13.36518,-1.69581v0z" fill="#32436b" fill-opacity="1"></path></g><g><title>Group</title><g><title>Vector</title><path d="M91.46489,30.85018c0,0.40376 -0.32109,0.72677 -0.72244,0.72677c-0.40136,0 -0.72245,-0.32301 -0.72245,-0.72677c0,-0.40376 0.32109,-0.72677 0.72245,-0.72677c0.40135,-0.04038 0.72244,0.28263 0.72244,0.72677z" fill="#ff7875" fill-opacity="1"></path></g><g><title>Vector</title><path d="M91.15271,32.74376c0,0.20188 -0.16054,0.40376 -0.40135,0.40376c-0.20068,0 -0.40136,-0.16151 -0.40136,-0.40376c0,-0.20188 0.16054,-0.40376 0.40136,-0.40376c0.20068,0 0.40135,0.20188 0.40135,0.40376z" fill="#32436b" fill-opacity="1"></path></g><g><title>Vector</title><path d="M91.15271,34.19376c0,0.20188 -0.16054,0.40376 -0.40135,0.40376c-0.20068,0 -0.40136,-0.16151 -0.40136,-0.40376c0,-0.20188 0.16054,-0.40376 0.40136,-0.40376c0.20068,0 0.40135,0.20188 0.40135,0.40376z" fill="#32436b" fill-opacity="1"></path></g><g><title>Vector</title><path d="M91.15271,35.65376c0,0.20188 -0.16054,0.40376 -0.40135,0.40376c-0.20068,0 -0.40136,-0.16151 -0.40136,-0.40376c0,-0.20188 0.16054,-0.40376 0.40136,-0.40376c0.20068,0 0.40135,0.20188 0.40135,0.40376z" fill="#32436b" fill-opacity="1"></path></g></g><g><title>Group</title><g><title>Vector</title><path d="M69.67488,25.59678c0,0.40376 -0.32109,0.72677 -0.72244,0.72677c-0.40135,0 -0.72244,-0.32301 -0.72244,-0.72677c0,-0.40376 0.32109,-0.72678 0.72244,-0.72678c0.40135,0 0.72244,0.32301 0.72244,0.72678z" fill="#ff7875" fill-opacity="1"></path></g><g><title>Vector</title><path d="M69.31272,27.53377c0,0.20188 -0.16054,0.40377 -0.40136,0.40377c-0.20068,0 -0.40136,-0.16151 -0.40136,-0.40376c0,-0.20188 0.16054,-0.40377 0.40136,-0.40377c0.24082,0 0.40136,0.16151 0.40136,0.40377z" fill="#32436b" fill-opacity="1"></path></g><g><title>Vector</title><path d="M69.31272,28.99376c0,0.20188 -0.16054,0.40376 -0.40136,0.40376c-0.20068,0 -0.40136,-0.1615 -0.40136,-0.40376c0,-0.20188 0.16054,-0.40376 0.40136,-0.40376c0.24082,0 0.40136,0.1615 0.40136,0.40376z" fill="#32436b" fill-opacity="1"></path></g><g><title>Vector</title><path d="M69.31272,30.44376c0,0.20188 -0.16054,0.40376 -0.40136,0.40376c-0.20068,0 -0.40136,-0.16151 -0.40136,-0.40376c0,-0.20188 0.16054,-0.40376 0.40136,-0.40376c0.24082,0 0.40136,0.16151 0.40136,0.40376z" fill="#32436b" fill-opacity="1"></path></g></g></g></g><g><title>Vector</title><path d="M97.29,20.11167v0v40.98193v0l5.69928,-2.0995v0v-40.1341v0z" fill="#32436b" fill-opacity="1"></path></g><g><title>Group</title><g><title>Group</title><g><title>Vector</title></g><g><title>Vector</title></g><g><title>Vector</title></g><g><title>Vector</title></g><g><title>Vector</title></g></g><g><title>Vector</title></g><g><title>Vector</title></g><g><title>Vector</title></g></g><g><title>Vector</title></g></g><g><title>Group</title><g><title>Vector</title><path d="M62.61,83.8241v0l62.2504,-25.1141v0l3.6524,2.09957v0l-60.52462,26.20423v0z" fill="#d8dff4" fill-opacity="1"></path></g><g><title>Vector</title><path d="M67.99,87.0142v0v7.187v0l60.5246,-27.53663v0v-5.85457v0z" fill="#6e80b4" fill-opacity="1"></path></g><g><title>Vector</title><path d="M67.98819,94.1967v0v-7.18697v0l-5.37819,-3.18973v0v6.86398v0z" fill="#32436b" fill-opacity="1"></path></g><g><title>Group</title><g><title>Group</title><g><title>Vector</title></g><g><title>Vector</title></g><g><title>Vector</title></g></g><g><title>Group</title><g><title>Vector</title></g><g><title>Vector</title></g><g><title>Vector</title></g></g><g><title>Group</title><g><title>Vector</title></g><g><title>Vector</title></g><g><title>Vector</title></g></g><g><title>Group</title><g><title>Vector</title></g><g><title>Vector</title></g><g><title>Vector</title></g></g><g><title>Group</title><g><title>Vector</title></g><g><title>Vector</title></g><g><title>Vector</title></g></g><g><title>Group</title><g><title>Vector</title></g><g><title>Vector</title></g><g><title>Vector</title></g></g><g><title>Group</title><g><title>Vector</title></g><g><title>Vector</title></g><g><title>Vector</title></g></g><g><title>Group</title><g><title>Vector</title></g><g><title>Vector</title></g><g><title>Vector</title></g></g><g><title>Group</title><g><title>Vector</title></g><g><title>Vector</title></g><g><title>Vector</title></g></g></g></g><g><title>Group</title><g><title>Group</title><g><title>Group</title><g><title>Vector</title><path d="M76.86,23.05693v0v54.91177v0l10.6761,-4.2799v0v-52.4488v0z" fill="#6e80b4" fill-opacity="1"></path></g><g><title>Vector</title><path d="M87.5366,21.23897v0l-30.0215,-3.10897v0l-10.3951,1.13054v0l29.7405,3.79537v0z" fill="#d8dff4" fill-opacity="1"></path></g><g><title>Vector</title><path d="M67.5107,49.0577v0l-20.9107,-5.9353v0v-23.8624v0l22.3154,2.82634v0z" fill="#32436b" fill-opacity="1"></path></g><g><title>Vector</title><path d="M76.86011,42.2293v0h-8.91011v0v-20.3093v0l8.91011,1.13054v0z" fill="#32436b" fill-opacity="1"></path></g></g><g><title>Group</title><g><title>Vector</title><path d="M76.8623,52.4445v0l-30.2623,-6.5006v0v-24.0239v0l30.2623,4.15876v0z" fill="#d3d4ed" fill-opacity="1"></path></g><g><title>Group</title><g><title>Group</title><g><title>Vector</title><path d="M54.3038,31.09v0h-1.1238v0v6.33908v0h1.1238v0z" fill="#32436b" fill-opacity="1"></path></g><g><title>Vector</title><path d="M56.23381,31.66v0h-1.12381v0v6.33908v0h1.12381v0z" fill="#32436b" fill-opacity="1"></path></g><g><title>Vector</title><path d="M58.1538,32.14v0h-1.1238v0v6.33908v0h1.1238v0z" fill="#32436b" fill-opacity="1"></path></g><g><title>Vector</title><path d="M60.0438,32.5v0h-1.1238v0v6.33908v0h1.1238v0z" fill="#32436b" fill-opacity="1"></path></g><g><title>Vector</title><path d="M61.97381,32.87v0h-1.12381v0v6.33908v0h1.12381v0z" fill="#32436b" fill-opacity="1"></path></g><g><title>Vector</title><path d="M63.89379,33.47v0h-1.12379v0v6.33908v0h1.12379v0z" fill="#32436b" fill-opacity="1"></path></g></g></g><g><title>Group</title><g><title>Group</title><g><title>Vector</title><path d="M54.3038,38.32v0h-1.1238v0v6.33908v0h1.1238v0z" fill="#32436b" fill-opacity="1"></path></g><g><title>Vector</title><path d="M56.23381,38.88v0h-1.12381v0v6.33908v0h1.12381v0z" fill="#32436b" fill-opacity="1"></path></g><g><title>Vector</title><path d="M58.1538,39.37v0h-1.1238v0v6.33908v0h1.1238v0z" fill="#32436b" fill-opacity="1"></path></g><g><title>Vector</title><path d="M60.0438,39.77v0h-1.1238v0v6.33908v0h1.1238v0z" fill="#32436b" fill-opacity="1"></path></g><g><title>Vector</title><path d="M61.97381,40.13v0h-1.12381v0v6.33908v0h1.12381v0z" fill="#32436b" fill-opacity="1"></path></g><g><title>Vector</title><path d="M63.89379,40.74v0h-1.12379v0v6.33908v0h1.12379v0z" fill="#32436b" fill-opacity="1"></path></g></g></g><g><title>Vector</title></g><g><title>Vector</title></g><g><title>Vector</title></g><g><title>Group</title><g><title>Vector</title><path d="M51.65,22.81v0v6.98511v0l14.2883,2.05919v0v-7.38887v0z" fill="#6e80b4" fill-opacity="1"></path></g><g><title>Vector</title><path d="M67.50528,31.41511v0l-1.56528,0.44414v0v-7.38887v0l1.56528,-0.04038v0z" fill="#32436b" fill-opacity="1"></path></g><g><title>Vector</title><path d="M51.65,22.81264v0l14.2883,1.65543v0l1.5653,-0.04037v0l-14.64953,-1.89769v0z" fill="#32436b" fill-opacity="1"></path></g></g><g><title>Group</title><g><title>Vector</title><path d="M72.44543,34.64753c0,0.44414 -0.36122,0.80753 -0.80271,0.80753c-0.44149,0 -0.80271,-0.36339 -0.80271,-0.80753c0,-0.44414 0.36122,-0.80753 0.80272,-0.80753c0.4415,0 0.80272,0.36339 0.80272,0.80753z" fill="#ff7875" fill-opacity="1"></path></g><g><title>Vector</title><path d="M72.04298,36.74414c0,0.24226 -0.20068,0.44414 -0.44149,0.44414c-0.24081,0 -0.44149,-0.20188 -0.44149,-0.44414c0,-0.24226 0.20067,-0.44414 0.44149,-0.44414c0.28095,0 0.44149,0.20188 0.44149,0.44414z" fill="#32436b" fill-opacity="1"></path></g><g><title>Vector</title><path d="M72.04298,38.31414c0,0.24226 -0.20068,0.44414 -0.44149,0.44414c-0.24081,0 -0.44149,-0.20188 -0.44149,-0.44414c0,-0.24226 0.20067,-0.44414 0.44149,-0.44414c0.28095,0.04038 0.44149,0.20188 0.44149,0.44414z" fill="#32436b" fill-opacity="1"></path></g><g><title>Vector</title><path d="M72.04298,39.89414c0,0.24226 -0.20068,0.44414 -0.44149,0.44414c-0.24081,0 -0.44149,-0.20188 -0.44149,-0.44414c0,-0.24226 0.20067,-0.44414 0.44149,-0.44414c0.28095,0.04038 0.44149,0.20188 0.44149,0.44414z" fill="#32436b" fill-opacity="1"></path></g></g><g><title>Group</title><g><title>Vector</title><path d="M48.72542,28.98753c0,0.44414 -0.36122,0.80753 -0.80271,0.80753c-0.44149,0 -0.80271,-0.36339 -0.80271,-0.80753c0,-0.44414 0.36122,-0.80753 0.80271,-0.80753c0.44149,0 0.80271,0.36339 0.80271,0.80753z" fill="#ff7875" fill-opacity="1"></path></g><g><title>Vector</title><path d="M48.36298,31.05414c0,0.24226 -0.20068,0.44414 -0.44149,0.44414c-0.24081,0 -0.44149,-0.20188 -0.44149,-0.44414c0,-0.24226 0.20068,-0.44414 0.44149,-0.44414c0.24081,0.04038 0.44149,0.24226 0.44149,0.44414z" fill="#32436b" fill-opacity="1"></path></g><g><title>Vector</title><path d="M48.36298,32.62414c0,0.24226 -0.20068,0.44414 -0.44149,0.44414c-0.24081,0 -0.44149,-0.20188 -0.44149,-0.44414c0,-0.24226 0.20068,-0.44414 0.44149,-0.44414c0.24081,0.04038 0.44149,0.24226 0.44149,0.44414z" fill="#32436b" fill-opacity="1"></path></g><g><title>Vector</title><path d="M48.36298,34.23414c0,0.24226 -0.20068,0.44414 -0.44149,0.44414c-0.24081,0 -0.44149,-0.20188 -0.44149,-0.44414c0,-0.24226 0.20068,-0.44414 0.44149,-0.44414c0.24081,0 0.44149,0.20188 0.44149,0.44414z" fill="#32436b" fill-opacity="1"></path></g></g></g></g><g><title>Vector</title><path d="M78.83,23.0128v0l0.28095,44.1313v0l6.78292,-2.3418v0l0.08027,-43.1623v0z" fill="#32436b" fill-opacity="1"></path></g><g><title>Group</title><g><title>Group</title><g><title>Vector</title></g><g><title>Vector</title></g><g><title>Vector</title></g><g><title>Vector</title></g><g><title>Vector</title></g></g><g><title>Vector</title></g><g><title>Vector</title></g><g><title>Vector</title></g></g><g><title>Vector</title></g><g><title>Vector</title></g></g><g><title>Group</title><g><title>Vector</title><path d="M45.83,97.7948v0v-37.18663v0l16.7767,-5.16817v0v35.2485v0z" fill="#6e80b4" fill-opacity="1"></path></g><g><title>Group</title><g><title>Group</title><g><title>Group</title><g><title>Vector</title><path d="M36.3219,48.94v0l-12.4019,3.83575v0v37.18665v0l12.4019,-5.249v0z" fill="#6e80b4" fill-opacity="1"></path></g><g opacity="0.4"><title>Vector</title><path d="M26.85004,68.1995c-0.16054,1.7766 -0.44149,3.432 -0.24081,5.2085c0.16054,1.3728 0.40135,2.786 0.28095,4.1588c-0.12041,1.1709 -0.20068,2.3015 -0.12041,3.5127c0.08027,0.8883 0.16054,2.1804 1.00339,2.6649c0.76258,0.4441 1.60543,0.4037 2.44828,0.323c1.32448,-0.1211 2.68909,-0.3634 4.05366,-0.323c0.6422,0.0403 1.4048,0.1211 2.0068,0.4037v-35.2081v0l-12.4019,3.83575v0v9.69035c2.8095,0.4441 3.21086,3.1897 2.97004,5.7334z" fill="#6e80b4" fill-opacity="1"></path></g></g><g><title>Vector</title><path d="M62.6141,55.43774v0l-27.9746,-7.26774v0l-14.6495,4.56252v0l25.8474,7.87338v0z" fill="#d8dff4" fill-opacity="1"></path></g><g><title>Group</title><g><title>Vector</title><path d="M41.4634,85.9188v0l-12.8434,-5.37v0v-19.1788v0l12.8434,4.27989v0z" fill="#d8dff4" fill-opacity="1"></path></g><g><title>Group</title><g><title>Vector</title></g><g><title>Vector</title></g><g><title>Vector</title></g><g><title>Vector</title></g><g><title>Vector</title></g><g><title>Vector</title></g></g><g><title>Vector</title><path d="M33.39614,79.0548c-1.00339,-2.3014 -0.72244,-4.3202 0.28095,-6.5813c0.96326,-2.18033 2.36801,-4.4414 4.93669,-4.80479c1.04352,-0.16151 2.04692,-0.12113 2.84962,0.20188v-2.2207v0l-12.8434,-4.27989v0v19.1788v0l7.34483,3.0686c-0.84285,-1.5343 -1.88638,-2.9475 -2.56869,-4.5626z" fill="#d8dff4" fill-opacity="1"></path></g></g><g><title>Vector</title><path d="M23.92329,89.7143v0l-3.89315,-1.5343v0l-0.04014,-35.41v0l3.93329,1.17092v0z" fill="#32436b" fill-opacity="1"></path></g><g><title>Vector</title><path d="M45.83614,97.789v0l-4.77614,-2.1399v0l0.24081,-36.3791v0l4.53533,1.33242v0z" fill="#32436b" fill-opacity="1"></path></g><g><title>Vector</title><path d="M19.99,52.77v0l25.8474,7.83301v0v7.46959v0l-25.8474,-7.95412v0z" fill="#32436b" fill-opacity="1"></path></g><g><title>Vector</title><path d="M41.2967,59.51779v0l-16.7767,-5.12779v0v6.05645v0l16.7767,4.96625v0z" fill="#6e80b4" fill-opacity="1"></path></g><g><title>Vector</title></g><g><title>Vector</title></g><g><title>Vector</title></g><g opacity="0.2"><title>Vector</title><path d="M51.40886,90.8497c-0.28095,-1.8977 -0.12041,-3.7954 0.44149,-5.6527c0.64217,-1.9381 1.56529,-3.7146 2.12719,-5.6527c0.68231,-2.2611 0.76258,-4.4414 0.5619,-6.7832c-0.16054,-1.8573 -0.40135,-3.8762 0.36122,-5.6527c0.76258,-1.7362 2.16734,-3.18975 3.61224,-4.40103c1.0435,-0.88828 2.5687,-2.01882 4.0938,-2.50334v-4.72403v0l-16.7767,5.16817v0v37.18663v0l6.8632,-2.9071c-0.52176,-1.3728 -1.08366,-2.6649 -1.28434,-4.078z" fill="#6e80b4" fill-opacity="1"></path></g></g><g><title>Group</title><g><title>Vector</title><path d="M32.59,51.64v0l10.8366,2.86672v0v2.05919v0l-10.8366,-3.10898v0z" fill="#12121c" fill-opacity="1"></path></g><g><title>Vector</title><path d="M46.9586,52.97559v0l-3.532,1.53431v0l-10.8366,-2.86673v0l4.57546,-1.41317v0z" fill="#6e80b4" fill-opacity="1"></path></g><g><title>Vector</title><path d="M46.96194,52.97v0v1.89769v0l-3.53194,1.69581v0v-2.0592v0z" fill="#32436b" fill-opacity="1"></path></g><g><title>Vector</title><path d="M34.52,51.0763v0l4.69588,-12.4763v0l10.11422,1.65543v0l-4.4952,13.64717v0z" fill="#32436b" fill-opacity="1"></path></g><g><title>Vector</title><path d="M37.49,47.88925v0l2.8095,-7.42925v0l6.06049,0.96903v0l-2.68909,8.1964v0z" fill="#6e80b4" fill-opacity="1"></path></g><g><title>Vector</title><path d="M49.72655,40.46188v0l-4.25438,13.16272v0l-0.64217,0.2826v0l4.4952,-13.6472v0z" fill="#12121c" fill-opacity="1"></path></g><g><title>Vector</title><path d="M37.4046,49.6264c0,0.36338 -0.32108,0.68639 -0.6823,0.68639c-0.36122,0 -0.6823,-0.32301 -0.6823,-0.68639c0,-0.36339 0.32108,-0.6864 0.6823,-0.6864c0.36122,0 0.6823,0.32301 0.6823,0.6864z" fill="#ff7875" fill-opacity="1"></path></g><g><title>Vector</title><path d="M43.58462,51.8464c0,0.36338 -0.32109,0.6864 -0.68231,0.6864c-0.36122,0 -0.68231,-0.32302 -0.68231,-0.6864c0,-0.36339 0.32109,-0.6864 0.68231,-0.6864c0.36122,0 0.68231,0.32301 0.68231,0.6864z" fill="#ff7875" fill-opacity="1"></path></g><g><title>Vector</title><path d="M39.37461,50.2264c0,0.36338 -0.32108,0.6864 -0.6823,0.6864c-0.36122,0 -0.68231,-0.32301 -0.68231,-0.68639c0,-0.36338 0.32109,-0.68639 0.68231,-0.68639c0.36122,0.04038 0.6823,0.32301 0.6823,0.6864z" fill="#6e80b4" fill-opacity="1"></path></g><g><title>Vector</title><path d="M41.30298,51.15414c0,0.24226 -0.20068,0.44414 -0.44149,0.44414c-0.24081,0 -0.44149,-0.20188 -0.44149,-0.44414c0,-0.24226 0.20068,-0.44414 0.44149,-0.44414c0.24081,0.04038 0.44149,0.20188 0.44149,0.44414z" fill="#d8dff4" fill-opacity="1"></path></g><g><title>Vector</title></g><g><title>Vector</title></g><g><title>Vector</title></g><g><title>Vector</title></g><g><title>Vector</title></g></g></g></g></g><g><title>Group</title><g><title>Group</title><g><title>Group</title><g><title>Vector</title><path d="M14.89112,96.21584v0c0,0 -0.6823,0 -1.48501,0.60564c-0.48163,0.36339 -1.20407,-0.40376 -1.40475,-0.60564c-0.04013,-0.04038 -0.12041,0 -0.12041,0.08075l-0.28095,2.62446v0h6.94347c0.08027,0 0.16054,-0.08075 0.16054,-0.20188v-0.56526c0,-0.08076 -0.04013,-0.16151 -0.08027,-0.20189z" fill="#12121c" fill-opacity="1"></path></g><g><title>Vector</title><path d="M11.84149,96.66102v0l-0.44149,-4.03763v0l3.09045,-0.36338v0l0.40135,3.95688v0c0,0 -0.5619,0.72677 -1.20407,0.88828c-0.64217,0.16151 -1.84624,-0.44414 -1.84624,-0.44414v0z" fill="#ff7875" fill-opacity="1"></path></g></g><g><title>Vector</title><path d="M7.63,65.76941v0c0,0 1.16393,7.34849 1.64556,11.14389c0.52177,3.7954 0.96326,7.187 1.16394,10.942c0.20067,3.755 0.96325,7.1869 0.96325,7.1869v0l3.3714,-0.2018v0c0,0 0.72244,-7.0659 0.96325,-12.1533c0.28095,-5.0874 -0.80271,-14.05097 -1.2442,-15.98904c-0.44149,-1.93806 -0.44149,-1.93806 -0.44149,-1.93806v0z" fill="#32436b" fill-opacity="1"></path></g></g><g><title>Group</title><g><title>Group</title><g><title>Vector</title><path d="M3.29112,96.21584v0c0,0 -0.6823,0 -1.48501,0.60564c-0.48163,0.36339 -1.20407,-0.40376 -1.40475,-0.60564c-0.04014,-0.04038 -0.12041,0 -0.12041,0.08075l-0.28095,2.62446v0h6.94347c0.08027,0 0.16054,-0.08075 0.16054,-0.20188v-0.56526c0,-0.08076 -0.04013,-0.16151 -0.08027,-0.20189z" fill="#12121c" fill-opacity="1"></path></g><g><title>Vector</title><path d="M0.28,96.2965v0l0.72244,-3.9165v0h2.8095v0l-0.52176,3.83575v0c0,0 -0.24082,1.33242 -1.44489,1.33242c-0.6823,0 -1.56529,-1.25167 -1.56529,-1.25167v0z" fill="#ff7875" fill-opacity="1"></path></g></g><g><title>Vector</title><path d="M0.12,94.1936v0c0,0 1.88638,-8.6809 2.52855,-11.8303c0.64217,-3.1493 0.76258,-7.0658 0.92312,-8.80202c0.16054,-1.6958 -0.5619,-7.95413 -0.5619,-7.95413v0l9.67273,-0.76715v0c0,0 -1.4048,10.7805 -3.05034,16.5139c-1.6857,5.7335 -6.26117,13.6876 -6.26117,13.6876v0z" fill="#6e80b4" fill-opacity="1"></path></g><g><title>Vector</title></g></g><g><title>Group</title><g><title>Vector</title><path d="M24.9215,55.801v0c0,0 -6.58224,5.6527 -7.94686,5.4508c-1.32447,-0.2019 -8.1074,-11.66875 -5.1775,-12.83967c0,0 0.68231,-0.72678 1.40475,-0.12113c0.72245,0.60565 2.64896,2.70522 5.13737,8.96355c0,0 5.29794,-3.51274 5.69924,-3.79538c0,0 1.485,-1.97844 1.485,-1.57467c0,0.40376 -0.6421,1.25166 -0.4415,1.29204c0.1606,0.04037 2.2075,-1.41317 2.4082,-1.25166c0.1605,0.12112 -1.2844,0.96903 -1.2041,1.0094c0.0803,0.04038 1.5252,-0.68639 1.6054,-0.52489c0.0803,0.16151 -1.3646,0.88828 -1.3244,0.96903c0.0401,0.04038 1.4449,-0.64602 1.485,-0.52489c0.0401,0.12113 -1.0837,0.72677 -1.1639,0.92865c0,0 1.204,-0.48451 1.2442,-0.28263c0.0802,0.08075 -3.2109,2.30145 -3.2109,2.30145z" fill="#ff7875" fill-opacity="1"></path></g><g><title>Vector</title><path d="M18.30614,55.99861v0c0,0 -4.77615,-11.06312 -7.90673,-8.96355c-2.32787,1.5343 4.4952,14.29324 6.06049,15.46414l5.1374,-3.432v0l-1.4048,-3.75499v0z" fill="#faa53c" fill-opacity="1"></path></g></g><g><title>Group</title><g><title>Vector</title><path d="M0.68107,50.95462c-0.08027,-3.55311 4.37479,-4.40101 4.37479,-4.40101v0c0,0 3.33126,-0.12113 4.41492,0.04038c0.20068,0.04038 0.72245,0.24226 0.72245,0.24226c0.32108,0.04038 1.72587,1.61505 2.20747,2.34183c0.5218,0.80752 0.8027,1.6958 0.8428,2.66483l1.7259,13.6068v0l-12.64277,0.646c-0.04013,0.0404 -1.56529,-11.42645 -1.64556,-15.14108z" fill="#faa53c" fill-opacity="1"></path></g><g><title>Vector</title><path d="M13.7252,64.7201c-0.4415,-0.2019 -0.6422,-0.5653 -0.6422,-1.0498c0,-0.2826 0.0803,-0.646 0,-0.9286c-0.1204,-0.4442 -0.9633,0.0404 -1.2041,0.1615c-0.6823,0.2826 -1.36459,0.6056 -2.08703,0.7268c-0.96326,0.1615 -1.84624,-0.2423 -1.40475,-1.3728c0.40136,-0.9691 1.1238,-1.6958 1.72583,-2.5437c0.60205,-0.8479 1.16395,-1.7766 1.64555,-2.7053c0.3211,-0.6056 0.6422,-1.29199 0.7225,-1.97839c0.0401,-0.36339 0.1204,-1.65543 -0.4817,-0.92866c-0.4013,0.48452 -0.8027,1.04979 -1.0836,1.65543c-0.68234,1.33242 -1.72587,-1.5343 -1.16397,-2.46295c1.00337,-1.73618 1.96667,-3.99726 0.84285,-6.01607c-0.04013,-0.04038 -0.04013,-0.08075 0,-0.12113c-0.20068,-0.1615 -0.32108,-0.28264 -0.40135,-0.28264c0,0 -0.52177,-0.20188 -0.72245,-0.24226c-1.08366,-0.20188 -4.41492,-0.04038 -4.41492,-0.04038v0c0,0 -4.45506,0.8479 -4.37479,4.40102c0.08027,3.71462 1.60543,15.14112 1.60543,15.14112v0l12.6427,-0.646v0l-0.0802,-0.7268c-0.4014,0.0404 -0.8027,0.0807 -1.1238,-0.0404z" fill="#e08a2d" fill-opacity="1"></path></g></g><g><title>Group</title><g><title>Vector</title><path d="M6.58122,44.25376v0l-0.36122,2.66484v0l1.48502,1.61506c0.48163,0.44414 1.92651,1.37279 2.16732,-0.04038l-0.24081,-2.42258v0l-2.40814,-2.2207v0c0,0 -0.36122,0.28264 -0.40135,0.36339c-0.08027,0.12113 -0.24081,0.04037 -0.24081,0.04037v0z" fill="#ff7875" fill-opacity="1"></path></g><g><title>Vector</title><path d="M8.75381,39.57038c-0.20068,-0.04038 -0.36122,-0.04038 -0.52176,-0.04038c-0.04014,0 -0.12041,0.04038 -0.16054,0.04038c-2.20747,0.48452 -1.80611,2.86671 -1.84624,3.27047c-0.04014,0.72678 0.68231,2.86672 1.8061,2.98785c0.12041,0 1.20407,0.76715 2.20746,0c0.52177,-0.40376 0.92312,-1.37279 0.16054,-4.44139c-0.24081,-0.8479 -0.6823,-1.57468 -1.64556,-1.81693z" fill="#ff7875" fill-opacity="1"></path></g><g><title>Vector</title><path d="M6.81978,44.09235c0,1.04979 0,1.69581 -1.24421,1.57468c0.12041,-0.44414 0.36122,-0.84791 0.32109,-1.3728c-0.04014,-0.52489 -0.36122,-0.80752 -0.60204,-1.25166c-0.52176,-1.04979 -0.88299,-2.09957 -0.32109,-3.23011c0.48163,-0.96903 1.56529,-1.77656 2.60882,-1.77656c1.04352,0 2.08705,-0.08075 2.97004,-0.60564c0.44149,-0.24226 0.6823,-0.60564 1.16393,-0.28263c0.44149,0.28263 0.48163,1.09016 0.52176,1.5343c0.04014,0.92866 -0.52176,1.93807 -1.36461,2.38221c-0.96325,0.48451 -1.92651,-0.24226 -2.97004,0.1615c-1.08366,0.44414 -1.16393,1.21129 -1.1238,2.26107c0,0.28264 0,0.64603 0.08027,0.84791" fill="#12121c" fill-opacity="1"></path></g><g><title>Vector</title><path d="M6.18258,44.37431c0.42116,0 0.76258,-0.34347 0.76258,-0.76716c0,-0.42369 -0.34142,-0.76715 -0.76258,-0.76715c-0.42116,0 -0.76258,0.34347 -0.76258,0.76715c0,0.42369 0.34142,0.76716 0.76258,0.76716z" fill="#ff7875" fill-opacity="1"></path></g><g><title>Vector</title></g><g><title>Vector</title></g><g><title>Vector</title><path d="M8.59136,42.68188c0,0.12113 -0.08027,0.20188 -0.20068,0.20188c-0.12041,0 -0.20068,-0.08075 -0.20068,-0.20188c0,-0.12113 0.08027,-0.20188 0.20068,-0.20188c0.12041,0 0.20068,0.08075 0.20068,0.20188z" fill="#12121c" fill-opacity="1"></path></g><g><title>Vector</title><path d="M10.19136,42.23188c0,0.12113 -0.08027,0.20188 -0.20068,0.20188c-0.12041,0 -0.20068,-0.08075 -0.20068,-0.20188c0,-0.12113 0.08027,-0.20188 0.20068,-0.20188c0.08027,0 0.20068,0.08075 0.20068,0.20188z" fill="#12121c" fill-opacity="1"></path></g><g><title>Vector</title></g><g><title>Vector</title></g></g><g><title>Group</title><g><title>Vector</title><path d="M15.13,57.984v0l4.81628,-14.374v0l10.23462,1.77656v0l-5.49861,14.89884v0z" fill="#ffffff" fill-opacity="1"></path></g><g><title>Vector</title><path d="M22.99659,59.599c-0.44149,-0.2826 -0.92312,-0.5249 -1.32448,-0.8479c-1.56529,-1.1305 -0.36122,-2.9071 0.64217,-3.8761c0.88299,-0.8479 1.48502,-1.77657 0.64218,-2.94748c-0.5619,-0.76715 -1.36462,-1.29204 -1.5653,-2.26107c-0.40135,-1.93807 1.6857,-3.91651 3.21086,-5.24892l-4.65574,-0.80753v0l-4.81628,14.4143v0l8.30808,1.9785c-0.1204,-0.1615 -0.28095,-0.2827 -0.44149,-0.4038z" fill="#d8dff4" fill-opacity="1"></path></g><g><title>Vector</title><path d="M26.28452,47.00209c-0.80271,-0.12113 -1.60543,0.52489 -2.00678,-0.60564c-0.24082,-0.60565 -0.76258,-0.92866 -1.36462,-1.09016c-0.60203,-0.16151 -1.1238,0.04038 -1.48502,0.40376c0,0 -0.04013,0 -0.08027,0c-1.16393,0.8479 -1.88638,2.30145 -1.84624,3.75499c0,0.96904 0.5619,1.45355 1.48502,1.29204c0.52176,-0.08075 1.04353,-0.36338 1.60543,-0.20188c0.96325,0.24226 0.72244,1.77656 0.96325,2.50333c0.40136,1.17091 1.24421,1.09017 1.76597,0.08076c0.64217,-1.21129 1.40475,-2.42258 1.92652,-3.71462c0.40135,-1.00941 0.24081,-2.2207 -0.96326,-2.42258z" fill="#6e80b4" fill-opacity="1"></path></g><g><title>Vector</title><path d="M25.32705,53.53549c-0.40136,-1.0094 -0.32109,-1.73618 -0.16054,-2.74559c0.1204,-0.8479 -0.48163,-1.81693 -1.40475,-1.93806c-0.36122,-0.04038 -1.40475,0 -1.56529,0.48452c-1.0034,0.40376 -1.76597,1.21129 -2.48842,1.97844c-0.5619,0.60565 -1.52515,1.3728 -1.20407,2.34183c0.36122,1.09016 1.44489,1.04979 2.40814,0.92866c1.60543,-0.20189 1.92652,1.89769 3.3714,1.93806c0.76258,0 1.24421,-0.8479 1.36461,-1.49392c0.12041,-0.48452 -0.16054,-1.09016 -0.32108,-1.49393z" fill="#faa53c" fill-opacity="1"></path></g><g><title>Vector</title></g><g><title>Vector</title></g><g><title>Vector</title></g><g><title>Vector</title></g><g><title>Vector</title></g><g><title>Vector</title></g></g><g><title>Group</title><g><title>Group</title><g><title>Vector</title><path d="M15.3335,55.96296c0,0 0.5619,-0.92866 0.281,-1.13054c-0.3612,-0.24226 -1.2442,1.97844 -1.2442,1.97844v0l-3.85303,2.78597c-0.52176,0.32301 -0.80271,0.36338 -0.96326,-0.28264c-0.52176,-1.93806 -2.76936,-5.77381 -2.80949,-5.81419l-4.29452,3.35124v0l4.29452,6.86396c0.48162,0.8479 2.08705,0.8479 2.80949,0.2019c2.56869,-2.50334 7.78629,-6.94474 8.10739,-7.22737c0.1606,-0.16151 0.8027,-0.48451 0.6823,-0.72677c-0.1204,-0.20188 -1.204,0.60564 -1.1639,0.52489c0.0401,-0.08076 1.2843,-0.96903 1.2442,-1.13054c-0.1204,-0.24225 -1.485,0.80753 -1.5252,0.80753c-0.3612,0.28264 1.4851,-1.17092 1.164,-1.45355c-0.1204,-0.12113 -1.3646,1.04979 -1.4048,1.00941c-0.0401,-0.04038 1.0436,-1.49393 0.8429,-1.5343c-0.2007,-0.04038 -0.9633,0.88827 -1.164,1.09016c-0.321,0.28263 -1.0435,0.8479 -1.0034,0.6864z" fill="#ff7875" fill-opacity="1"></path></g><g><title>Vector</title><path d="M5.57458,50.1488v0c0,0 -1.2442,-3.51274 -3.57207,-2.01882c-2.44828,1.57468 -2.52855,8.03489 2.72922,15.42372c2.8095,3.9569 7.66587,-0.323 7.66587,-0.323v0l-1.3646,-4.1991v0l-0.88295,0.5249v0z" fill="#faa53c" fill-opacity="1"></path></g></g><g><title>Vector</title></g><g><title>Vector</title></g></g></g></g></g></g></svg>